<svg xmlns="http://www.w3.org/2000/svg" version="1.1" xmlns:xlink="http://www.w3.org/1999/xlink" width="512" height="512" x="0" y="0" viewBox="0 0 512 512" style="enable-background:new 0 0 512 512" xml:space="preserve" class=""><g><path fill="#bdc3c7" d="M290.61 375.44c81.2 4.67 142.41 25.54 142.41 50.57 0 28.45-79.23 51.54-177.02 51.54-97.76 0-177.02-23.09-177.02-51.54 0-24.74 59.8-45.39 139.57-50.41z" opacity="0" data-original="#bdc3c7" class=""></path><path fill="#e04471" d="M254.43 33.67c76.61 0 138.72 62.11 138.72 138.74 0 43.25-58.45 133.59-102.54 203.03-14.46 22.78-27.38 43.31-36.18 59.19-8.51-15.34-21.37-35.93-35.88-59.03-43.86-69.79-102.86-162.57-102.86-203.19 0-76.63 62.11-138.74 138.74-138.74zm61.98 133.51c0-34.16-27.84-62.01-61.98-62.01-34.16 0-62 27.85-62 62.01 0 34.14 27.84 61.98 62 61.98 34.14 0 61.98-27.84 61.98-61.98z" opacity="1" data-original="#e74c3c" class=""></path></g></svg>