<?xml version="1.0" encoding="UTF-8"?>
<svg id="Layer_1" data-name="Layer 1" xmlns="http://www.w3.org/2000/svg" viewBox="0 0 169.83 146.37">
  <defs>
    <style>
      .cls-1 {
        opacity: .25;
      }

      .cls-1, .cls-2, .cls-3 {
        fill: #788890;
      }

      .cls-1, .cls-3 {
        isolation: isolate;
      }

      .cls-4 {
        fill: #e97d24;
      }

      .cls-3 {
        opacity: .18;
      }

      .cls-5 {
        fill: none;
        stroke: #e97d24;
        stroke-miterlimit: 10;
        stroke-width: 3px;
      }
    </style>
  </defs>
  <path class="cls-3" d="M83.03,20.3h23.72c2.05,0,3.71,1.66,3.71,3.71h0c0,2.05-1.66,3.71-3.71,3.71h-23.72c-2.05,0-3.71-1.66-3.71-3.71h0c0-2.05,1.66-3.71,3.71-3.71h0Z"/>
  <path class="cls-3" d="M123.06,20.3h8.89c2.05,0,3.71,1.66,3.71,3.71h0c0,2.05-1.66,3.71-3.71,3.71h-8.89c-2.05,0-3.71-1.66-3.71-3.71h0c0-2.05,1.66-3.71,3.71-3.71Z"/>
  <path class="cls-3" d="M154.19,52.91h0c1.23,0,2.22,1,2.22,2.22v2.96c0,1.23-1,2.22-2.22,2.22h0c-1.23,0-2.22-1-2.22-2.22v-2.96c0-1.23,1-2.22,2.22-2.22Z"/>
  <path class="cls-3" d="M88.97,36.6h29.64c2.05,0,3.71,1.66,3.71,3.71h0c0,2.05-1.66,3.7-3.71,3.7h-29.64c-2.05,0-3.71-1.66-3.71-3.7h0c0-2.05,1.66-3.71,3.71-3.71Z"/>
  <path class="cls-3" d="M112.69,52.91h29.64c2.05,0,3.71,1.66,3.71,3.7h0c0,2.05-1.66,3.71-3.71,3.71h-29.64c-2.05,0-3.71-1.66-3.71-3.71h0c0-2.05,1.66-3.7,3.71-3.7Z"/>
  <path class="cls-3" d="M11.88,87.01h29.65c2.05,0,3.71,1.66,3.71,3.71h0c0,2.05-1.66,3.71-3.71,3.71H11.88c-2.05,0-3.71-1.66-3.71-3.71h0c0-2.05,1.66-3.71,3.71-3.71Z"/>
  <path class="cls-3" d="M24.53,103.31h74.12c2.05,0,3.71,1.66,3.71,3.71h0c0,2.05-1.66,3.71-3.71,3.71H24.53c-2.05,0-3.71-1.66-3.71-3.71h0c0-2.05,1.66-3.71,3.71-3.71Z"/>
  <path class="cls-3" d="M65.25,128.51h74.11c2.05,0,3.71,1.66,3.71,3.7h0c0,2.05-1.66,3.71-3.71,3.71h-74.11c-2.05,0-3.71-1.66-3.71-3.71h0c0-2.05,1.66-3.7,3.71-3.7Z"/>
  <path class="cls-3" d="M148.26,128.51h10.37c2.05,0,3.71,1.66,3.71,3.7h0c0,2.05-1.66,3.71-3.71,3.71h-10.37c-2.05,0-3.71-1.66-3.71-3.71h0c0-2.05,1.66-3.7,3.71-3.7Z"/>
  <path class="cls-3" d="M100.82,112.21h38.54c2.05,0,3.71,1.66,3.71,3.71h0c0,2.05-1.66,3.71-3.71,3.71h-38.54c-2.05,0-3.71-1.66-3.71-3.71h0c0-2.05,1.66-3.71,3.71-3.71h0Z"/>
  <path class="cls-3" d="M124.05,120.9h7.03c1.79,0,3.25,1.46,3.25,3.25h0c0,1.79-1.46,3.25-3.25,3.25h-7.03c-1.79,0-3.25-1.46-3.25-3.25h0c0-1.79,1.46-3.25,3.25-3.25Z"/>
  <path class="cls-3" d="M118.61,70.7h8.89c2.05,0,3.71,1.66,3.71,3.71h0c0,2.05-1.66,3.71-3.71,3.71h-8.89c-2.05,0-3.71-1.66-3.71-3.71h0c0-2.05,1.66-3.71,3.71-3.71Z"/>
  <path class="cls-3" d="M146.78,73.66h1.48c2.05,0,3.71,1.66,3.71,3.71h0c0,2.05-1.66,3.71-3.71,3.71h-1.48c-2.05,0-3.71-1.66-3.71-3.71h0c0-2.05,1.66-3.71,3.71-3.71Z"/>
  <path class="cls-3" d="M47.46,30.67h1.47c2.05,0,3.71,1.66,3.71,3.71h0c0,2.05-1.66,3.7-3.71,3.7h-1.47c-2.05,0-3.71-1.66-3.71-3.7h0c0-2.05,1.66-3.71,3.71-3.71Z"/>
  <path class="cls-3" d="M28.19,130h10.37c2.05,0,3.71,1.66,3.71,3.71h0c0,2.05-1.66,3.71-3.71,3.71h-10.37c-2.05,0-3.71-1.66-3.71-3.71h0c0-2.05,1.66-3.71,3.71-3.71Z"/>
  <path class="cls-3" d="M89.95,29.43h7.04c1.49,0,2.71,1.21,2.71,2.71h0c0,1.49-1.21,2.71-2.71,2.71h-7.04c-1.49,0-2.71-1.21-2.71-2.71h0c0-1.49,1.21-2.71,2.71-2.71Z"/>
  <path class="cls-5" d="M123.93,83.86c0,21.81-17.9,39.54-40.04,39.54s-40.04-17.72-40.04-39.54,17.9-39.54,40.04-39.54,40.04,17.72,40.04,39.54Z"/>
  <path class="cls-1" d="M74.79,67.68c-.48-1.61-.59-3.31-.29-4.97.29-1.66.97-3.22,1.97-4.57s2.31-2.45,3.81-3.2c1.5-.76,3.16-1.15,4.85-1.15s3.34.39,4.85,1.15c1.5.76,2.81,1.85,3.81,3.2,1,1.35,1.68,2.92,1.97,4.57.29,1.66.19,3.36-.29,4.97l-5.67,18.89c-.25.85-.38,1.27-.58,1.62-.25.44-.59.83-1,1.14-.41.3-.88.52-1.37.63-.39.09-.83.09-1.72.09s-1.33,0-1.72-.09c-.5-.11-.97-.33-1.37-.63-.41-.3-.75-.69-1-1.14-.2-.35-.33-.77-.58-1.62l-5.66-18.89h-.01Z"/>
  <path class="cls-1" d="M85.12,115.43c4,0,7.25-3.25,7.25-7.25s-3.25-7.25-7.25-7.25-7.25,3.25-7.25,7.25,3.25,7.25,7.25,7.25Z"/>
  <path class="cls-4" d="M73.33,66.23c-.48-1.61-.59-3.31-.29-4.97.29-1.66.97-3.22,1.97-4.57s2.31-2.45,3.81-3.2c1.5-.76,3.16-1.15,4.85-1.15s3.34.39,4.85,1.15c1.5.76,2.81,1.85,3.81,3.2,1,1.35,1.68,2.92,1.97,4.57.29,1.66.19,3.36-.29,4.97l-5.67,18.89c-.25.85-.38,1.27-.58,1.62-.25.44-.59.83-1,1.14-.41.3-.88.52-1.37.63-.39.09-.83.09-1.72.09s-1.33,0-1.72-.09c-.5-.11-.97-.33-1.37-.63-.41-.3-.75-.69-1-1.14-.2-.35-.33-.77-.58-1.62l-5.66-18.89h-.01Z"/>
  <path class="cls-4" d="M83.67,113.97c4,0,7.25-3.25,7.25-7.25s-3.25-7.25-7.25-7.25-7.25,3.25-7.25,7.25,3.25,7.25,7.25,7.25Z"/>
  <path class="cls-4" d="M25.83,42.32c-2.21,0-4-1.8-4-4s1.8-4,4-4,4,1.8,4,4-1.8,4-4,4ZM25.83,35.31c-1.66,0-3,1.35-3,3s1.35,3,3,3,3-1.35,3-3-1.35-3-3-3Z"/>
  <path class="cls-4" d="M12.82,129.4c-2.21,0-4-1.8-4-4s1.8-4,4-4,4,1.8,4,4-1.8,4-4,4ZM12.82,122.39c-1.66,0-3,1.35-3,3s1.35,3,3,3,3-1.35,3-3-1.35-3-3-3Z"/>
  <path class="cls-4" d="M164.46,108.38c-1.38,0-2.5-1.12-2.5-2.5s1.12-2.5,2.5-2.5,2.5,1.12,2.5,2.5-1.12,2.5-2.5,2.5ZM164.46,104.38c-.83,0-1.5.67-1.5,1.5s.67,1.5,1.5,1.5,1.5-.67,1.5-1.5-.67-1.5-1.5-1.5Z"/>
  <path class="cls-4" d="M151.45,21.3c-.83,0-1.5-.67-1.5-1.5s.67-1.5,1.5-1.5,1.5.67,1.5,1.5-.67,1.5-1.5,1.5ZM151.45,19.3c-.28,0-.5.23-.5.5s.23.5.5.5.5-.22.5-.5-.22-.5-.5-.5Z"/>
  <path class="cls-2" d="M122.43,63.34c-.83,0-1.5-.67-1.5-1.5s.67-1.5,1.5-1.5,1.5.67,1.5,1.5-.67,1.5-1.5,1.5ZM122.43,61.34c-.28,0-.5.22-.5.5s.22.5.5.5.5-.23.5-.5-.23-.5-.5-.5Z"/>
  <path class="cls-2" d="M111.41,144.42c-.83,0-1.5-.67-1.5-1.5s.67-1.5,1.5-1.5,1.5.67,1.5,1.5-.67,1.5-1.5,1.5ZM111.41,142.41c-.28,0-.5.22-.5.5s.22.5.5.5.5-.23.5-.5-.22-.5-.5-.5Z"/>
  <path class="cls-2" d="M4.31,79.35c-.83,0-1.5-.67-1.5-1.5s.67-1.5,1.5-1.5,1.5.67,1.5,1.5-.67,1.5-1.5,1.5ZM4.31,77.35c-.28,0-.5.22-.5.5s.23.5.5.5.5-.23.5-.5-.23-.5-.5-.5Z"/>
  <path class="cls-2" d="M108.91,7.29c-1.66,0-3-1.35-3-3s1.35-3,3-3,3,1.35,3,3-1.35,3-3,3ZM108.91,2.28c-1.1,0-2,.9-2,2s.9,2,2,2,2-.9,2-2-.9-2-2-2Z"/>
</svg>