<svg width="172" height="160" viewBox="0 0 172 160" fill="none" xmlns="http://www.w3.org/2000/svg">
<path d="M90.2906 135.886C119.991 135.886 144.191 111.786 144.191 82.1862C144.091 52.4862 119.991 28.3862 90.2906 28.3862C60.4906 28.3862 36.3906 52.4862 36.3906 82.0862C36.3906 111.786 60.4906 135.886 90.2906 135.886Z" fill="#F1F3FA"/>
<g filter="url(#filter0_d_6007_1768)">
<path d="M73.3695 95.8957C73.3695 100.545 69.6094 104.305 64.9194 104.305C64.8386 104.305 64.1512 104.305 59.0973 104.305C55.5798 104.305 49.9598 104.305 40.9841 104.305H36.6984C31.0784 104.427 26.5906 99.9389 26.5906 94.5211C26.5906 89.0629 31.1189 84.5346 36.8197 84.8176C41.7119 69.5346 64.1108 71.6774 66.0111 87.486C70.2159 88.0116 73.3695 91.5696 73.3695 95.8957Z" fill="url(#paint0_linear_6007_1768)"/>
</g>
<path d="M64.9194 104.305C69.569 104.305 73.3695 100.545 73.3695 95.8958C73.3695 91.2462 69.569 87.4861 64.9194 87.4861C60.2698 87.4861 56.4692 91.2462 56.4692 95.8958C56.4692 100.545 60.2698 104.305 64.9194 104.305Z" fill="url(#paint1_linear_6007_1768)"/>
<path d="M51.1325 104.386C59.4209 104.386 66.1729 97.6746 66.1729 89.3862C66.1729 81.0978 59.4209 74.3862 51.1325 74.3862C42.8441 74.3862 36.092 81.0978 36.092 89.3862C36.092 97.6746 42.8036 104.386 51.1325 104.386Z" fill="url(#paint2_linear_6007_1768)"/>
<g filter="url(#filter1_d_6007_1768)">
<path d="M86.7361 54.6732C86.7361 61.0875 81.5489 66.2747 75.0788 66.2747C74.9672 66.2747 74.019 66.2747 67.047 66.2747C62.1944 66.2747 54.4415 66.2747 42.0591 66.2747H36.1468C28.3938 66.4421 22.2026 60.2509 22.2026 52.7768C22.2026 45.247 28.4496 39 36.3141 39.3905C43.0631 18.3069 73.9632 21.2631 76.5847 43.0717C82.3855 43.7968 86.7361 48.7051 86.7361 54.6732Z" fill="url(#paint3_linear_6007_1768)"/>
</g>
<path d="M75.0787 66.2746C81.493 66.2746 86.736 61.0873 86.736 54.673C86.736 48.2587 81.493 43.0715 75.0787 43.0715C68.6644 43.0715 63.4214 48.2587 63.4214 54.673C63.4214 61.0873 68.6644 66.2746 75.0787 66.2746Z" fill="url(#paint4_linear_6007_1768)"/>
<path d="M56.0589 66.3862C67.4931 66.3862 76.8078 57.1273 76.8078 45.6931C76.8078 34.2589 67.4931 25 56.0589 25C44.6247 25 35.3101 34.2589 35.3101 45.6931C35.3101 57.1273 44.569 66.3862 56.0589 66.3862Z" fill="url(#paint5_linear_6007_1768)"/>
<path d="M71.6465 72.1952C71.6465 62.8277 79.2775 55.2118 88.6636 55.2118C98.0497 55.2118 105.681 62.8277 105.681 72.1952C105.681 81.5628 98.0497 89.1787 88.6636 89.1787C79.2775 89.1787 71.6465 81.6389 71.6465 72.1952ZM88.6636 40.0562C70.1966 40.0562 55.1636 55.0595 55.1636 73.4899C55.1636 86.8939 72.8674 112.255 82.5588 121.699C84.6955 123.755 87.5952 124.593 90.3424 124.059C90.5713 124.059 90.7239 123.983 90.9529 123.907C91.0292 123.907 91.1055 123.907 91.1818 123.831C92.4791 123.45 93.7763 122.689 94.8447 121.699C102.934 113.778 116.593 93.0628 120.866 80.5727C121.477 78.7449 121.935 76.9171 122.087 75.1654C122.164 74.5561 122.164 74.023 122.164 73.4138C122.164 55.0595 107.207 40.0562 88.6636 40.0562Z" fill="url(#paint6_linear_6007_1768)"/>
<path d="M88.6637 132.056C74.5464 132.056 60.2002 128.324 60.2002 121.242C60.2002 119.338 61.2685 116.596 66.3813 114.235C67.3733 113.778 68.4417 114.235 68.8995 115.149C69.3574 116.139 68.8995 117.205 67.9838 117.662C65.0077 119.033 64.0157 120.404 64.0157 121.166C64.0157 124.06 73.6307 128.172 88.6637 128.172C103.697 128.172 113.312 123.983 113.312 121.166C113.312 120.175 111.862 118.576 107.894 117.053C106.902 116.672 106.444 115.606 106.825 114.616C107.207 113.626 108.275 113.169 109.267 113.55C115.754 116.063 117.127 119.109 117.127 121.242C117.127 128.324 102.781 132.056 88.6637 132.056Z" fill="#AAB2C5"/>
<g filter="url(#filter2_d_6007_1768)">
<path d="M149.59 99.2956C149.59 103.945 145.83 107.705 141.14 107.705C141.06 107.705 140.372 107.705 135.318 107.705C131.801 107.705 126.181 107.705 117.205 107.705H112.919C107.299 107.827 102.812 103.339 102.812 97.921C102.812 92.4628 107.34 87.9345 113.041 88.2175C117.933 72.9345 140.332 75.0773 142.232 90.8859C146.437 91.4115 149.59 94.9695 149.59 99.2956Z" fill="url(#paint7_linear_6007_1768)"/>
</g>
<path d="M141.14 107.705C145.79 107.705 149.59 103.945 149.59 99.2957C149.59 94.6461 145.79 90.886 141.14 90.886C136.491 90.886 132.69 94.6461 132.69 99.2957C132.69 103.945 136.491 107.705 141.14 107.705Z" fill="url(#paint8_linear_6007_1768)"/>
<path d="M127.353 107.786C135.642 107.786 142.394 101.075 142.394 92.7861C142.394 84.4977 135.642 77.7861 127.353 77.7861C119.065 77.7861 112.313 84.4977 112.313 92.7861C112.313 101.075 119.025 107.786 127.353 107.786Z" fill="url(#paint9_linear_6007_1768)"/>
<defs>
<filter id="filter0_d_6007_1768" x="4.59058" y="63.4229" width="90.7791" height="73.885" filterUnits="userSpaceOnUse" color-interpolation-filters="sRGB">
<feFlood flood-opacity="0" result="BackgroundImageFix"/>
<feColorMatrix in="SourceAlpha" type="matrix" values="0 0 0 0 0 0 0 0 0 0 0 0 0 0 0 0 0 0 127 0" result="hardAlpha"/>
<feOffset dy="11"/>
<feGaussianBlur stdDeviation="11"/>
<feColorMatrix type="matrix" values="0 0 0 0 0.397708 0 0 0 0 0.47749 0 0 0 0 0.575 0 0 0 0.27 0"/>
<feBlend mode="normal" in2="BackgroundImageFix" result="effect1_dropShadow_6007_1768"/>
<feBlend mode="normal" in="SourceGraphic" in2="effect1_dropShadow_6007_1768" result="shape"/>
</filter>
<filter id="filter1_d_6007_1768" x="0.202637" y="14.0505" width="108.533" height="85.2275" filterUnits="userSpaceOnUse" color-interpolation-filters="sRGB">
<feFlood flood-opacity="0" result="BackgroundImageFix"/>
<feColorMatrix in="SourceAlpha" type="matrix" values="0 0 0 0 0 0 0 0 0 0 0 0 0 0 0 0 0 0 127 0" result="hardAlpha"/>
<feOffset dy="11"/>
<feGaussianBlur stdDeviation="11"/>
<feColorMatrix type="matrix" values="0 0 0 0 0.397708 0 0 0 0 0.47749 0 0 0 0 0.575 0 0 0 0.27 0"/>
<feBlend mode="normal" in2="BackgroundImageFix" result="effect1_dropShadow_6007_1768"/>
<feBlend mode="normal" in="SourceGraphic" in2="effect1_dropShadow_6007_1768" result="shape"/>
</filter>
<filter id="filter2_d_6007_1768" x="80.8115" y="66.8228" width="90.7791" height="73.885" filterUnits="userSpaceOnUse" color-interpolation-filters="sRGB">
<feFlood flood-opacity="0" result="BackgroundImageFix"/>
<feColorMatrix in="SourceAlpha" type="matrix" values="0 0 0 0 0 0 0 0 0 0 0 0 0 0 0 0 0 0 127 0" result="hardAlpha"/>
<feOffset dy="11"/>
<feGaussianBlur stdDeviation="11"/>
<feColorMatrix type="matrix" values="0 0 0 0 0.397708 0 0 0 0 0.47749 0 0 0 0 0.575 0 0 0 0.27 0"/>
<feBlend mode="normal" in2="BackgroundImageFix" result="effect1_dropShadow_6007_1768"/>
<feBlend mode="normal" in="SourceGraphic" in2="effect1_dropShadow_6007_1768" result="shape"/>
</filter>
<linearGradient id="paint0_linear_6007_1768" x1="49.9801" y1="86.7725" x2="49.9648" y2="104.63" gradientUnits="userSpaceOnUse">
<stop stop-color="white"/>
<stop offset="0.9964" stop-color="#ECF0F5"/>
</linearGradient>
<linearGradient id="paint1_linear_6007_1768" x1="55.57" y1="85.6755" x2="63.061" y2="93.8684" gradientUnits="userSpaceOnUse">
<stop stop-color="#BCCBE1"/>
<stop offset="0.9942" stop-color="white" stop-opacity="0"/>
</linearGradient>
<linearGradient id="paint2_linear_6007_1768" x1="34.6837" y1="82.5031" x2="46.4901" y2="87.1234" gradientUnits="userSpaceOnUse">
<stop stop-color="#E2E8F0"/>
<stop offset="0.9942" stop-color="white" stop-opacity="0"/>
</linearGradient>
<linearGradient id="paint3_linear_6007_1768" x1="54.4694" y1="42.0873" x2="54.4483" y2="66.7225" gradientUnits="userSpaceOnUse">
<stop stop-color="white"/>
<stop offset="0.9964" stop-color="#ECF0F5"/>
</linearGradient>
<linearGradient id="paint4_linear_6007_1768" x1="62.1809" y1="40.5737" x2="72.515" y2="51.8761" gradientUnits="userSpaceOnUse">
<stop stop-color="#BCCBE1"/>
<stop offset="0.9942" stop-color="white" stop-opacity="0"/>
</linearGradient>
<linearGradient id="paint5_linear_6007_1768" x1="33.3671" y1="36.1976" x2="49.6546" y2="42.5714" gradientUnits="userSpaceOnUse">
<stop stop-color="#E2E8F0"/>
<stop offset="0.9942" stop-color="white" stop-opacity="0"/>
</linearGradient>
<linearGradient id="paint6_linear_6007_1768" x1="88.6689" y1="42.9798" x2="88.6689" y2="90.2179" gradientUnits="userSpaceOnUse">
<stop stop-color="#B0BACC"/>
<stop offset="1" stop-color="#969EAE"/>
</linearGradient>
<linearGradient id="paint7_linear_6007_1768" x1="126.201" y1="90.1724" x2="126.186" y2="108.03" gradientUnits="userSpaceOnUse">
<stop stop-color="white"/>
<stop offset="0.9964" stop-color="#ECF0F5"/>
</linearGradient>
<linearGradient id="paint8_linear_6007_1768" x1="131.791" y1="89.0754" x2="139.282" y2="97.2683" gradientUnits="userSpaceOnUse">
<stop stop-color="#BCCBE1"/>
<stop offset="0.9942" stop-color="white" stop-opacity="0"/>
</linearGradient>
<linearGradient id="paint9_linear_6007_1768" x1="110.905" y1="85.903" x2="122.711" y2="90.5233" gradientUnits="userSpaceOnUse">
<stop stop-color="#E2E8F0"/>
<stop offset="0.9942" stop-color="white" stop-opacity="0"/>
</linearGradient>
</defs>
</svg>
