<?xml version="1.0" encoding="UTF-8"?>
<svg id="Layer_1" data-name="Layer 1" xmlns="http://www.w3.org/2000/svg" viewBox="0 0 24 24">
  <path d="M9.88,19.88l1.81-1.14,7.23.99c.4-.01.82-.23.88-.67l.43-3.27c-.98-.51-1.52-1.48-1.36-2.54s.9-1.83,1.96-2.05l.41-3.16c.07-.52-.22-.95-.74-1.03l-2.82-.38-.15-1.28c.29-.07.62-.07.95-.02l2.18.29c.44.06.87.28,1.2.54.62.5.87,1.21.77,2l-.44,3.53c-.06.5-.38.84-.91.85s-.94.39-1.01.88.18,1.02.68,1.2c.4.14.77.44.71.93l-.52,3.88c-.17,1.24-1.37,1.83-2.53,1.66l-8.74-1.22Z" fill="#8094a0"/>
  <g>
    <path d="M17.85,8.06c-.27.34-.61.64-.99.85.3.8.47,1.66.47,2.57,0,4.07-3.31,7.38-7.38,7.38s-7.38-3.31-7.38-7.38,3.31-7.38,7.38-7.38c.82,0,1.6.13,2.34.38.2-.39.48-.74.81-1.03-.98-.38-2.04-.59-3.15-.59C5.19,2.87,1.33,6.73,1.33,11.49s3.86,8.61,8.61,8.61,8.61-3.87,8.61-8.61c0-1.21-.25-2.37-.71-3.42Z" fill="#e97d24"/>
    <path d="M9.94,16.53c-2.57,0-4.66-2.09-4.66-4.66h1.24c0,1.89,1.54,3.43,3.43,3.43s3.43-1.54,3.43-3.43h1.24c0,2.57-2.09,4.66-4.66,4.66Z" fill="#e97d24"/>
  </g>
  <path d="M16.08,8.67c-1.39.35-2.78-.31-3.39-1.6-.44-.94-.32-2.06.3-2.9s1.58-1.27,2.64-1.16c1.72.17,2.86,1.69,2.61,3.33-.17,1.11-1,2.04-2.16,2.33ZM15.62,7.67c.08,0,.18-.11.18-.19v-1.16s1.2,0,1.2,0c.11,0,.19-.09.19-.19v-.51c0-.09-.1-.18-.19-.18h-1.2s0-1.18,0-1.18c0-.08-.09-.16-.17-.16h-.59c-.06,0-.14.1-.14.16v1.18s-1.19,0-1.19,0c-.11,0-.21.09-.21.19v.51c.01.08.12.19.21.19h1.19s0,1.18,0,1.18c0,.1.12.18.21.18h.5Z" fill="#e87d25"/>
</svg>