<svg width="337" height="715" viewBox="0 0 337 715" fill="none" xmlns="http://www.w3.org/2000/svg">
<path d="M-20.5 715C-217.587 715 -378 554.587 -378 357.5C-378 160.413 -217.587 0 -20.5 0C176.587 0 337 160.413 337 357.5C337 554.587 176.587 715 -20.5 715ZM-20.5 51.2314C-189.312 51.2314 -326.769 188.688 -326.769 357.5C-326.769 526.312 -189.312 663.769 -20.5 663.769C148.312 663.769 285.769 526.312 285.769 357.5C285.769 188.688 148.312 51.2314 -20.5 51.2314Z" fill="#778890" fill-opacity="0.05"/>
<path d="M-20.5001 567.964C-127.007 567.964 -213.665 481.305 -213.665 374.798H-162.509C-162.509 453.071 -98.7725 516.807 -20.5001 516.807C57.7724 516.807 121.509 453.071 121.509 374.798H172.665C172.665 481.305 86.0064 567.964 -20.5001 567.964Z" fill="#778890" fill-opacity="0.05"/>
</svg>
