<svg enable-background="new 0 0 512 512" viewBox="0 0 512 512" xmlns="http://www.w3.org/2000/svg" xmlns:xlink="http://www.w3.org/1999/xlink"><linearGradient id="SVGID_1_" gradientUnits="userSpaceOnUse" x1="284.966" x2="226.578" y1="-205.851" y2="880.166"><stop offset="0" stop-color="#eae9fe"/><stop offset=".4236" stop-color="#eeeefe"/><stop offset=".8967" stop-color="#fbfbff"/><stop offset="1" stop-color="#fff"/></linearGradient><g id="_x30_2_Bank_Card"><g><path d="m468.836 264.275c-9.502-7.393-20.977-13.763-25.396-24.961-6.009-15.229 3.597-31.571 9.261-46.931 17.296-46.9-4.903-102.439-44.732-132.645-75.982-57.623-224.302-37.425-245.028 42.219-8.768 33.692 6.94 72.131-9.131 103.013-20.278 38.966-74.073 41.594-108.719 58.921-42.922 21.467-51.51 68.209-20.726 103.795 11.304 13.068 25.769 22.07 36.136 36.348 15.001 20.659 23.415 43.504 43.486 60.545 28.263 23.996 75.517 29.946 100.538 2.586 14.09-15.407 18.675-38.106 34.054-52.225 20.245-18.586 52.242-16.086 78.004-6.514 25.762 9.571 49.655 25.026 76.789 29.381 42.426 6.81 87.917-18.085 105.053-57.489 17.136-39.406 4.323-89.654-29.589-116.043z" fill="url(#SVGID_1_)"/><g><path d="m436.791 162.318v187.364c0 15.601-12.647 28.249-28.249 28.249h-305.084c-15.601 0-28.249-12.647-28.249-28.249v-187.364c0-15.601 12.647-28.249 28.249-28.249h305.085c15.601 0 28.248 12.648 28.248 28.249z" fill="#2769fd"/><path d="m75.209 185.782h361.582v50.1h-361.582z" fill="#ededed"/><path d="m177.696 279.425v43.564c0 9.941-7.985 17.928-17.926 17.928h-43.621c-9.94 0-17.925-7.986-17.925-17.928v-43.564c0-9.941 7.985-17.928 17.925-17.928h43.621c9.941 0 17.926 7.987 17.926 17.928z" fill="#f9bb40"/><g fill="none" stroke-miterlimit="10"><path d="m123.647 340.926v-79.438" stroke="#ffab02" stroke-width="1.5"/><path d="m152.272 261.488v79.438" stroke="#ffab02" stroke-width="1.5"/><path d="m177.678 315.519h-25.406" stroke="#ffab02" stroke-width="1.5"/><path d="m152.272 286.894h25.406" stroke="#ffab02" stroke-width="1.5"/><path d="m98.224 315.519h25.406" stroke="#ffab02" stroke-width="1.5"/><path d="m123.63 286.894h-25.406" stroke="#ffab02" stroke-width="1.5"/><path d="m364.843 286.376h38.35" stroke="#69adfe" stroke-linecap="round" stroke-linejoin="round" stroke-width="2"/><path d="m218.442 316.037h113.813" stroke="#69adfe" stroke-linecap="round" stroke-linejoin="round" stroke-width="2"/><path d="m293.413 286.376h38.35" stroke="#69adfe" stroke-linecap="round" stroke-linejoin="round" stroke-width="2"/><path d="m221.983 286.376h38.35" stroke="#69adfe" stroke-linecap="round" stroke-linejoin="round" stroke-width="2"/></g><path d="m103.458 381.681h305.084c17.644 0 31.998-14.354 31.998-31.998 0-41.355 0-148.178 0-187.365 0-17.644-14.354-31.998-31.998-31.998h-305.084c-17.644 0-31.998 14.354-31.998 31.998v187.365c0 17.643 14.354 31.998 31.998 31.998zm-24.498-192.149h354.08v42.6h-354.08zm24.498-51.713h305.084c13.508 0 24.498 10.99 24.498 24.498v19.714h-354.08v-19.714c0-13.508 10.99-24.498 24.498-24.498zm-24.498 101.813h354.08v110.05c0 13.508-10.99 24.498-24.498 24.498h-305.084c-13.508 0-24.498-10.99-24.498-24.498z" fill="#332e8e"/><path d="m116.148 344.666h7.402c.033.001.064.01.097.01s.064-.009.097-.01h28.43c.033.001.064.01.097.01s.064-.009.097-.01h7.401c11.953 0 21.677-9.725 21.677-21.678v-43.563c0-11.953-9.724-21.677-21.677-21.677h-7.401c-.033-.001-.064-.01-.097-.01s-.064.009-.097.01h-28.43c-.033-.001-.064-.01-.097-.01s-.064.009-.097.01h-7.402c-11.952 0-21.675 9.724-21.675 21.677v43.563c.001 11.953 9.723 21.678 21.675 21.678zm57.798-32.898h-17.925v-21.124h17.925zm-25.425 25.398h-21.124v-71.919h21.124zm-28.624-25.398h-17.924v-21.124h17.924zm-17.923 11.22v-3.719h17.924v17.898h-3.749c-7.817-.001-14.175-6.36-14.175-14.179zm57.795 14.178h-3.748v-17.898h17.925v3.719c0 7.82-6.36 14.179-14.177 14.179zm14.177-57.741v3.719h-17.925v-17.897h3.748c7.817 0 14.177 6.36 14.177 14.178zm-57.798-14.178h3.749v17.897h-17.924v-3.719c.001-7.818 6.359-14.178 14.175-14.178z" fill="#332e8e"/><path d="m364.842 290.127h38.351c2.072 0 3.75-1.678 3.75-3.75s-1.678-3.75-3.75-3.75h-38.351c-2.072 0-3.75 1.678-3.75 3.75s1.679 3.75 3.75 3.75z" fill="#332e8e"/><path d="m218.442 319.787h113.812c2.072 0 3.75-1.678 3.75-3.75s-1.678-3.75-3.75-3.75h-113.812c-2.072 0-3.75 1.678-3.75 3.75s1.678 3.75 3.75 3.75z" fill="#332e8e"/><path d="m293.413 290.127h38.35c2.072 0 3.75-1.678 3.75-3.75s-1.678-3.75-3.75-3.75h-38.35c-2.072 0-3.75 1.678-3.75 3.75s1.678 3.75 3.75 3.75z" fill="#332e8e"/><path d="m221.983 290.127h38.35c2.072 0 3.75-1.678 3.75-3.75s-1.678-3.75-3.75-3.75h-38.35c-2.072 0-3.75 1.678-3.75 3.75s1.679 3.75 3.75 3.75z" fill="#332e8e"/></g></g></g><g id="Layer_1"/></svg>