<svg width="34" height="34" viewBox="0 0 34 34" fill="none" xmlns="http://www.w3.org/2000/svg">
<path d="M29.75 6.375H4.25C3.68641 6.375 3.14591 6.59888 2.7474 6.9974C2.34888 7.39591 2.125 7.93641 2.125 8.5V25.5C2.125 26.0636 2.34888 26.6041 2.7474 27.0026C3.14591 27.4011 3.68641 27.625 4.25 27.625H29.75C30.3136 27.625 30.8541 27.4011 31.2526 27.0026C31.6511 26.6041 31.875 26.0636 31.875 25.5V8.5C31.875 7.93641 31.6511 7.39591 31.2526 6.9974C30.8541 6.59888 30.3136 6.375 29.75 6.375ZM27.4125 8.5L17 15.7037L6.5875 8.5H27.4125ZM4.25 25.5V9.46687L16.3944 17.8713C16.5722 17.9946 16.7835 18.0608 17 18.0608C17.2165 18.0608 17.4278 17.9946 17.6056 17.8713L29.75 9.46687V25.5H4.25Z" fill="#BEBEBE"/>
</svg>
