<svg width="60" height="60" viewBox="0 0 60 60" fill="none" xmlns="http://www.w3.org/2000/svg">
<g clip-path="url(#clip0_137_32)">
<path d="M13.7439 9.24329H57.6966C58.4941 9.24329 59.1039 9.85309 59.1039 10.6505V37.9978C59.1039 38.7953 58.4941 39.4051 57.6966 39.4051H13.7439C12.9465 39.4051 12.3367 38.7953 12.3367 37.9978V10.6505C12.3367 9.85309 12.9465 9.24329 13.7439 9.24329Z" fill="#9DBE87"/>
<path d="M57.6968 40.3432H13.7441C12.4307 40.3432 11.3987 39.3112 11.3987 37.9978V10.6505C11.3987 9.33703 12.4307 8.30505 13.7441 8.30505H57.6968C59.0102 8.30505 60.0422 9.33703 60.0422 10.6505V37.9978C60.0422 39.2643 59.0102 40.3432 57.6968 40.3432ZM13.7441 10.1814C13.4626 10.1814 13.275 10.369 13.275 10.6505V37.9978C13.275 38.2792 13.4626 38.4669 13.7441 38.4669H57.6968C57.9782 38.4669 58.1659 38.2792 58.1659 37.9978V10.6505C58.1659 10.369 57.9782 10.1814 57.6968 10.1814H13.7441Z" fill="#131313"/>
<path d="M9.75685 13.2305H53.7565C54.5539 13.2305 55.1637 13.8403 55.1637 14.6377V41.985C55.1637 42.7825 54.5539 43.3923 53.7565 43.3923H9.75685C8.95941 43.3923 8.34961 42.7825 8.34961 41.985V14.6377C8.34961 13.8403 8.95941 13.2305 9.75685 13.2305Z" fill="#9DBE87"/>
<path d="M53.7095 44.3304H9.75677C8.44335 44.3304 7.41138 43.2984 7.41138 41.985V14.6376C7.41138 13.3242 8.44335 12.2922 9.75677 12.2922H53.7564C55.0698 12.2922 56.1018 13.3242 56.1018 14.6376V41.985C56.0549 43.2515 55.0229 44.3304 53.7095 44.3304ZM9.75677 14.1686C9.47533 14.1686 9.28769 14.3562 9.28769 14.6376V41.985C9.28769 42.2664 9.47533 42.454 9.75677 42.454H53.7564C54.0379 42.454 54.2255 42.2664 54.2255 41.985V14.6376C54.2255 14.3562 54.0379 14.1686 53.7564 14.1686H9.75677Z" fill="#131313"/>
<path d="M6.09791 17.1238H50.0975C50.895 17.1238 51.5048 17.7336 51.5048 18.531V45.8783C51.5048 46.6758 50.895 47.2856 50.0975 47.2856H6.09791C5.30048 47.2856 4.69067 46.6758 4.69067 45.8783V18.531C4.69067 17.7805 5.30048 17.1238 6.09791 17.1238Z" fill="#9DBE87"/>
<path d="M50.0977 48.2238H6.09808C4.78466 48.2238 3.75269 47.1918 3.75269 45.8784V18.5311C3.75269 17.2176 4.78466 16.1857 6.09808 16.1857H50.0977C51.4111 16.1857 52.4431 17.2176 52.4431 18.5311V45.8784C52.4431 47.1449 51.3642 48.2238 50.0977 48.2238ZM6.09808 18.062C5.81663 18.062 5.629 18.2496 5.629 18.5311V45.8784C5.629 46.1598 5.81663 46.3475 6.09808 46.3475H50.0977C50.3792 46.3475 50.5668 46.1598 50.5668 45.8784V18.5311C50.5668 18.2496 50.3792 18.062 50.0977 18.062H6.09808Z" fill="#131313"/>
<path d="M2.34547 20.595H46.3451C47.1425 20.595 47.7523 21.2048 47.7523 22.0022V49.3495C47.7523 50.147 47.1425 50.7568 46.3451 50.7568H2.34547C1.54804 50.7568 0.938232 50.147 0.938232 49.3495V22.0022C0.938232 21.2517 1.54804 20.595 2.34547 20.595Z" fill="#9DBE87"/>
<path d="M46.345 51.695H2.3454C1.03197 51.695 0 50.663 0 49.3496V22.0023C0 20.6888 1.03197 19.6569 2.3454 19.6569H46.345C47.6585 19.6569 48.6904 20.6888 48.6904 22.0023V49.3496C48.6904 50.663 47.6115 51.695 46.345 51.695ZM2.3454 21.5332C2.06395 21.5332 1.87632 21.7208 1.87632 22.0023V49.3496C1.87632 49.631 2.06395 49.8187 2.3454 49.8187H46.345C46.6265 49.8187 46.8141 49.631 46.8141 49.3496V22.0023C46.8141 21.7208 46.6265 21.5332 46.345 21.5332H2.3454Z" fill="#131313"/>
<path d="M40.4346 46.535H8.25576C8.25576 44.3303 6.42635 42.5009 4.22168 42.5009V28.3347C6.42635 28.3347 8.25576 26.5053 8.25576 24.3007H40.4346C40.4346 26.5053 42.264 28.3347 44.4687 28.3347V42.5009C42.2171 42.5009 40.4346 44.3303 40.4346 46.535Z" fill="#D6F0C5"/>
<path d="M40.4345 47.4732H8.25569C7.7397 47.4732 7.31753 47.0511 7.31753 46.5351C7.31753 44.8464 5.91029 43.4391 4.22161 43.4391C3.70562 43.4391 3.28345 43.017 3.28345 42.501V28.3348C3.28345 27.8188 3.70562 27.3966 4.22161 27.3966C5.91029 27.3966 7.31753 25.9894 7.31753 24.3007C7.31753 23.7847 7.7397 23.3625 8.25569 23.3625H40.4345C40.9505 23.3625 41.3727 23.7847 41.3727 24.3007C41.3727 25.9894 42.7799 27.3966 44.4686 27.3966C44.9846 27.3966 45.4068 27.8188 45.4068 28.3348V42.501C45.4068 43.017 44.9846 43.4391 44.4686 43.4391C42.7799 43.4391 41.3727 44.8464 41.3727 46.5351C41.3727 47.0511 40.9505 47.4732 40.4345 47.4732ZM9.10003 45.5969H39.5433C39.9185 43.6268 41.5134 42.0319 43.4835 41.6566V29.1791C41.5134 28.8039 39.9185 27.209 39.5433 25.2389H9.10003C8.72477 27.209 7.1299 28.8039 5.15976 29.1791V41.6097C7.1299 42.0319 8.72477 43.6268 9.10003 45.5969Z" fill="#131313"/>
<path d="M24.4389 41.7973C22.9379 41.7973 21.343 41.2344 20.2172 39.7803C19.8889 39.3581 19.9827 38.7952 20.3579 38.4668C20.7801 38.1385 21.343 38.2323 21.6714 38.6076C22.7971 40.0617 24.5327 40.1086 25.6585 39.7334C26.5967 39.405 27.1596 38.7952 27.1596 38.1385C27.1596 37.5287 25.7054 37.1065 24.4389 36.7312C22.4688 36.1214 19.9827 35.4178 19.9827 33.0724C19.9827 31.9466 20.6863 30.9147 21.9059 30.3049C23.4069 29.5543 25.94 29.2729 28.3323 31.0085C28.7544 31.3368 28.8483 31.8997 28.5199 32.3219C28.1916 32.7441 27.6287 32.8379 27.2065 32.5095C25.6116 31.3368 23.8291 31.3837 22.7502 31.9466C22.1873 32.2281 21.8121 32.6503 21.8121 33.0724C21.8121 33.9637 23.1255 34.3858 24.908 34.9487C26.8312 35.5116 28.9421 36.1684 28.9421 38.1385C28.9421 39.5926 27.8632 40.9061 26.1745 41.5159C25.7054 41.6566 25.0487 41.7973 24.4389 41.7973Z" fill="#131313"/>
<path d="M24.3451 31.5714C23.8292 31.5714 23.407 31.1492 23.407 30.6332V28.5693C23.407 28.0533 23.8292 27.6311 24.3451 27.6311C24.8611 27.6311 25.2833 28.0533 25.2833 28.5693V30.6332C25.2833 31.1961 24.8611 31.5714 24.3451 31.5714Z" fill="#131313"/>
<path d="M24.3451 43.5798C23.8292 43.5798 23.407 43.1576 23.407 42.6416V41.0937C23.407 40.5777 23.8292 40.1555 24.3451 40.1555C24.8611 40.1555 25.2833 40.5777 25.2833 41.0937V42.6416C25.2833 43.1576 24.8611 43.5798 24.3451 43.5798Z" fill="#131313"/>
<path d="M10.3667 35.9807C10.3667 36.2086 10.4116 36.4343 10.4988 36.6449C10.586 36.8555 10.7139 37.0468 10.875 37.208C11.0362 37.3691 11.2275 37.497 11.4381 37.5842C11.6487 37.6714 11.8744 37.7163 12.1023 37.7163C12.3302 37.7163 12.5559 37.6714 12.7665 37.5842C12.977 37.497 13.1684 37.3691 13.3295 37.208C13.4907 37.0468 13.6185 36.8555 13.7058 36.6449C13.793 36.4343 13.8379 36.2086 13.8379 35.9807C13.8379 35.5204 13.655 35.0789 13.3295 34.7535C13.0041 34.428 12.5626 34.2451 12.1023 34.2451C11.642 34.2451 11.2005 34.428 10.875 34.7535C10.5496 35.0789 10.3667 35.5204 10.3667 35.9807Z" fill="#AECD99"/>
<path d="M12.1022 38.6076C10.6481 38.6076 9.42847 37.4349 9.42847 35.9339C9.42847 34.4328 10.6012 33.2601 12.1022 33.2601C13.5564 33.2601 14.776 34.4328 14.776 35.9339C14.776 37.4349 13.5564 38.6076 12.1022 38.6076ZM12.1022 35.1834C11.68 35.1834 11.3048 35.5117 11.3048 35.9808C11.3048 36.4499 11.6331 36.7782 12.1022 36.7782C12.5244 36.7782 12.8997 36.4499 12.8997 35.9808C12.8997 35.5117 12.5244 35.1834 12.1022 35.1834Z" fill="#131313"/>
<path d="M34.9463 35.9807C34.9463 36.441 35.1291 36.8825 35.4546 37.208C35.7801 37.5334 36.2216 37.7163 36.6819 37.7163C37.1422 37.7163 37.5836 37.5334 37.9091 37.208C38.2346 36.8825 38.4175 36.441 38.4175 35.9807C38.4175 35.5204 38.2346 35.0789 37.9091 34.7535C37.5836 34.428 37.1422 34.2451 36.6819 34.2451C36.2216 34.2451 35.7801 34.428 35.4546 34.7535C35.1291 35.0789 34.9463 35.5204 34.9463 35.9807Z" fill="#AECD99"/>
<path d="M36.6821 38.6076C35.2279 38.6076 34.0083 37.4349 34.0083 35.9339C34.0083 34.4328 35.181 33.2601 36.6821 33.2601C38.1362 33.2601 39.3558 34.4328 39.3558 35.9339C39.3558 37.4349 38.1362 38.6076 36.6821 38.6076ZM36.6821 35.1834C36.2599 35.1834 35.8846 35.5117 35.8846 35.9808C35.8846 36.4499 36.213 36.7782 36.6821 36.7782C37.1511 36.7782 37.4795 36.4499 37.4795 35.9808C37.4795 35.5117 37.1042 35.1834 36.6821 35.1834Z" fill="#131313"/>
</g>
<defs>
<clipPath id="clip0_137_32">
<rect width="60" height="60" fill="white"/>
</clipPath>
</defs>
</svg>
