<svg fill="none" height="64" viewBox="0 0 64 64" width="64" xmlns="http://www.w3.org/2000/svg"><g clip-rule="evenodd" fill="rgb(0,0,0)" fill-rule="evenodd"><path d="m10 2c-4.41828 0-8 3.58172-8 8v12c0 4.4183 3.58172 8 8 8h12c4.4183 0 8-3.5817 8-8v-12c0-4.41828-3.5817-8-8-8zm-4 8c0-2.20914 1.79086-4 4-4h12c2.2091 0 4 1.79086 4 4v12c0 2.2091-1.7909 4-4 4h-12c-2.20914 0-4-1.7909-4-4z"/><path d="m49.9502 3.55654c-.207-.91047-1.0165-1.55654-1.9502-1.55654s-1.7432.64607-1.9502 1.55654l-1.1066 4.8664c-.5118 2.25086-2.2694 4.00846-4.5203 4.52026l-4.8664 1.1066c-.9104.207-1.5565 1.0165-1.5565 1.9502s.6461 1.7432 1.5565 1.9502l4.8664 1.1066c2.2509.5118 4.0085 2.2694 4.5203 4.5203l1.1066 4.8664c.207.9104 1.0165 1.5565 1.9502 1.5565s1.7432-.6461 1.9502-1.5565l1.1066-4.8664c.5118-2.2509 2.2694-4.0085 4.5203-4.5203l4.8664-1.1066c.9104-.207 1.5565-1.0165 1.5565-1.9502s-.6461-1.7432-1.5565-1.9502l-4.8664-1.1066c-2.2509-.5118-4.0085-2.2694-4.5203-4.52026zm-6.3118 12.44346c1.8758-.9573 3.4043-2.4858 4.3616-4.3616.9573 1.8758 2.4858 3.4043 4.3616 4.3616-1.8758.9573-3.4043 2.4858-4.3616 4.3616-.9573-1.8758-2.4858-3.4043-4.3616-4.3616z"/><path d="m2 42c0-4.4183 3.58172-8 8-8h12c4.4183 0 8 3.5817 8 8v12c0 4.4183-3.5817 8-8 8h-12c-4.41828 0-8-3.5817-8-8zm8-4c-2.20914 0-4 1.7909-4 4v12c0 2.2091 1.79086 4 4 4h12c2.2091 0 4-1.7909 4-4v-12c0-2.2091-1.7909-4-4-4z"/><path d="m42 34c-4.4183 0-8 3.5817-8 8v12c0 4.4183 3.5817 8 8 8h12c4.4183 0 8-3.5817 8-8v-12c0-4.4183-3.5817-8-8-8zm-4 8c0-2.2091 1.7909-4 4-4h12c2.2091 0 4 1.7909 4 4v12c0 2.2091-1.7909 4-4 4h-12c-2.2091 0-4-1.7909-4-4z"/></g></svg>