<svg width="161" height="160" viewBox="0 0 161 160" fill="none" xmlns="http://www.w3.org/2000/svg">
<path d="M130.603 88.8C130.603 103 124.803 115.8 115.503 125C106.403 134.1 93.8026 139.6 79.9026 139.6C66.1026 139.6 53.5026 134 44.3026 125C35.0026 115.8 29.2026 103 29.2026 88.8C29.2026 60.7 51.9026 38 79.9026 38C107.903 38 130.603 60.8 130.603 88.8Z" fill="#F5F6FA"/>
<g filter="url(#filter0_dd_6006_1053)">
<path d="M116.032 65.5109L116.832 129.911C116.832 132.111 115.032 133.811 112.832 133.811H50.0317C47.8317 133.811 46.0317 132.011 46.0317 129.911V47.1109C46.0317 44.9109 47.8317 43.2109 50.0317 43.2109H95.5317L116.032 65.5109Z" fill="white"/>
</g>
<path d="M78.7318 56.7108H56.6318C55.9318 56.7108 55.3318 56.1108 55.3318 55.4108C55.3318 54.7108 55.9318 54.1108 56.6318 54.1108H78.7318C79.4318 54.1108 80.0318 54.7108 80.0318 55.4108C80.0318 56.1108 79.4318 56.7108 78.7318 56.7108Z" fill="#D5DAE5"/>
<path d="M68.2318 63.911H56.6318C55.9318 63.911 55.3318 63.311 55.3318 62.611C55.3318 61.911 55.9318 61.311 56.6318 61.311H68.1318C68.8318 61.311 69.4318 61.911 69.4318 62.611C69.4318 63.311 68.8318 63.911 68.2318 63.911Z" fill="#D5DAE5"/>
<path d="M95.532 43.2109V61.0109C95.532 63.5109 97.732 65.5109 100.232 65.5109H116.032" fill="#D5DAE5"/>
<path d="M65.2652 56.4758L70.0168 39.7158L89.5334 41.9639L82.7195 52.8862L87.9974 57.103L76.6345 81.9566L77.2676 62.7151L65.2652 56.4758Z" fill="#F5F6FA"/>
<path d="M69.4826 37.2657L65.7009 31.5732" stroke="#989FB0" stroke-width="2"/>
<path d="M79.5677 34.4195L80.012 20" stroke="#989FB0" stroke-width="2"/>
<path d="M88.6096 37.4L94.6462 24.2974" stroke="#989FB0" stroke-width="2"/>
<path d="M68.0738 109.379C67.6537 109.379 67.3176 109.211 66.9816 108.959C66.3935 108.371 66.3935 107.363 66.9816 106.774C70.8462 102.994 75.971 100.894 81.4318 100.894C86.8926 100.894 92.0174 102.994 95.882 106.774C96.4701 107.363 96.4701 108.371 95.882 108.959C95.2939 109.547 94.2857 109.547 93.6977 108.959C90.4212 105.682 86.0525 103.918 81.4318 103.918C76.8111 103.918 72.4424 105.682 69.1659 108.959C68.8299 109.211 68.4938 109.379 68.0738 109.379Z" fill="#989FB0"/>
<path d="M73.3668 86.8634L75.3831 84.8471C75.9712 84.259 75.9712 83.2508 75.3831 82.6627C74.795 82.0747 73.7869 82.0747 73.1988 82.6627L71.1825 84.6791L69.1662 82.6627C68.5781 82.0747 67.5699 82.0747 66.9818 82.6627C66.3937 83.2508 66.3937 84.259 66.9818 84.8471L68.9981 86.8634L66.9818 88.8797C66.3937 89.4678 66.3937 90.4759 66.9818 91.064C67.3179 91.4001 67.6539 91.4841 68.074 91.4841C68.4941 91.4841 68.8301 91.3161 69.1662 91.064L71.1825 89.0477L73.1988 91.064C73.5348 91.4001 73.8709 91.4841 74.2909 91.4841C74.711 91.4841 75.0471 91.3161 75.3831 91.064C75.9712 90.4759 75.9712 89.4678 75.3831 88.8797L73.3668 86.8634Z" fill="#989FB0"/>
<path d="M93.7818 86.8634L95.7982 84.8471C96.3862 84.259 96.3862 83.2508 95.7982 82.6627C95.2101 82.0747 94.2019 82.0747 93.6138 82.6627L91.5975 84.6791L89.5812 82.6627C88.9931 82.0747 87.985 82.0747 87.3969 82.6627C86.8088 83.2508 86.8088 84.259 87.3969 84.8471L89.4132 86.8634L87.3969 88.8797C86.8088 89.4678 86.8088 90.4759 87.3969 91.064C87.7329 91.4001 88.069 91.4841 88.489 91.4841C88.9091 91.4841 89.2452 91.3161 89.5812 91.064L91.5975 89.0477L93.6138 91.064C93.9499 91.4001 94.2859 91.4841 94.706 91.4841C95.126 91.4841 95.4621 91.3161 95.7982 91.064C96.3862 90.4759 96.3862 89.4678 95.7982 88.8797L93.7818 86.8634Z" fill="#989FB0"/>
<defs>
<filter id="filter0_dd_6006_1053" x="37.0317" y="38.2109" width="88.8" height="108.6" filterUnits="userSpaceOnUse" color-interpolation-filters="sRGB">
<feFlood flood-opacity="0" result="BackgroundImageFix"/>
<feColorMatrix in="SourceAlpha" type="matrix" values="0 0 0 0 0 0 0 0 0 0 0 0 0 0 0 0 0 0 127 0" result="hardAlpha"/>
<feOffset dy="4"/>
<feGaussianBlur stdDeviation="4.5"/>
<feColorMatrix type="matrix" values="0 0 0 0 0.397708 0 0 0 0 0.47749 0 0 0 0 0.575 0 0 0 0.15 0"/>
<feBlend mode="normal" in2="BackgroundImageFix" result="effect1_dropShadow_6006_1053"/>
<feColorMatrix in="SourceAlpha" type="matrix" values="0 0 0 0 0 0 0 0 0 0 0 0 0 0 0 0 0 0 127 0" result="hardAlpha"/>
<feOffset dy="1"/>
<feGaussianBlur stdDeviation="0.5"/>
<feComposite in2="hardAlpha" operator="out"/>
<feColorMatrix type="matrix" values="0 0 0 0 0 0 0 0 0 0 0 0 0 0 0 0 0 0 0.03 0"/>
<feBlend mode="normal" in2="effect1_dropShadow_6006_1053" result="effect2_dropShadow_6006_1053"/>
<feBlend mode="normal" in="SourceGraphic" in2="effect2_dropShadow_6006_1053" result="shape"/>
</filter>
</defs>
</svg>
