<svg width="165" height="148" viewBox="0 0 165 148" fill="none" xmlns="http://www.w3.org/2000/svg">
<g clip-path="url(#clip0_4013_140)">
<path d="M104.506 19.7206H80.7875C78.7407 19.7206 77.0815 21.3799 77.0815 23.4267C77.0815 25.4735 78.7407 27.1327 80.7875 27.1327H104.506C106.553 27.1327 108.212 25.4735 108.212 23.4267C108.212 21.3799 106.553 19.7206 104.506 19.7206Z" fill="#E97C22" fill-opacity="0.49"/>
<path d="M129.708 19.7206H120.813C118.766 19.7206 117.107 21.3799 117.107 23.4267C117.107 25.4735 118.766 27.1327 120.813 27.1327H129.708C131.754 27.1327 133.414 25.4735 133.414 23.4267C133.414 21.3799 131.754 19.7206 129.708 19.7206Z" fill="#E97C22" fill-opacity="0.49"/>
<path d="M154.167 54.5574C154.167 53.3293 153.172 52.3337 151.944 52.3337C150.716 52.3337 149.72 53.3293 149.72 54.5574V57.5222C149.72 58.7503 150.716 59.7458 151.944 59.7458C153.172 59.7458 154.167 58.7503 154.167 57.5222V54.5574Z" fill="#E97C22" fill-opacity="0.49"/>
<path d="M116.366 36.0271H86.7172C84.6705 36.0271 83.0112 37.6864 83.0112 39.7331C83.0112 41.7799 84.6705 43.4392 86.7172 43.4392H116.366C118.412 43.4392 120.072 41.7799 120.072 39.7331C120.072 37.6864 118.412 36.0271 116.366 36.0271Z" fill="#E97C22" fill-opacity="0.49"/>
<path d="M140.084 52.3337H110.436C108.389 52.3337 106.73 53.993 106.73 56.0398C106.73 58.0866 108.389 59.7458 110.436 59.7458H140.084C142.131 59.7458 143.791 58.0866 143.791 56.0398C143.791 53.993 142.131 52.3337 140.084 52.3337Z" fill="#E97C22" fill-opacity="0.49"/>
<path d="M39.28 86.4294H9.63159C7.58479 86.4294 5.92554 88.0887 5.92554 90.1355C5.92554 92.1823 7.58479 93.8415 9.63159 93.8415H39.28C41.3268 93.8415 42.986 92.1823 42.986 90.1355C42.986 88.0887 41.3268 86.4294 39.28 86.4294Z" fill="#E97C22" fill-opacity="0.49"/>
<path d="M96.41 102.737H22.2891C20.2423 102.737 18.583 104.396 18.583 106.443C18.583 108.489 20.2423 110.149 22.2891 110.149H96.41C98.4568 110.149 100.116 108.489 100.116 106.443C100.116 104.396 98.4568 102.737 96.41 102.737Z" fill="#E97C22" fill-opacity="0.49"/>
<path d="M137.119 127.938H62.9986C60.9518 127.938 59.2925 129.597 59.2925 131.644C59.2925 133.69 60.9518 135.35 62.9986 135.35H137.119C139.166 135.35 140.826 133.69 140.826 131.644C140.826 129.597 139.166 127.938 137.119 127.938Z" fill="#E97C22" fill-opacity="0.49"/>
<path d="M156.391 127.938H146.014C143.967 127.938 142.308 129.597 142.308 131.644C142.308 133.69 143.967 135.35 146.014 135.35H156.391C158.438 135.35 160.097 133.69 160.097 131.644C160.097 129.597 158.438 127.938 156.391 127.938Z" fill="#E97C22" fill-opacity="0.49"/>
<path d="M137.12 111.63H98.5767C96.5299 111.63 94.8706 113.29 94.8706 115.337C94.8706 117.383 96.5299 119.043 98.5767 119.043H137.12C139.166 119.043 140.826 117.383 140.826 115.337C140.826 113.29 139.166 111.63 137.12 111.63Z" fill="#E97C22" fill-opacity="0.49"/>
<path d="M128.843 120.32H121.807C120.013 120.32 118.559 121.773 118.559 123.567V123.567C118.559 125.361 120.013 126.815 121.807 126.815H128.843C130.636 126.815 132.09 125.361 132.09 123.567V123.567C132.09 121.773 130.636 120.32 128.843 120.32Z" fill="#E97C22" fill-opacity="0.49"/>
<path d="M125.261 70.1227H116.366C114.319 70.1227 112.66 71.7819 112.66 73.8287C112.66 75.8755 114.319 77.5348 116.366 77.5348H125.261C127.307 77.5348 128.967 75.8755 128.967 73.8287C128.967 71.7819 127.307 70.1227 125.261 70.1227Z" fill="#E97C22" fill-opacity="0.49"/>
<path d="M146.014 73.0875H144.532C142.485 73.0875 140.826 74.7468 140.826 76.7936C140.826 78.8404 142.485 80.4996 144.532 80.4996H146.014C148.061 80.4996 149.72 78.8404 149.72 76.7936C149.72 74.7468 148.061 73.0875 146.014 73.0875Z" fill="#E97C22" fill-opacity="0.49"/>
<path d="M46.692 30.0975H45.2096C43.1628 30.0975 41.5035 31.7568 41.5035 33.8036C41.5035 35.8504 43.1628 37.5096 45.2096 37.5096H46.692C48.7388 37.5096 50.398 35.8504 50.398 33.8036C50.398 31.7568 48.7388 30.0975 46.692 30.0975Z" fill="#E97C22" fill-opacity="0.49"/>
<path d="M36.315 129.419H25.9381C23.8913 129.419 22.2321 131.079 22.2321 133.126C22.2321 135.172 23.8913 136.832 25.9381 136.832H36.315C38.3618 136.832 40.0211 135.172 40.0211 133.126C40.0211 131.079 38.3618 129.419 36.315 129.419Z" fill="#E97C22" fill-opacity="0.49"/>
<path d="M94.7441 28.8478H87.7079C86.2132 28.8478 85.0016 30.0595 85.0016 31.5541C85.0016 33.0487 86.2132 34.2604 87.7079 34.2604H94.7441C96.2387 34.2604 97.4504 33.0487 97.4504 31.5541C97.4504 30.0595 96.2387 28.8478 94.7441 28.8478Z" fill="#E97C22" fill-opacity="0.49"/>
<path d="M121.683 83.2808C121.683 105.095 103.779 122.82 81.6429 122.82C59.5068 122.82 41.603 105.095 41.603 83.2808C41.603 61.4663 59.5068 43.7414 81.6429 43.7414C103.779 43.7414 121.683 61.4663 121.683 83.2808Z" fill="white" stroke="#E97C22" stroke-width="4"/>
<path d="M72.5456 67.1041C72.0612 65.4927 71.9603 63.7903 72.2511 62.133C72.5418 60.4756 73.2162 58.9093 74.2202 57.559C75.2243 56.2087 76.5302 55.112 78.0336 54.3564C79.5371 53.6008 81.1964 53.2073 82.8791 53.2073C84.5617 53.2073 86.221 53.6008 87.7245 54.3564C89.2279 55.112 90.5339 56.2087 91.5379 57.559C92.5419 58.9093 93.2163 60.4756 93.507 62.133C93.7978 63.7903 93.6969 65.4927 93.2125 67.1041L87.5454 85.998C87.2916 86.8464 87.1647 87.2706 86.9689 87.6187C86.7199 88.0631 86.38 88.45 85.9715 88.7543C85.5629 89.0585 85.0948 89.2732 84.5977 89.3845C84.2061 89.4715 83.7637 89.4715 82.8791 89.4715C81.9944 89.4715 81.552 89.4715 81.1604 89.3845C80.6633 89.2732 80.1952 89.0585 79.7867 88.7543C79.3781 88.45 79.0382 88.0631 78.7892 87.6187C78.5934 87.2706 78.4629 86.8464 78.2091 85.998L72.5456 67.1041Z" fill="#FFC700"/>
<path d="M82.8791 114.851C86.884 114.851 90.1307 111.605 90.1307 107.6C90.1307 103.595 86.884 100.349 82.8791 100.349C78.8742 100.349 75.6276 103.595 75.6276 107.6C75.6276 111.605 78.8742 114.851 82.8791 114.851Z" fill="#FFC700"/>
<path d="M71.0893 65.6477C70.6049 64.0362 70.504 62.3339 70.7948 60.6765C71.0855 59.0192 71.7599 57.4528 72.7639 56.1026C73.768 54.7523 75.0739 53.6556 76.5773 52.9C78.0808 52.1444 79.7401 51.7508 81.4228 51.7508C83.1054 51.7508 84.7647 52.1444 86.2682 52.9C87.7716 53.6556 89.0776 54.7523 90.0816 56.1026C91.0856 57.4528 91.76 59.0192 92.0507 60.6765C92.3415 62.3339 92.2407 64.0362 91.7562 65.6477L86.0891 84.5416C85.8353 85.39 85.7084 85.8142 85.5126 86.1623C85.2636 86.6067 84.9237 86.9936 84.5152 87.2978C84.1066 87.6021 83.6385 87.8168 83.1414 87.928C82.7498 88.0151 82.3074 88.0151 81.4228 88.0151C80.5381 88.0151 80.0957 88.0151 79.7041 87.928C79.207 87.8168 78.7389 87.6021 78.3304 87.2978C77.9218 86.9936 77.5819 86.6067 77.3329 86.1623C77.1371 85.8142 77.0066 85.39 76.7528 84.5416L71.0893 65.6477Z" fill="#E97C22"/>
<path d="M81.4227 113.395C85.4276 113.395 88.6742 110.148 88.6742 106.143C88.6742 102.139 85.4276 98.8924 81.4227 98.8924C77.4178 98.8924 74.1711 102.139 74.1711 106.143C74.1711 110.148 77.4178 113.395 81.4227 113.395Z" fill="#E97C22"/>
<path d="M23.5878 41.2415C25.5229 41.2415 27.0916 39.6728 27.0916 37.7377C27.0916 35.8026 25.5229 34.2339 23.5878 34.2339C21.6527 34.2339 20.084 35.8026 20.084 37.7377C20.084 39.6728 21.6527 41.2415 23.5878 41.2415Z" stroke="#E97C22"/>
<path d="M10.5755 128.324C12.5106 128.324 14.0793 126.756 14.0793 124.821C14.0793 122.885 12.5106 121.317 10.5755 121.317C8.64039 121.317 7.07169 122.885 7.07169 124.821C7.07169 126.756 8.64039 128.324 10.5755 128.324Z" stroke="#E97C22"/>
<path d="M162.219 107.304C163.325 107.304 164.221 106.407 164.221 105.302C164.221 104.196 163.325 103.299 162.219 103.299C161.113 103.299 160.217 104.196 160.217 105.302C160.217 106.407 161.113 107.304 162.219 107.304Z" stroke="#E97C22"/>
<path d="M149.207 20.2214C149.76 20.2214 150.208 19.7731 150.208 19.22C150.208 18.6669 149.76 18.2186 149.207 18.2186C148.654 18.2186 148.206 18.6669 148.206 19.22C148.206 19.7731 148.654 20.2214 149.207 20.2214Z" stroke="#E97C22"/>
<path d="M54.1168 146.341C54.6699 146.341 55.1182 145.893 55.1182 145.339C55.1182 144.786 54.6699 144.338 54.1168 144.338C53.5637 144.338 53.1154 144.786 53.1154 145.339C53.1154 145.893 53.5637 146.341 54.1168 146.341Z" stroke="#E97C22"/>
<path d="M120.18 62.2614C120.733 62.2614 121.181 61.8131 121.181 61.26C121.181 60.707 120.733 60.2586 120.18 60.2586C119.627 60.2586 119.179 60.707 119.179 61.26C119.179 61.8131 119.627 62.2614 120.18 62.2614Z" stroke="#FFC700"/>
<path d="M109.169 143.338C109.722 143.338 110.17 142.89 110.17 142.337C110.17 141.783 109.722 141.335 109.169 141.335C108.616 141.335 108.168 141.783 108.168 142.337C108.168 142.89 108.616 143.338 109.169 143.338Z" stroke="#FFC700"/>
<path d="M2.06734 78.2765C2.62041 78.2765 3.06876 77.8282 3.06876 77.2751C3.06876 76.722 2.62041 76.2737 2.06734 76.2737C1.51427 76.2737 1.06592 76.722 1.06592 77.2751C1.06592 77.8282 1.51427 78.2765 2.06734 78.2765Z" stroke="#FFC700"/>
<path d="M106.667 6.20821C108.049 6.20821 109.17 5.08765 109.17 3.70536C109.17 2.32308 108.049 1.20251 106.667 1.20251C105.285 1.20251 104.164 2.32308 104.164 3.70536C104.164 5.08765 105.285 6.20821 106.667 6.20821Z" stroke="#FFC700"/>
</g>
<defs>
<clipPath id="clip0_4013_140">
<rect width="165" height="147" fill="white" transform="translate(0 0.702515)"/>
</clipPath>
</defs>
</svg>
