<svg width="19" height="19" viewBox="0 0 19 19" fill="none" xmlns="http://www.w3.org/2000/svg">
<path d="M14.3873 13.0516C13.3234 13.3071 12.2127 13.2947 11.1547 13.0156C10.0967 12.7365 9.12443 12.1993 8.32497 11.4522C7.52551 10.7052 6.92382 9.77147 6.57376 8.73478C6.2237 7.69809 6.13622 6.59076 6.31913 5.51196C6.29173 5.53928 6.26233 5.56452 6.23117 5.58747C6.01322 5.75327 5.74077 5.81476 5.19589 5.93775L4.7016 6.04984C2.78671 6.48342 1.82927 6.69982 1.60119 7.4323C1.3739 8.164 2.0262 8.92762 3.3316 10.4541L3.66943 10.8487C4.03995 11.2823 4.22599 11.4995 4.30928 11.7673C4.39257 12.0358 4.36455 12.3254 4.3085 12.9037L4.25712 13.4307C4.06019 15.4678 3.96133 16.486 4.55759 16.9382C5.15385 17.3905 6.05058 16.9787 7.84248 16.1528L8.30719 15.9395C8.81627 15.7045 9.07081 15.5877 9.34091 15.5877C9.61102 15.5877 9.86556 15.7045 10.3754 15.9395L10.8386 16.1528C12.6312 16.9779 13.528 17.3905 14.1235 16.939C14.7205 16.486 14.6216 15.4678 14.4247 13.4307L14.3873 13.0516Z" fill="#FFD147"/>
<path opacity="0.5" d="M7.12487 4.2097L6.86955 4.66741C6.58932 5.17026 6.44921 5.42169 6.23125 5.58749C6.26239 5.56413 6.29171 5.53897 6.31921 5.51198C6.13625 6.59086 6.22373 7.69828 6.57383 8.73505C6.92392 9.77182 7.5257 10.7056 8.32525 11.4527C9.12481 12.1998 10.0972 12.7369 11.1553 13.016C12.2134 13.295 13.3242 13.3073 14.3882 13.0517L14.3726 12.9038C14.3174 12.3254 14.2893 12.0358 14.3726 11.7673C14.4559 11.4995 14.6412 11.2823 15.0125 10.8488L15.3503 10.4541C16.6557 8.92842 17.308 8.1648 17.0799 7.43232C16.8526 6.69983 15.8952 6.48266 13.9803 6.04986L13.4852 5.93777C12.9411 5.81478 12.6687 5.75329 12.45 5.58749C12.232 5.42169 12.0919 5.17026 11.8117 4.66741L11.5571 4.2097C10.5709 2.44116 10.0782 1.55688 9.341 1.55688C8.60384 1.55688 8.11111 2.44116 7.12487 4.2097Z" fill="#FFC20E"/>
</svg>
