<?xml version="1.0" standalone="no"?>
<!DOCTYPE svg PUBLIC "-//W3C//DTD SVG 20010904//EN"
 "http://www.w3.org/TR/2001/REC-SVG-20010904/DTD/svg10.dtd">
<svg version="1.0" xmlns="http://www.w3.org/2000/svg"
 width="860.000000pt" height="483.000000pt" viewBox="0 0 860.000000 483.000000"
 preserveAspectRatio="xMidYMid meet">

<g transform="translate(0.000000,483.000000) scale(0.100000,-0.100000)"
fill="#000000" stroke="none">
<path d="M5977 3924 c-379 -59 -726 -248 -970 -529 -335 -387 -466 -908 -353
-1405 142 -623 639 -1098 1271 -1216 150 -28 462 -26 601 4 199 43 385 120
550 227 l82 53 211 -149 c117 -82 216 -149 220 -149 11 0 306 421 306 436 0 7
-79 67 -175 135 -96 67 -176 123 -178 124 -1 1 18 38 44 81 146 247 218 520
217 819 -1 256 -51 467 -165 694 -85 171 -176 298 -303 426 -249 248 -557 401
-906 450 -133 18 -332 18 -452 -1z m471 -473 c645 -141 1030 -793 846 -1429
-170 -588 -801 -935 -1391 -766 -415 118 -719 451 -805 879 -27 139 -21 347
15 487 67 255 212 472 420 629 143 108 354 194 532 218 97 13 279 5 383 -18z"/>
<path d="M6530 2625 c-150 -107 -279 -195 -287 -195 -8 0 -73 34 -145 75 -72
42 -133 73 -136 71 -5 -5 44 -84 211 -340 l84 -129 115 144 c96 121 398 504
431 547 30 39 -26 3 -273 -173z"/>
<path d="M1840 3894 c-515 -73 -916 -347 -1134 -776 -174 -343 -221 -781 -129
-1198 106 -484 414 -844 858 -1003 265 -94 627 -117 975 -62 200 32 426 110
416 144 -3 9 -24 93 -47 186 -23 94 -45 173 -49 178 -3 4 -35 -6 -71 -22 -239
-108 -627 -137 -904 -66 -102 26 -235 84 -312 136 -287 196 -437 553 -420
1003 18 480 202 806 552 977 157 76 264 100 477 106 247 7 401 -17 582 -93 44
-19 81 -32 83 -30 7 7 113 361 113 378 0 32 -202 101 -395 134 -131 22 -463
27 -595 8z"/>
<path d="M3160 2360 l0 -1490 225 0 225 0 0 1490 0 1490 -225 0 -225 0 0
-1490z"/>
<path d="M4080 3695 c-58 -18 -124 -75 -152 -129 -30 -58 -36 -162 -13 -223
22 -57 75 -117 129 -146 58 -31 183 -30 243 1 100 52 148 141 141 260 -5 76
-25 124 -71 172 -64 66 -185 95 -277 65z"/>
<path d="M3940 1900 l0 -1030 225 0 225 0 0 1030 0 1030 -225 0 -225 0 0
-1030z"/>
</g>
</svg>
