<svg width="26" height="28" viewBox="0 0 26 28" fill="none" xmlns="http://www.w3.org/2000/svg">
<path d="M2.30465 8.96254L0.931122 8.67338C1.43715 6.50524 2.16007 4.77023 3.96676 3.4696L4.83426 4.62626C3.46129 5.49376 2.81078 6.72196 2.30465 8.96254Z" fill="black"/>
<path d="M18.7109 3.17962C17.0488 2.02296 14.9524 1.44517 12.4227 1.44517C8.73648 1.44517 6.49604 3.17962 6.42374 3.17962L5.55624 2.02352C5.62854 1.95123 8.2305 0 12.4227 0C15.2415 0 17.6265 0.650623 19.5061 2.02352L18.7109 3.17962Z" fill="#006B60"/>
<path d="M23.6259 26.7417L22.2523 26.2357C22.2523 26.1634 23.9868 21.0319 23.9868 15.2497C23.9868 14.7436 23.9868 14.2376 24.0591 13.7321C24.2037 11.3471 24.3482 8.81744 21.2404 4.84198L22.397 3.97449C25.8665 8.38305 25.6496 11.4188 25.505 13.8766C25.505 14.3827 25.4327 14.8164 25.4327 15.3224C25.4327 21.3208 23.6982 26.5248 23.6259 26.7417Z" fill="black"/>
<path d="M4.25572 14.239L2.73819 14.1667C3.17137 5.56579 8.44752 3.68616 12.0615 3.68616V5.13196C7.00215 5.13196 4.54437 8.16774 4.25572 14.239Z" fill="black"/>
<path d="M19.7223 10.4071C19.65 8.67269 17.8432 6.86537 15.8914 6.57629L16.1083 5.13049C18.7103 5.56423 21.023 7.87706 21.1676 10.2621L19.7223 10.4071Z" fill="black"/>
<path d="M18.9275 26.1636L17.554 25.8021C17.554 25.7299 18.6384 21.1044 18.4215 16.6952L19.8673 16.6229C20.0113 21.3213 18.9275 26.0196 18.9275 26.1636Z" fill="black"/>
<path d="M7.43481 24.3574C6.27815 22.0446 5.48345 17.5632 6.35044 13.7328C7.21794 9.7573 9.53069 7.58917 12.9279 7.58917C15.4575 7.58917 18.6378 8.81812 19.5776 14.4557L18.1318 14.6725C17.4811 10.8417 15.819 9.03493 12.928 9.03493C10.1814 9.03493 8.44713 10.6971 7.72423 14.0219C7.00131 17.4191 7.65194 21.6108 8.7363 23.7073L7.43481 24.3574Z" fill="#006B60"/>
<path d="M12.0614 27.8263H10.6156C10.6156 27.1034 10.2542 25.5135 9.60357 23.8508C9.16983 22.6942 7.86912 17.0566 9.31441 13.9487C9.82044 12.8643 10.4711 12.1419 11.4102 11.7806C11.844 11.636 12.0609 11.4914 12.7838 11.4914V12.9372C12.7838 12.9372 12.2054 13.0095 11.9163 13.0818C11.3379 13.2987 10.9042 13.7324 10.615 14.4553C9.45837 16.985 10.4704 22.1164 10.9765 23.3455C11.5554 24.9353 12.0614 26.3805 12.0614 27.8263Z" fill="black"/>
<path d="M16.6867 23.6343L15.3131 23.2006C16.3975 19.8757 17.0476 15.3225 15.1685 13.6598L16.1083 12.5754C19.144 15.2503 17.3373 21.7552 16.6867 23.6343Z" fill="black"/>
<path d="M13.0011 20.527C12.1336 19.0094 11.7722 17.7804 12.0614 16.8407C12.2782 16.1178 12.8566 15.8286 12.9288 15.7563L13.218 16.407L13.5795 17.0576C13.3626 17.2022 13.1457 17.9251 14.2301 19.8042L13.0011 20.527Z" fill="#006B60"/>
<path d="M0.931738 23.5626C-0.29721 21.033 -0.00804888 15.2508 0.136531 12.1428V11.6368L1.58234 11.7091V12.2151C1.43775 14.9617 1.22088 20.7437 2.23296 22.9119L0.931738 23.5626Z" fill="black"/>
<path d="M4.5441 26.5251C3.45973 24.646 3.31515 21.3935 3.09829 17.9965C3.09829 17.3458 3.026 16.6952 3.026 16.1174L4.4718 16.0451C4.5441 16.6957 4.5441 17.3463 4.5441 17.9965C4.68868 21.1044 4.83326 24.2847 5.77304 25.8745L4.5441 26.5251Z" fill="black"/>
<path d="M22.5413 18.2129L21.0955 18.0683C21.0955 17.996 21.4569 14.3821 21.0955 12.503L22.5413 12.2861C22.9027 14.3825 22.5413 18.0684 22.5413 18.2129Z" fill="black"/>
</svg>
