<svg width="34" height="34" viewBox="0 0 34 34" fill="none" xmlns="http://www.w3.org/2000/svg">
<path d="M9.34961 8.49998C9.12418 8.49998 8.90797 8.58953 8.74857 8.74893C8.58916 8.90834 8.49961 9.12454 8.49961 9.34998C8.49961 9.57541 8.58916 9.79161 8.74857 9.95102C8.90797 10.1104 9.12418 10.2 9.34961 10.2H24.6496C24.875 10.2 25.0912 10.1104 25.2507 9.95102C25.4101 9.79161 25.4996 9.57541 25.4996 9.34998C25.4996 9.12454 25.4101 8.90834 25.2507 8.74893C25.0912 8.58953 24.875 8.49998 24.6496 8.49998H9.34961ZM11.0496 18.7C11.7259 18.7 12.3745 18.4313 12.8527 17.9531C13.3309 17.4749 13.5996 16.8263 13.5996 16.15C13.5996 15.4737 13.3309 14.8251 12.8527 14.3469C12.3745 13.8686 11.7259 13.6 11.0496 13.6C10.3733 13.6 9.7247 13.8686 9.24649 14.3469C8.76827 14.8251 8.49961 15.4737 8.49961 16.15C8.49961 16.8263 8.76827 17.4749 9.24649 17.9531C9.7247 18.4313 10.3733 18.7 11.0496 18.7ZM11.0496 17C10.8242 17 10.608 16.9104 10.4486 16.751C10.2892 16.5916 10.1996 16.3754 10.1996 16.15C10.1996 15.9245 10.2892 15.7083 10.4486 15.5489C10.608 15.3895 10.8242 15.3 11.0496 15.3C11.275 15.3 11.4912 15.3895 11.6506 15.5489C11.8101 15.7083 11.8996 15.9245 11.8996 16.15C11.8996 16.3754 11.8101 16.5916 11.6506 16.751C11.4912 16.9104 11.275 17 11.0496 17ZM13.5996 22.95C13.5996 23.6263 13.3309 24.2749 12.8527 24.7531C12.3745 25.2313 11.7259 25.5 11.0496 25.5C10.3733 25.5 9.7247 25.2313 9.24649 24.7531C8.76827 24.2749 8.49961 23.6263 8.49961 22.95C8.49961 22.2737 8.76827 21.6251 9.24649 21.1469C9.7247 20.6686 10.3733 20.4 11.0496 20.4C11.7259 20.4 12.3745 20.6686 12.8527 21.1469C13.3309 21.6251 13.5996 22.2737 13.5996 22.95ZM11.8996 22.95C11.8996 22.7245 11.8101 22.5083 11.6506 22.3489C11.4912 22.1895 11.275 22.1 11.0496 22.1C10.8242 22.1 10.608 22.1895 10.4486 22.3489C10.2892 22.5083 10.1996 22.7245 10.1996 22.95C10.1996 23.1754 10.2892 23.3916 10.4486 23.551C10.608 23.7104 10.8242 23.8 11.0496 23.8C11.275 23.8 11.4912 23.7104 11.6506 23.551C11.8101 23.3916 11.8996 23.1754 11.8996 22.95ZM15.2996 16.15C15.2996 15.9245 15.3892 15.7083 15.5486 15.5489C15.708 15.3895 15.9242 15.3 16.1496 15.3H24.6496C24.875 15.3 25.0912 15.3895 25.2507 15.5489C25.4101 15.7083 25.4996 15.9245 25.4996 16.15C25.4996 16.3754 25.4101 16.5916 25.2507 16.751C25.0912 16.9104 24.875 17 24.6496 17H16.1496C15.9242 17 15.708 16.9104 15.5486 16.751C15.3892 16.5916 15.2996 16.3754 15.2996 16.15ZM16.1496 22.1C15.9242 22.1 15.708 22.1895 15.5486 22.3489C15.3892 22.5083 15.2996 22.7245 15.2996 22.95C15.2996 23.1754 15.3892 23.3916 15.5486 23.551C15.708 23.7104 15.9242 23.8 16.1496 23.8H24.6496C24.875 23.8 25.0912 23.7104 25.2507 23.551C25.4101 23.3916 25.4996 23.1754 25.4996 22.95C25.4996 22.7245 25.4101 22.5083 25.2507 22.3489C25.0912 22.1895 24.875 22.1 24.6496 22.1H16.1496ZM10.1996 5.09998C8.84701 5.09998 7.5498 5.6373 6.59336 6.59373C5.63693 7.55017 5.09961 8.84737 5.09961 10.2V23.8C5.09961 25.1526 5.63693 26.4498 6.59336 27.4062C7.5498 28.3627 8.84701 28.9 10.1996 28.9H23.7996C25.1522 28.9 26.4494 28.3627 27.4059 27.4062C28.3623 26.4498 28.8996 25.1526 28.8996 23.8V10.2C28.8996 8.84737 28.3623 7.55017 27.4059 6.59373C26.4494 5.6373 25.1522 5.09998 23.7996 5.09998H10.1996ZM6.79961 10.2C6.79961 9.29824 7.15782 8.43344 7.79545 7.79581C8.43307 7.15819 9.29787 6.79998 10.1996 6.79998H23.7996C24.7013 6.79998 25.5661 7.15819 26.2038 7.79581C26.8414 8.43344 27.1996 9.29824 27.1996 10.2V23.8C27.1996 24.7017 26.8414 25.5665 26.2038 26.2041C25.5661 26.8418 24.7013 27.2 23.7996 27.2H10.1996C9.29787 27.2 8.43307 26.8418 7.79545 26.2041C7.15782 25.5665 6.79961 24.7017 6.79961 23.8V10.2Z" fill="#BEBEBE"/>
</svg>
