<svg xmlns="http://www.w3.org/2000/svg" width="229.5" height="196.459" viewBox="0 0 229.5 196.459">
  <g id="Group_654" data-name="Group 654" transform="translate(0.001)">
    <path id="Path_1165" data-name="Path 1165" d="M379.2,608.326a14.87,14.87,0,0,0,5.335-12.818,12.021,12.021,0,0,0-8.937-10.205c-4.715-1.017-10.09,1.8-11.522,6.4-.788-8.88-1.7-18.132-6.417-25.694a27.211,27.211,0,0,0-19.7-12.623,24.415,24.415,0,0,0-21.478,8.768,22.158,22.158,0,0,0-2.725,22.813c2.582,5.357,7.339,9.343,12.323,12.586a79.533,79.533,0,0,0,54.4,11.9" transform="translate(-311.75 -413.917)" fill="#f2f2f2"/>
    <path id="Path_1166" data-name="Path 1166" d="M341.543,559.9a131.234,131.234,0,0,1,38.56,52.141c.368.9-1.1,1.294-1.459.4a129.885,129.885,0,0,0-38.171-51.473c-.756-.615.321-1.68,1.07-1.07Z" transform="translate(-328.884 -417.809)" fill="#fff"/>
    <path id="Path_1167" data-name="Path 1167" d="M479.358,608.326a14.87,14.87,0,0,1-5.335-12.818,12.021,12.021,0,0,1,8.937-10.205c4.715-1.017,10.09,1.8,11.522,6.4.788-8.88,1.7-18.132,6.417-25.694a27.211,27.211,0,0,1,19.7-12.623,24.415,24.415,0,0,1,21.478,8.768,22.158,22.158,0,0,1,2.725,22.813c-2.582,5.357-7.339,9.343-12.323,12.586a79.533,79.533,0,0,1-54.4,11.9" transform="translate(-409.367 -413.917)" fill="#f2f2f2"/>
    <path id="Path_1168" data-name="Path 1168" d="M566.8,559.9a131.233,131.233,0,0,0-38.56,52.141c-.368.9,1.1,1.294,1.459.4a129.774,129.774,0,0,1,38.171-51.473c.756-.615-.321-1.68-1.07-1.07Z" transform="translate(-442.019 -417.809)" fill="#fff"/>
    <circle id="Ellipse_229" data-name="Ellipse 229" cx="12.341" cy="12.341" r="12.341" transform="translate(68.582 63.695)" fill="#f2f2f2"/>
    <path id="Path_1169" data-name="Path 1169" d="M369.235,287.388H454.26v4.652H380.089a33.208,33.208,0,0,0-33.208,33.208V378.1h-9.3a1.551,1.551,0,0,1-1.551-1.551V320.6a33.208,33.208,0,0,1,33.208-33.208Z" transform="translate(-326.363 -253.893)" fill="#f2f2f2"/>
    <path id="Path_1170" data-name="Path 1170" d="M460.527,585.411V514.75h20.7v70.661a1.793,1.793,0,0,1-1.791,1.791H462.318A1.793,1.793,0,0,1,460.527,585.411Z" transform="translate(-401.3 -390.744)" fill="#3f3d56"/>
    <path id="Path_1171" data-name="Path 1171" d="M325.027,372.209V314.751a34.54,34.54,0,0,1,34.5-34.5h87.714V374.2H327.017A1.993,1.993,0,0,1,325.027,372.209Zm121.418-91.163H359.528a33.743,33.743,0,0,0-33.7,33.7v57.459a1.2,1.2,0,0,0,1.194,1.194H446.445Z" transform="translate(-319.742 -249.597)" fill="#3f3d56"/>
    <path id="Path_1172" data-name="Path 1172" d="M457.244,285.655a7.174,7.174,0,0,1-7.166-7.166V227.136a1.2,1.2,0,0,0-1.194-1.194H421.017a1.993,1.993,0,0,1-1.99-1.99V205.24a1.993,1.993,0,0,1,1.99-1.99h41.4a1.993,1.993,0,0,1,1.99,1.99V278.49a7.174,7.174,0,0,1-7.166,7.166Z" transform="translate(-376.321 -203.25)" fill="#ee781c"/>
    <path id="Path_1173" data-name="Path 1173" d="M605.718,278.25h0a22.644,22.644,0,0,1,22.691,22.6v65.41H673A6.753,6.753,0,0,1,679.763,373H583.027v-72.15A22.644,22.644,0,0,1,605.718,278.25Z" transform="translate(-475.034 -248.393)" fill="#3f3d56"/>
    <path id="Path_1174" data-name="Path 1174" d="M626.287,294.658l4.7,19.409,91.912-22.25-4.7-19.409a1.448,1.448,0,0,0-.939-1.033,1.43,1.43,0,0,0-.531-.08L663.6,243.785a1.466,1.466,0,0,0-1.854.446l-25.605,35.706L626.488,293.4a.2.2,0,0,0-.035.166A1.45,1.45,0,0,0,626.287,294.658Z" transform="translate(-501.048 -227.552)" fill="#fff"/>
    <path id="Path_1175" data-name="Path 1175" d="M626.759,293.568a.2.2,0,0,0,.081.126.223.223,0,0,0,.172.034.213.213,0,0,0,.119-.083l.033-.046.5-.7,9.128-12.725,25.6-35.7a1.043,1.043,0,0,1,1.322-.317l52.717,27.3.473.246a.516.516,0,0,0,.059.021.638.638,0,0,1,.108-.01.2.2,0,0,0,.115-.1.209.209,0,0,0-.087-.282l-.065-.035-53.129-27.509a1.466,1.466,0,0,0-1.854.446l-25.605,35.706L626.794,293.4a.2.2,0,0,0-.035.166Z" transform="translate(-501.353 -227.552)" fill="#3f3d56"/>
    <path id="Path_1176" data-name="Path 1176" d="M693.723,283.887l2.046.227,15.184,1.682,10.066,1.114.595.066,12.561-9.811.481-.376,2.967-2.317,10.555-8.243.063-.579,3.754-33.883a1.773,1.773,0,0,0-1.564-1.955l-50.1-5.55a1.774,1.774,0,0,0-1.955,1.564l-2.647,23.9-1.469,13.251-1.314,11.855-.609,5.505-.178,1.595A1.774,1.774,0,0,0,693.723,283.887Z" transform="translate(-540.714 -215.891)" fill="#e6e6e6"/>
    <path id="Path_1177" data-name="Path 1177" d="M727.188,291.6l21.7,2.4,7.7.852a2.6,2.6,0,1,0,.573-5.175l-9.573-1.06-19.825-2.2a2.6,2.6,0,0,0-.575,5.178Z" transform="translate(-560.411 -253.299)" fill="#fff"/>
    <path id="Path_1178" data-name="Path 1178" d="M724.34,315.752c.056.01.112.02.169.026l25.193,2.791,4.206.467a2.6,2.6,0,1,0,.573-5.177l-6.082-.673-19.957-2.211-3.358-.372a2.6,2.6,0,0,0-.744,5.15Z" transform="translate(-558.799 -267.856)" fill="#fff"/>
    <path id="Path_1179" data-name="Path 1179" d="M719.86,338.977a2.6,2.6,0,0,0,1.943,1.244l10.326,1.144L750.52,343.4h0l.588.066,2.967-2.317a2.575,2.575,0,0,0,0-.529,2.609,2.609,0,0,0-2.3-2.318l-2.555-.284L739.086,336.9l-7.292-.809-9.419-1.044a2.6,2.6,0,0,0-2.516,3.933Z" transform="translate(-557.169 -282.569)" fill="#fff"/>
    <path id="Path_1180" data-name="Path 1180" d="M753.357,262.12l5.4.6,2.385.265,3.6.4a2.6,2.6,0,0,0,.573-5.177l-11.385-1.26a2.6,2.6,0,0,0-.575,5.176Z" transform="translate(-576.162 -235.559)" fill="#fff"/>
    <path id="Path_1181" data-name="Path 1181" d="M645.868,284.943l6.583,27.2,10.988,2.089,10.164,1.935,10.905,2.075,3.485.663a1.462,1.462,0,0,0,1.17-.283l2.8-2.183,1.77-1.382,12.561-9.811L698.3,272.25a1.753,1.753,0,0,0-.5-.859,1.771,1.771,0,0,0-1.642-.445l-48.993,11.86A1.772,1.772,0,0,0,645.868,284.943Z" transform="translate(-512.829 -243.967)" fill="#ee781c"/>
    <path id="Path_1182" data-name="Path 1182" d="M683.753,345.142a2.606,2.606,0,0,0,3.143,1.918l28.748-6.959a2.607,2.607,0,0,0,1.918-3.143.831.831,0,0,0-.028-.1,2.6,2.6,0,0,0-3.115-1.82L685.671,342A2.606,2.606,0,0,0,683.753,345.142Z" transform="translate(-535.618 -282.531)" fill="#fff"/>
    <path id="Path_1183" data-name="Path 1183" d="M690.082,367.025l10.164,1.935,21.531-5.212a2.6,2.6,0,1,0-1.225-5.061L691.8,365.646a2.585,2.585,0,0,0-1.492,1A2.621,2.621,0,0,0,690.082,367.025Z" transform="translate(-539.471 -296.764)" fill="#fff"/>
    <path id="Path_1184" data-name="Path 1184" d="M743.008,387.09l3.485.663a1.462,1.462,0,0,0,1.17-.283l2.8-2.183Z" transform="translate(-571.328 -312.819)" fill="#fff"/>
    <path id="Path_1185" data-name="Path 1185" d="M698.3,314.959a2.606,2.606,0,0,0,3.143,1.918l11.135-2.7a2.607,2.607,0,0,0,1.918-3.143,2.573,2.573,0,0,0-.48-.99,2.606,2.606,0,0,0-2.664-.928l-11.135,2.7a2.6,2.6,0,0,0-1.918,3.143Z" transform="translate(-544.376 -266.93)" fill="#fff"/>
    <path id="Path_1186" data-name="Path 1186" d="M661.822,341.581l10.907,2.076,3.484.663a1.469,1.469,0,0,0,1.17-.283l2.8-2.184-.982.238-2.072,1.617a1.049,1.049,0,0,1-.836.2l-2.579-.491L662.8,341.344ZM694.4,330.22l.106.439.484-.376Zm-32.579,11.361,10.907,2.076,3.484.663a1.469,1.469,0,0,0,1.17-.283l2.8-2.184-.982.238-2.072,1.617a1.049,1.049,0,0,1-.836.2l-2.579-.491L662.8,341.344Zm0,0,10.907,2.076,3.484.663a1.469,1.469,0,0,0,1.17-.283l2.8-2.184-.982.238-2.072,1.617a1.049,1.049,0,0,1-.836.2l-2.579-.491L662.8,341.344Zm-35.535-5.09,12.307,50.84a1.46,1.46,0,0,0,1.76,1.074l89.078-21.564a1.46,1.46,0,0,0,1.074-1.76L718.2,314.241a1.449,1.449,0,0,0-.939-1.033,1.432,1.432,0,0,0-.531-.08,1.377,1.377,0,0,0-.6.159,1.269,1.269,0,0,0-.242.15l-7.311,5.709-10.617,8.294-3.557,2.778v0h0L681.354,340.4l-2.156,1.688-2.072,1.617a1.049,1.049,0,0,1-.836.2l-2.579-.491L662.8,341.344l-10.917-2.076-23.91-4.55a1.428,1.428,0,0,0-.616.013,1.461,1.461,0,0,0-.712.412,1.637,1.637,0,0,0-.2.259,1.45,1.45,0,0,0-.166,1.089Zm35.535,5.09,10.907,2.076,3.484.663a1.469,1.469,0,0,0,1.17-.283l2.8-2.184-.982.238-2.072,1.617a1.049,1.049,0,0,1-.836.2l-2.579-.491L662.8,341.344Zm0,0,10.907,2.076,3.484.663a1.469,1.469,0,0,0,1.17-.283l2.8-2.184-.982.238-2.072,1.617a1.049,1.049,0,0,1-.836.2l-2.579-.491L662.8,341.344Zm0,0,10.907,2.076,3.484.663a1.469,1.469,0,0,0,1.17-.283l2.8-2.184-.982.238-2.072,1.617a1.049,1.049,0,0,1-.836.2l-2.579-.491L662.8,341.344Z" transform="translate(-501.048 -269.386)" fill="#fff"/>
    <path id="Path_1187" data-name="Path 1187" d="M661.822,341.582l10.907,2.076,3.484.663a1.469,1.469,0,0,0,1.17-.283l2.8-2.184-.982.238-2.072,1.617a1.049,1.049,0,0,1-.836.2l-2.579-.491L662.8,341.344ZM694.4,330.221l.106.439.484-.376Zm-32.579,11.361,10.907,2.076,3.484.663a1.469,1.469,0,0,0,1.17-.283l2.8-2.184-.982.238-2.072,1.617a1.049,1.049,0,0,1-.836.2l-2.579-.491L662.8,341.344Zm0,0,10.907,2.076,3.484.663a1.469,1.469,0,0,0,1.17-.283l2.8-2.184-.982.238-2.072,1.617a1.049,1.049,0,0,1-.836.2l-2.579-.491L662.8,341.344Zm-34.963-6.148.054.041c.009-.015.025-.028.037-.044a1.052,1.052,0,0,1,.95-.306l23.76,4.52,10.163,1.937,10.907,2.075,3.483.663a1.468,1.468,0,0,0,1.17-.283l2.8-2.184-.982.238-2.072,1.617a1.049,1.049,0,0,1-.836.2l-2.579-.491L662.8,341.344l-10.917-2.076-23.91-4.55a1.429,1.429,0,0,0-.616.013Zm-.572,1.058,12.307,50.84a1.46,1.46,0,0,0,1.76,1.074l89.078-21.564a1.46,1.46,0,0,0,1.074-1.76L718.2,314.241a1.449,1.449,0,0,0-.939-1.033,1.43,1.43,0,0,0-.531-.08,1.377,1.377,0,0,0-.6.159,1.264,1.264,0,0,0-.242.15l-7.311,5.709-10.617,8.294-3.557,2.778v0h0L681.354,340.4l-2.156,1.688-2.072,1.617a1.049,1.049,0,0,1-.836.2l-2.579-.491L662.8,341.344l-10.917-2.076-23.91-4.55a1.429,1.429,0,0,0-.616.013,1.46,1.46,0,0,0-.712.412,1.635,1.635,0,0,0-.2.259,1.45,1.45,0,0,0-.166,1.089Zm.406-.1a1.034,1.034,0,0,1,.184-.872.136.136,0,0,1,.036-.047c.009-.015.025-.028.037-.044a1.052,1.052,0,0,1,.949-.306l23.76,4.52,10.163,1.937,10.907,2.075,3.484.663a1.468,1.468,0,0,0,1.17-.283l2.8-2.184,1.769-1.382,12.559-9.812.484-.376,2.964-2.316,10.557-8.244,7.632-5.96a1.036,1.036,0,0,1,.393-.19.8.8,0,0,1,.121-.02.639.639,0,0,1,.108-.01,1.066,1.066,0,0,1,.359.059,1.045,1.045,0,0,1,.671.738l12.307,50.84a1.043,1.043,0,0,1-.769,1.26L640.257,388a1.042,1.042,0,0,1-1.257-.77Zm35.129,5.189,10.907,2.076,3.483.663a1.468,1.468,0,0,0,1.17-.283l2.8-2.184-.982.238-2.072,1.617a1.049,1.049,0,0,1-.836.2l-2.579-.491L662.8,341.344Zm0,0,10.907,2.076,3.483.663a1.468,1.468,0,0,0,1.17-.283l2.8-2.184-.982.238-2.072,1.617a1.049,1.049,0,0,1-.836.2l-2.579-.491L662.8,341.344Zm0,0,10.907,2.076,3.483.663a1.468,1.468,0,0,0,1.17-.283l2.8-2.184-.982.238-2.072,1.617a1.049,1.049,0,0,1-.836.2l-2.579-.491L662.8,341.344Z" transform="translate(-501.048 -269.386)" fill="#3f3d56"/>
    <path id="Path_1188" data-name="Path 1188" d="M826.992,412.814a3.236,3.236,0,0,1,2.381-3.9l11.243-2.722a3.232,3.232,0,0,1,1.521,6.283L830.894,415.2A3.236,3.236,0,0,1,826.992,412.814Z" transform="translate(-621.824 -325.346)" fill="#ee781c"/>
    <circle id="Ellipse_230" data-name="Ellipse 230" cx="2.787" cy="2.787" r="2.787" transform="translate(78.136 72.453)" fill="#fff"/>
  </g>
</svg>
