<svg width="17" height="18" viewBox="0 0 17 18" fill="none" xmlns="http://www.w3.org/2000/svg">
<g clip-path="url(#clip0_597_208)">
<path d="M13.2933 3.37341H3.58662C2.82078 3.37341 2.19995 3.99424 2.19995 4.76008C2.19995 5.52591 2.82078 6.14675 3.58662 6.14675H13.2933C14.0591 6.14675 14.68 5.52591 14.68 4.76008C14.68 3.99424 14.0591 3.37341 13.2933 3.37341Z" stroke="#85939B" stroke-width="1.38667" stroke-linecap="round" stroke-linejoin="round"/>
<path d="M3.58691 6.14661V13.0799C3.58691 13.4477 3.73301 13.8004 3.99306 14.0605C4.25311 14.3205 4.60581 14.4666 4.97358 14.4666H11.9069C12.2747 14.4666 12.6274 14.3205 12.8874 14.0605C13.1475 13.8004 13.2936 13.4477 13.2936 13.0799V6.14661" stroke="#85939B" stroke-width="1.38667" stroke-linecap="round" stroke-linejoin="round"/>
<path d="M7.05322 8.92004H9.82656" stroke="#85939B" stroke-width="1.38667" stroke-linecap="round" stroke-linejoin="round"/>
</g>
<defs>
<clipPath id="clip0_597_208">
<rect width="16.64" height="16.64" fill="white" transform="translate(0.120117 0.599976)"/>
</clipPath>
</defs>
</svg>
