<svg width="32" height="32" viewBox="0 0 32 32" fill="none" xmlns="http://www.w3.org/2000/svg">
<path d="M15.9998 11.5528V14.2168M22.8718 18.536C23.4558 19.512 22.9918 20.776 21.9118 21.136C18.0868 22.408 13.9529 22.408 10.1278 21.136C8.97585 20.752 8.53585 19.584 9.16785 18.536L10.1838 16.84C10.4638 16.376 10.6878 15.552 10.6878 15.016V13.336C10.6868 12.6356 10.8238 11.942 11.0911 11.2946C11.3584 10.6473 11.7507 10.059 12.2456 9.56336C12.7404 9.06776 13.3281 8.67459 13.9751 8.40633C14.622 8.13808 15.3155 8 16.0158 8C18.9438 8 21.3438 10.4 21.3438 13.328V15.008C21.3438 15.152 21.3598 15.312 21.3838 15.48" stroke="#272727" stroke-width="1.2" stroke-miterlimit="10" stroke-linecap="round"/>
<path d="M18.6639 21.4559C18.6639 22.9199 17.4639 24.1199 15.9999 24.1199C15.2719 24.1199 14.5999 23.8159 14.1199 23.3359C13.6399 22.8559 13.3359 22.1839 13.3359 21.4559" stroke="#272727" stroke-width="1.2" stroke-miterlimit="10"/>
<circle cx="21.5999" cy="10.4" r="3.2" fill="#5FB567"/>
</svg>
