<svg width="165" height="147" viewBox="0 0 165 147" fill="none" xmlns="http://www.w3.org/2000/svg">
<rect x="77.0815" y="19.0181" width="31.1308" height="7.41209" rx="3.70605" fill="#FFDCE6"/>
<rect x="117.107" y="19.0181" width="16.3066" height="7.41209" rx="3.70605" fill="#FFDCE6"/>
<rect x="149.72" y="51.6312" width="4.44726" height="7.41209" rx="2.22363" fill="#FFDCE6"/>
<rect x="83.0112" y="35.3246" width="37.0605" height="7.41209" rx="3.70605" fill="#FFDCE6"/>
<rect x="106.73" y="51.6312" width="37.0605" height="7.41209" rx="3.70605" fill="#FFDCE6"/>
<rect x="5.92554" y="85.7269" width="37.0605" height="7.41209" rx="3.70605" fill="#FFDCE6"/>
<rect x="18.583" y="102.034" width="81.533" height="7.41209" rx="3.70605" fill="#FFDCE6"/>
<rect x="59.2925" y="127.235" width="81.533" height="7.41209" rx="3.70605" fill="#FFDCE6"/>
<rect x="142.308" y="127.235" width="17.789" height="7.41209" rx="3.70605" fill="#FFDCE6"/>
<rect x="94.8706" y="110.928" width="45.955" height="7.41209" rx="3.70605" fill="#FFDCE6"/>
<rect x="118.559" y="119.617" width="13.5314" height="6.49505" rx="3.24752" fill="#FFDCE6"/>
<rect x="112.66" y="69.4202" width="16.3066" height="7.41209" rx="3.70605" fill="#FFDCE6"/>
<rect x="140.826" y="72.385" width="8.89451" height="7.41209" rx="3.70605" fill="#FFDCE6"/>
<rect x="41.5035" y="29.395" width="8.89451" height="7.41209" rx="3.70605" fill="#FFDCE6"/>
<rect x="22.2321" y="128.717" width="17.789" height="7.41209" rx="3.70605" fill="#FFDCE6"/>
<rect x="85.0016" y="28.1453" width="12.4488" height="5.41254" rx="2.70627" fill="#FFDCE6"/>
<path d="M121.683 82.5783C121.683 104.393 103.779 122.118 81.6429 122.118C59.5068 122.118 41.603 104.393 41.603 82.5783C41.603 60.7638 59.5068 43.0389 81.6429 43.0389C103.779 43.0389 121.683 60.7638 121.683 82.5783Z" fill="white" stroke="#E04471" stroke-width="4"/>
<path d="M72.5456 66.4016C72.0612 64.7902 71.9603 63.0878 72.2511 61.4305C72.5418 59.7731 73.2162 58.2068 74.2202 56.8565C75.2243 55.5062 76.5302 54.4095 78.0336 53.6539C79.5371 52.8983 81.1964 52.5048 82.8791 52.5048C84.5617 52.5048 86.221 52.8983 87.7245 53.6539C89.2279 54.4095 90.5339 55.5062 91.5379 56.8565C92.5419 58.2068 93.2163 59.7731 93.507 61.4305C93.7978 63.0878 93.6969 64.7902 93.2125 66.4016L87.5454 85.2955C87.2916 86.1439 87.1647 86.5681 86.9689 86.9162C86.7199 87.3606 86.38 87.7475 85.9715 88.0518C85.5629 88.356 85.0948 88.5707 84.5977 88.682C84.2061 88.769 83.7637 88.769 82.8791 88.769C81.9944 88.769 81.552 88.769 81.1604 88.682C80.6633 88.5707 80.1952 88.356 79.7867 88.0518C79.3781 87.7475 79.0382 87.3606 78.7892 86.9162C78.5934 86.5681 78.4629 86.1439 78.2091 85.2955L72.5456 66.4016Z" fill="#FFC700"/>
<path d="M82.8791 114.149C86.884 114.149 90.1307 110.903 90.1307 106.898C90.1307 102.893 86.884 99.6462 82.8791 99.6462C78.8742 99.6462 75.6276 102.893 75.6276 106.898C75.6276 110.903 78.8742 114.149 82.8791 114.149Z" fill="#FFC700"/>
<path d="M71.0893 64.9452C70.6049 63.3337 70.504 61.6314 70.7948 59.974C71.0855 58.3167 71.7599 56.7503 72.7639 55.4001C73.768 54.0498 75.0739 52.9531 76.5773 52.1975C78.0808 51.4419 79.7401 51.0483 81.4228 51.0483C83.1054 51.0483 84.7647 51.4419 86.2682 52.1975C87.7716 52.9531 89.0776 54.0498 90.0816 55.4001C91.0856 56.7503 91.76 58.3167 92.0507 59.974C92.3415 61.6314 92.2407 63.3337 91.7562 64.9452L86.0891 83.8391C85.8353 84.6875 85.7084 85.1117 85.5126 85.4598C85.2636 85.9042 84.9237 86.2911 84.5152 86.5953C84.1066 86.8996 83.6385 87.1143 83.1414 87.2255C82.7498 87.3126 82.3074 87.3126 81.4228 87.3126C80.5381 87.3126 80.0957 87.3126 79.7041 87.2255C79.207 87.1143 78.7389 86.8996 78.3304 86.5953C77.9218 86.2911 77.5819 85.9042 77.3329 85.4598C77.1371 85.1117 77.0066 84.6875 76.7528 83.8391L71.0893 64.9452Z" fill="#E04471"/>
<path d="M81.4227 112.693C85.4276 112.693 88.6742 109.446 88.6742 105.441C88.6742 101.437 85.4276 98.1899 81.4227 98.1899C77.4178 98.1899 74.1711 101.437 74.1711 105.441C74.1711 109.446 77.4178 112.693 81.4227 112.693Z" fill="#E04471"/>
<circle cx="23.5878" cy="37.0352" r="3.5038" stroke="#E04471"/>
<circle cx="10.5755" cy="124.118" r="3.5038" stroke="#E04471"/>
<circle cx="162.219" cy="104.599" r="2.00237" stroke="#E04471"/>
<circle cx="149.207" cy="18.5175" r="1.00142" stroke="#E04471"/>
<circle cx="54.1168" cy="144.637" r="1.00142" stroke="#E04471"/>
<circle cx="120.18" cy="60.5575" r="1.00142" stroke="#FFC700"/>
<circle cx="109.169" cy="141.634" r="1.00142" stroke="#FFC700"/>
<circle cx="2.06734" cy="76.5726" r="1.00142" stroke="#FFC700"/>
<circle cx="106.667" cy="3.00285" r="2.50285" stroke="#FFC700"/>
</svg>
