<svg width="165" height="147" viewBox="0 0 165 147" fill="none" xmlns="http://www.w3.org/2000/svg">
<rect x="77.0815" y="19.8794" width="31.1308" height="7.41209" rx="3.70605" fill="#FFDCE6"/>
<rect x="117.107" y="19.8794" width="16.3066" height="7.41209" rx="3.70605" fill="#FFDCE6"/>
<rect x="149.72" y="52.4926" width="4.44726" height="7.41209" rx="2.22363" fill="#FFDCE6"/>
<rect x="83.0112" y="36.186" width="37.0605" height="7.41209" rx="3.70605" fill="#FFDCE6"/>
<rect x="106.73" y="52.4926" width="37.0605" height="7.41209" rx="3.70605" fill="#FFDCE6"/>
<rect x="5.92554" y="86.5884" width="37.0605" height="7.41209" rx="3.70605" fill="#FFDCE6"/>
<rect x="18.583" y="102.895" width="81.533" height="7.41209" rx="3.70605" fill="#FFDCE6"/>
<rect x="59.2925" y="128.096" width="81.533" height="7.41209" rx="3.70605" fill="#FFDCE6"/>
<rect x="142.308" y="128.096" width="17.789" height="7.41209" rx="3.70605" fill="#FFDCE6"/>
<rect x="94.8706" y="111.789" width="45.955" height="7.41209" rx="3.70605" fill="#FFDCE6"/>
<rect x="118.559" y="120.479" width="13.5314" height="6.49505" rx="3.24752" fill="#FFDCE6"/>
<rect x="112.66" y="70.2816" width="16.3066" height="7.41209" rx="3.70605" fill="#FFDCE6"/>
<rect x="140.826" y="73.2465" width="8.89451" height="7.41209" rx="3.70605" fill="#FFDCE6"/>
<rect x="41.5035" y="30.2563" width="8.89451" height="7.41209" rx="3.70605" fill="#FFDCE6"/>
<rect x="22.2321" y="129.578" width="17.789" height="7.41209" rx="3.70605" fill="#FFDCE6"/>
<rect x="85.0016" y="29.0066" width="12.4488" height="5.41254" rx="2.70627" fill="#FFDCE6"/>
<path d="M121.683 83.4397C121.683 105.254 103.779 122.979 81.6429 122.979C59.5068 122.979 41.603 105.254 41.603 83.4397C41.603 61.6252 59.5068 43.9003 81.6429 43.9003C103.779 43.9003 121.683 61.6252 121.683 83.4397Z" fill="white" stroke="#E04471" stroke-width="4"/>
<path fill-rule="evenodd" clip-rule="evenodd" d="M101.621 63.454C102.161 63.1295 102.807 63.0265 103.422 63.1668C104.037 63.3071 104.574 63.6797 104.92 64.2065L107.336 67.8835C107.651 68.3638 107.786 68.9397 107.717 69.5096C107.647 70.0794 107.379 70.6066 106.958 70.998L106.951 71.0077L106.916 71.0393L106.777 71.1684L106.228 71.692C103.19 74.6327 100.244 77.6667 97.3937 80.7895C92.032 86.6726 85.6649 94.3724 81.3794 101.843C80.1836 103.928 77.2624 104.376 75.5296 102.576L59.7033 86.1686C59.4765 85.9334 59.2994 85.655 59.1825 85.3502C59.0656 85.0453 59.0114 84.7201 59.023 84.3939C59.0346 84.0677 59.1119 83.7471 59.2501 83.4513C59.3883 83.1555 59.5848 82.8904 59.8277 82.6718L64.611 78.3665C65.0314 77.9884 65.5704 77.7678 66.1358 77.7425C66.7012 77.7171 67.2578 77.8887 67.7104 78.2277L75.7859 84.2692C88.4006 71.8575 95.5536 67.0945 101.621 63.454Z" fill="#FFC700"/>
<circle cx="23.5878" cy="37.8965" r="3.5038" stroke="#E04471"/>
<circle cx="10.5755" cy="124.979" r="3.5038" stroke="#E04471"/>
<circle cx="162.219" cy="105.461" r="2.00237" stroke="#E04471"/>
<circle cx="149.207" cy="19.379" r="1.00142" stroke="#E04471"/>
<circle cx="54.1168" cy="145.499" r="1.00142" stroke="#E04471"/>
<circle cx="120.18" cy="61.4189" r="1.00142" stroke="#FFC700"/>
<circle cx="109.169" cy="142.496" r="1.00142" stroke="#FFC700"/>
<circle cx="2.06734" cy="77.434" r="1.00142" stroke="#FFC700"/>
<circle cx="106.667" cy="3.8643" r="2.50285" stroke="#FFC700"/>
<path fill-rule="evenodd" clip-rule="evenodd" d="M99.4555 63.454C99.9963 63.1295 100.642 63.0265 101.257 63.1668C101.872 63.3071 102.409 63.6797 102.755 64.2065L105.171 67.8835C105.486 68.3638 105.621 68.9397 105.552 69.5096C105.482 70.0794 105.214 70.6066 104.793 70.998L104.785 71.0077L104.751 71.0393L104.612 71.1684L104.063 71.692C101.025 74.6327 98.0786 77.6667 95.2287 80.7895C89.867 86.6726 83.4998 94.3724 79.2144 101.843C78.0185 103.928 75.0973 104.376 73.3646 102.576L57.5382 86.1686C57.3114 85.9334 57.1343 85.655 57.0175 85.3502C56.9006 85.0453 56.8464 84.7201 56.858 84.3939C56.8696 84.0677 56.9468 83.7471 57.0851 83.4513C57.2233 83.1555 57.4197 82.8904 57.6627 82.6718L62.446 78.3665C62.8663 77.9884 63.4053 77.7678 63.9707 77.7425C64.5361 77.7171 65.0928 77.8887 65.5454 78.2277L73.6208 84.2692C86.2356 71.8575 93.3885 67.0945 99.4555 63.454Z" fill="#E04471"/>
</svg>
