<svg width="42" height="43" viewBox="0 0 42 43" fill="none" xmlns="http://www.w3.org/2000/svg">
<path d="M18.4693 13.0291C18.252 13.0291 18.043 13.1126 17.8843 13.2714L10.789 20.2496C10.6303 20.4001 10.5383 20.6173 10.5383 20.843V35.2423L32.7516 13.0291H18.4693Z" fill="#E7E7E7"/>
<path d="M26.5925 29.083L19.2466 36.4289H33.1027C33.3367 36.4289 33.5373 36.337 33.6961 36.1866C33.8465 36.0278 33.9384 35.8272 33.9384 35.5932V21.7371L26.5925 29.083Z" fill="#E7E7E7"/>
<path d="M33.9383 13.8648V21.7372L19.2465 36.4291H11.374C10.9144 36.4291 10.5383 36.053 10.5383 35.5933V35.2423L32.7516 13.0291H33.1026C33.5623 13.0291 33.9383 13.4051 33.9383 13.8648Z" fill="#2197F3"/>
<path d="M33.6961 36.1866C33.5373 36.337 33.3367 36.4289 33.1027 36.4289H19.2466L26.5925 29.083L33.6961 36.1866Z" fill="#FEF6F5"/>
<path d="M33.9383 13.8648V21.7372L19.2465 36.4291H11.374C10.9144 36.4291 10.5383 36.053 10.5383 35.5933V35.2423L32.7516 13.0291H33.1026C33.5623 13.0291 33.9383 13.4051 33.9383 13.8648Z" fill="#F2F3F4"/>
<path d="M15.3064 5.22998C10.7481 5.22998 7.04004 8.879 7.04004 13.3665C7.04004 17.5941 13.724 24.2309 14.4798 24.9748C14.716 25.1992 15.0112 25.3055 15.3064 25.3055C15.6017 25.3055 15.8969 25.1992 16.1331 24.9748C16.8888 24.2309 23.5728 17.5941 23.5728 13.3665C23.5728 8.879 19.8647 5.22998 15.3064 5.22998Z" fill="#E64B32"/>
<path d="M17.6682 13.3665C17.6682 14.6773 16.6054 15.7283 15.3064 15.7283C14.0074 15.7283 12.9446 14.6773 12.9446 13.3665C12.9446 12.0675 14.0074 11.0046 15.3064 11.0046C16.6054 11.0046 17.6682 12.0675 17.6682 13.3665Z" fill="white"/>
</svg>
