<svg width="28" height="29" viewBox="0 0 28 29" fill="none" xmlns="http://www.w3.org/2000/svg">
<path d="M4.6665 21.7498C4.6665 20.468 5.15817 19.2386 6.03334 18.3322C6.90851 17.4257 8.09549 16.9165 9.33317 16.9165H18.6665C19.9042 16.9165 21.0912 17.4257 21.9663 18.3322C22.8415 19.2386 23.3332 20.468 23.3332 21.7498C23.3332 22.3908 23.0873 23.0055 22.6498 23.4587C22.2122 23.9119 21.6187 24.1665 20.9998 24.1665H6.99984C6.381 24.1665 5.78751 23.9119 5.34992 23.4587C4.91234 23.0055 4.6665 22.3908 4.6665 21.7498Z" stroke="#CCCCCC" stroke-width="2" stroke-linejoin="round"/>
<path d="M14 12.0833C15.933 12.0833 17.5 10.4603 17.5 8.45825C17.5 6.45622 15.933 4.83325 14 4.83325C12.067 4.83325 10.5 6.45622 10.5 8.45825C10.5 10.4603 12.067 12.0833 14 12.0833Z" stroke="#CCCCCC" stroke-width="2"/>
</svg>
