<svg width="19" height="19" viewBox="0 0 19 19" fill="none" xmlns="http://www.w3.org/2000/svg">
<path d="M17.2499 10.6072V13.5212C17.2499 15.5849 15.5759 17.25 13.5211 17.25H5.48764C3.42392 17.25 1.75879 15.5761 1.75879 13.5212V10.6072H17.2588H17.2499Z" stroke="#E97C22" stroke-width="0.8" stroke-linecap="round" stroke-linejoin="round"/>
<path d="M13.9287 17.25C14.5399 17.25 15.0359 17.746 15.0359 18.3571" stroke="#1F2F60" stroke-width="0.8" stroke-linecap="round" stroke-linejoin="round"/>
<path d="M3.96411 18.3571C3.96411 17.746 4.46011 17.25 5.07125 17.25" stroke="#1F2F60" stroke-width="0.8" stroke-linecap="round" stroke-linejoin="round"/>
<path d="M2.85718 8.39287V5.61171C2.85718 4.69942 3.59233 3.96429 4.50462 3.96429H4.52232C5.43461 3.96429 6.16977 4.69942 6.16977 5.61171" stroke="#E97C22" stroke-width="0.8" stroke-linecap="round" stroke-linejoin="round"/>
<path d="M17.1259 8.39288H1.88278C1.27132 8.39288 0.775635 8.88857 0.775635 9.50003C0.775635 10.1115 1.27132 10.6072 1.88278 10.6072H17.1259C17.7374 10.6072 18.2331 10.1115 18.2331 9.50003C18.2331 8.88857 17.7374 8.39288 17.1259 8.39288Z" stroke="#E97C22" stroke-width="0.8" stroke-linecap="round" stroke-linejoin="round"/>
<path d="M9.49997 5.07146C10.1114 5.07146 10.6071 4.57578 10.6071 3.96432C10.6071 3.35286 10.1114 2.85718 9.49997 2.85718C8.88851 2.85718 8.39282 3.35286 8.39282 3.96432C8.39282 4.57578 8.88851 5.07146 9.49997 5.07146Z" stroke="#A9ABAD" stroke-width="0.8" stroke-linecap="round" stroke-linejoin="round"/>
<path d="M15.585 3.96411C16.4998 3.96411 17.2413 3.22257 17.2413 2.30783C17.2413 1.39309 16.4998 0.65155 15.585 0.65155C14.6703 0.65155 13.9287 1.39309 13.9287 2.30783C13.9287 3.22257 14.6703 3.96411 15.585 3.96411Z" stroke="#A9ABAD" stroke-width="0.8" stroke-linecap="round" stroke-linejoin="round"/>
</svg>
