<svg id="Capa_1" enable-background="new 0 0 512 512" height="512" viewBox="0 0 512 512" width="512" xmlns="http://www.w3.org/2000/svg"><g><path d="m235.73 448.93c-18.769 0-34.037-15.269-34.037-34.037v-198.541c0-18.768 15.269-34.037 34.037-34.037h198.542c18.768 0 34.036 15.269 34.036 34.037v172.99c20.791-36.001 32.692-77.781 32.692-122.342 0-135.31-109.69-245-245-245s-245 109.69-245 245 109.69 245 245 245c63.114 0 120.648-23.872 164.083-63.07z" fill="#d4f2f6"/><path d="m152 294.145h-139.496c10.276 93.213 72.833 170.667 157.712 202.402v-184.186c.001-10.061-8.155-18.216-18.216-18.216z" fill="#a6e7f0"/><path d="m348.145 39.938v79.846c0 10.061 8.156 18.217 18.217 18.217h97.947c-27.2-43.828-67.838-78.432-116.164-98.063z" fill="#a6e7f0"/><g><path d="m201.693 216.352c0-18.768 15.269-34.037 34.037-34.037h75.576v-147.278c0-19.351-15.686-35.037-35.037-35.037h-198.541c-19.35 0-35.037 15.686-35.037 35.037v198.542c0 19.35 15.687 35.037 35.037 35.037h123.965z" fill="#2ed1e2"/><path d="m201.693 216.352c0-18.768 15.269-34.037 34.037-34.037h48.261v-147.278c0-4.258-3.465-7.723-7.723-7.723h-198.54c-4.258 0-7.723 3.464-7.723 7.723v198.542c0 4.258 3.464 7.722 7.723 7.722h123.965z" fill="#03bed7"/><path d="m116.151 233.578v-198.541c0-4.258 3.464-7.723 7.723-7.723h-46.146c-4.258 0-7.723 3.464-7.723 7.723v198.542c0 4.258 3.464 7.722 7.723 7.722h46.145c-4.258-.001-7.722-3.464-7.722-7.723z" fill="#07b2cd"/><g fill="#0199b1"><path d="m176.999 96.957-7.339 19.38 13.041 34.438h14.679z"/><path d="m212.724 191.294-5-13.204h-14.678l10.408 27.482c1.849-5.523 5.072-10.421 9.27-14.278z"/><path d="m104.457 211.385 59.77-157.826c1.067-2.818 3.005-5.121 5.432-6.67-2.147-1.37-4.675-2.151-7.339-2.151-5.676 0-10.761 3.511-12.771 8.821l-59.77 157.826c-1.239 3.271 1.178 6.771 4.676 6.771h14.678c-3.498-.001-5.915-3.5-4.676-6.771z"/></g><path d="m212.724 191.294c6.063-5.571 14.143-8.979 23.006-8.979h2.801l-48.761-128.757c-2.01-5.309-7.095-8.821-12.772-8.821s-10.761 3.511-12.772 8.821l-59.77 157.826c-1.239 3.271 1.178 6.771 4.676 6.771h18.515c2.078 0 3.94-1.286 4.676-3.229l13.95-36.837h61.45zm-56.106-40.519 20.381-53.818 20.381 53.818z" fill="#fff"/><path d="m469.309 216.352c0-19.35-15.687-35.037-35.037-35.037h-198.541c-19.35 0-35.037 15.686-35.037 35.037v198.542c0 19.35 15.687 35.037 35.037 35.037h183.225c20-17.829 37.057-38.884 50.353-62.355z" fill="#fd6930"/><g><path d="m257.25 414.893v-198.541c0-19.35 15.687-35.037 35.037-35.037h-56.557c-19.35 0-35.037 15.686-35.037 35.037v198.542c0 19.35 15.687 35.037 35.037 35.037h56.557c-19.35-.001-35.037-15.687-35.037-35.038z" fill="#fd5426"/></g><g><path d="m255.622 344.316c.364-23.857 14.911-44.143 35.425-53.493-3.244-5.542-5.285-11.87-5.718-18.675-1.48-23.267 15.547-42.944 37.755-45.742-1.605-.23-3.232-.354-4.873-.354h-7.878c-24.797 0-44.79 20.961-43.192 46.096.433 6.806 2.474 13.133 5.718 18.675-20.514 9.35-35.061 29.635-35.425 53.493-.511 33.479 26.575 60.876 59.938 60.876h18.189c-33.364.001-60.45-27.397-59.939-60.876z" fill="#d73d24"/></g><path d="m412.887 361.847c-19.796 10.527-41.873 16.032-64.294 16.032h-32.338c-17.756 0-32.784-13.895-33.311-31.643-.548-18.442 14.295-33.619 32.616-33.619h32.242c5.403 0 10.7 1.5 15.301 4.332l8.71 5.361 9.192-54.629-3.463 3.875c-7.817 8.747-18.991 13.747-30.721 13.747h-18.3c-9.416 0-16.954-8.193-15.862-17.823.922-8.131 8.11-14.111 16.294-14.111h48.323l-16.073-16.742c-6.484-6.754-15.442-10.572-24.804-10.572h-7.878c-24.797 0-44.79 20.961-43.192 46.096.433 6.806 2.474 13.133 5.718 18.675-20.514 9.35-35.061 29.635-35.425 53.493-.511 33.479 26.575 60.876 59.938 60.876h30.638c32.102 0 61.623-18.793 75.209-47.877z" fill="#fff"/></g></g></svg>