<svg width="194" height="80" viewBox="0 0 194 80" fill="none" xmlns="http://www.w3.org/2000/svg">
<path d="M58.2549 15.5973L50.0849 46.5901L41.7366 15.5973H31.0648L22.8331 46.5901L14.6013 15.5973H2.84656L16.9248 58.0342H28.1381L36.1917 29.1562L44.1218 58.0342H55.3351L69.4682 15.5973H58.2549Z" fill="#778890"/>
<path d="M83.8412 24.9194C73.7589 24.9194 67.0213 31.6398 67.0213 41.8107C67.0213 51.9816 73.519 58.3959 84.0811 58.3959C90.0442 58.3959 94.8763 56.3366 98.1525 52.5869L92.6076 46.9588C90.4623 49.1363 87.7755 50.2911 85.0338 50.2911C81.3943 50.2911 78.7144 48.2319 77.7 44.5378H100.127C100.839 32.6137 95.1162 24.9264 83.8412 24.9264V24.9194ZM77.4601 38.7775C78.1729 35.0278 80.4416 32.4815 83.9029 32.4815C87.3642 32.4815 89.8659 35.0278 89.8659 38.7775H77.4601Z" fill="#778890"/>
<path d="M135.247 24.4325V15.5973H105.603V58.0342H116.515V42.7221H135.24V33.8799H116.515V24.4395H135.24L135.247 24.4325Z" fill="#778890"/>
<path d="M141.813 25.2812V58.0272H152.368V25.2812H141.813Z" fill="#778890"/>
<path d="M181.711 41.2612L191.909 25.2812H180.278L174.671 34.4852L169.483 25.2812H157.317L167.578 41.2612L156.604 58.0272H168.29L174.671 48.0372L180.395 58.0272H192.622L181.711 41.2612Z" fill="#778890"/>
<path d="M147.091 21.5941C142.265 21.5941 138.338 17.6078 138.338 12.7102C138.338 7.81258 142.265 3.82629 147.091 3.82629C151.916 3.82629 155.843 7.81258 155.843 12.7102C155.843 17.6078 151.916 21.5941 147.091 21.5941ZM147.091 5.0994C142.958 5.0994 139.592 8.51522 139.592 12.7102C139.592 16.9052 142.958 20.321 147.091 20.321C151.224 20.321 154.589 16.9052 154.589 12.7102C154.589 8.51522 151.224 5.0994 147.091 5.0994Z" fill="#E97C22"/>
<path d="M147.091 17.914C144.479 17.914 142.354 15.7574 142.354 13.1068H143.609C143.609 15.0547 145.172 16.6409 147.091 16.6409C149.01 16.6409 150.573 15.0547 150.573 13.1068H151.827C151.827 15.7574 149.702 17.914 147.091 17.914Z" fill="#E97C22"/>
<path d="M34.389 71.5375H36.8427C36.8427 71.9479 37.2677 72.268 39.3376 72.268C41.4076 72.268 41.8188 71.9966 41.8188 71.6836C41.8188 71.4957 41.6543 71.3636 41.1677 71.301C40.633 71.2314 39.4404 71.1966 38.4603 71.1549C37.5213 71.1131 36.0614 71.0157 35.3554 70.7583C34.7111 70.5218 34.3204 70.1044 34.3204 69.4156C34.3204 68.226 35.8146 67.1477 39.4336 67.1477C43.6557 67.1477 44.2588 68.3443 44.2588 69.3739H41.8599C41.8599 68.9774 41.291 68.6991 39.4747 68.6991C37.7886 68.6991 37.1169 68.9356 37.1169 69.2556C37.1169 69.4226 37.254 69.5478 37.6172 69.6035C37.9942 69.673 39.2554 69.7217 40.2766 69.7704C41.4761 69.8191 42.655 69.8748 43.4912 70.1113C44.3 70.3479 44.6632 70.8348 44.6632 71.4679C44.6632 72.4141 44.0806 73.8263 39.4199 73.8263C34.7591 73.8263 34.4027 72.2262 34.4027 71.5375H34.389ZM45.5131 67.2799H49.8381L52.0451 70.6887L54.211 67.2799H58.248V73.6872H55.4584V69.3669H55.4516L52.7853 73.6872H50.6469L47.9532 69.3669H47.9463V73.6872H45.52V67.2799H45.5131ZM59.2898 67.2799H62.0795V73.6872H59.2898V67.2799ZM63.1281 67.2799H65.9589V71.6975H71.1543V73.6872H63.1281V67.2799ZM71.8808 67.2799H80.1948V69.0539H74.6635V69.9374H78.7623V71.0018H74.6635V71.9201H80.325V73.6941H71.8876V67.2868L71.8808 67.2799ZM81.0995 68.2817V67.1407H83.4368V68.2817L82.7582 71.1618H81.7781L81.0995 68.2817ZM81.0995 71.8366H83.4299V73.6872H81.0995V71.8366ZM87.4944 67.2799H90.8597L92.9777 71.0296H93.0051L95.171 67.2799H97.7207L99.8797 71.0296H99.9071L101.991 67.2799H104.801L101.1 73.6872H98.2005L96.1168 70.0139H96.0894L93.9921 73.6872H91.1887L87.4875 67.2799H87.4944ZM105.411 67.2799H113.725V69.0539H108.194V69.9374H112.292V71.0018H108.194V71.9201H113.855V73.6941H105.418V67.2868L105.411 67.2799ZM118.043 70.494C118.043 68.5182 119.962 67.1477 123.567 67.1477C127.173 67.1477 128.667 68.5808 128.687 69.8539C128.687 69.9026 128.687 69.9931 128.681 70.0557H126.254V70.0139C126.254 69.5478 125.555 68.9634 123.739 68.9634C121.922 68.9634 120.935 69.6035 120.935 70.494C120.935 71.3288 121.696 72.0036 123.752 72.0036C125.507 72.0036 126.282 71.5236 126.282 70.9809V70.9322H128.708C128.715 71.0018 128.715 71.0853 128.715 71.1062C128.715 72.5184 127.234 73.8193 123.581 73.8193C119.661 73.8193 118.029 72.3027 118.029 70.487L118.043 70.494ZM136.933 72.581H132.416L131.669 73.6941H128.571L133.232 67.2868H136.618L141.278 73.6941H137.673L136.933 72.581ZM136.145 71.3775L134.705 69.2069H134.685L133.218 71.3775H136.145ZM141.929 67.2799H147.694C150.744 67.2799 151.731 68.066 151.731 69.2278C151.731 69.84 151.422 70.5496 150.031 70.7653V70.7861C151.498 70.9601 151.703 71.6558 151.703 72.3723V73.6872H148.921V72.3793C148.921 71.8923 148.818 71.5444 147.598 71.5444H144.712V73.6872H141.929V67.2799ZM147.577 70.3479C148.66 70.3479 149.099 70.1461 149.099 69.7148C149.099 69.3182 148.688 69.1026 147.577 69.1026H144.712V70.3479H147.577ZM152.711 67.2799H161.025V69.0539H155.494V69.9374H159.592V71.0018H155.494V71.9201H161.155V73.6941H152.718V67.2868L152.711 67.2799Z" fill="#778890"/>
</svg>
