<svg width="216" height="121" viewBox="0 0 216 121" fill="none" xmlns="http://www.w3.org/2000/svg">
<g clip-path="url(#clip0_1139_77)">
<path d="M88.275 72.7165C86.53 71.5856 86.8037 70.7632 87.5564 69.2897C90.2936 64.0467 90.2252 58.7009 87.5564 53.4579C84.9561 48.4205 80.9529 44.6168 76.3681 41.4984C70.4147 37.4205 64.2902 33.5483 58.063 29.9501C53.9572 27.5856 51.8359 24.0903 50.3988 19.8411C49.9198 18.4704 50.0567 17.4081 51.1858 16.3115C54.4362 13.1589 53.8546 6.09966 49.2355 3.90651C47.4221 3.04982 45.814 2.19312 45.5061 -0.0342947C45.5061 -0.0685626 45.3008 0.0342411 44.9244 -0.0342947C44.7533 2.26166 42.9742 2.87848 41.2292 3.94078C36.268 6.99063 35.789 12.8504 39.9632 17.1339C40.3396 17.5109 40.6133 18.299 40.4765 18.7445C39.2447 22.4112 37.9445 26.0779 34.6599 28.5109C33.0176 29.7445 31.2042 30.7726 29.425 31.7663C21.0423 36.4268 12.7964 41.3271 6.26134 48.5233C3.07933 52.0187 0.992214 56.1308 0.923783 61.0311C0.855353 66.7881 3.35306 71.4143 7.04829 75.5607C8.45111 77.137 9.92236 78.6791 11.5305 80.4268C10.983 80.8722 10.5382 81.2149 10.0934 81.5919C7.69838 83.5109 5.06381 85.2243 2.90826 87.4174L2.70297 87.5888C0.0684056 90.056 -0.650112 93.0716 0.513202 96.3271C1.43701 98.9314 4.03736 100.542 6.87721 101.947C9.20384 103.078 11.7015 103.9 14.2677 104.517L17.0049 105.134C17.4155 105.202 17.826 105.305 18.2366 105.374C20.358 105.819 22.4109 106.402 24.3269 107.259C26.7904 108.389 27.0299 110.514 24.8059 111.953C23.9848 112.502 23.0952 112.981 22.1372 113.392C18.3735 115.003 10.8462 115.894 6.63771 116.168C5.20067 116.305 4.07157 117.23 4.07157 118.396C4.07157 119.561 5.30332 120.554 6.843 120.623C7.90367 120.726 18.1682 119.492 18.1682 119.492C22.6846 118.533 26.8246 116.888 29.6987 113.872C32.2306 111.199 32.9491 105.751 26.8588 103.523C23.9848 102.461 21.5897 101.262 18.5446 100.645L18.1682 100.542L17.7576 100.405C14.1308 99.7539 10.5382 99 7.5273 97.218C6.05605 96.3613 4.75588 95.0934 5.09803 93.8598C5.91919 91.8722 7.59573 90.3645 9.23806 89.1308C14.7809 84.9159 21.1449 82.4828 27.8511 80.6324C36.0285 78.3707 44.3085 76.6916 52.7255 75.5264C60.0817 74.4984 67.438 73.8816 74.8284 74.3271C77.8051 74.4984 80.7819 75.4236 83.6559 76.2118C84.5113 76.4517 85.6746 77.4454 85.743 78.1651C85.8115 78.8504 84.7508 80.0155 83.9639 80.3582C80.9529 81.6261 75.8549 83.4766 72.3992 84.4361C72.2281 84.4361 72.057 84.5046 71.9201 84.5732C71.8175 84.5732 71.7149 84.6417 71.6122 84.6417H71.5438C70.5858 85.1557 69.9699 86.1495 69.9699 87.3146C69.9699 88.4797 71.2701 90.2617 72.9124 90.2617C74.5547 90.2617 73.323 90.2616 73.5282 90.2274L76.8471 89.3021C81.0214 88.0685 85.264 86.8006 88.5487 83.7507C92.1413 80.4268 92.9624 75.7663 88.275 72.7507V72.7165Z" fill="white"/>
<path d="M43.3506 24.3303C42.7348 26.9346 42.1873 29.539 41.5372 32.1091C39.7923 38.9627 38.2526 45.8848 37.842 52.944C37.4999 58.9066 37.7736 64.8692 37.7736 71.0031C34.6258 71.8256 31.2385 72.6823 27.7485 73.6075C26.5168 70.3178 25.6272 66.9253 25.3877 63.3957C24.9771 56.8848 26.4826 50.8536 29.5619 45.1309C32.4018 39.7851 36.1312 35.0561 39.8607 30.3271C40.8529 29.0592 41.5372 27.5172 42.29 26.0779C42.5979 25.4954 42.769 24.8785 43.0085 24.2617C43.1111 24.2617 43.248 24.3303 43.3506 24.3645V24.3303Z" fill="white"/>
<path d="M63.948 68.0903C60.0474 68.3301 56.2496 68.57 52.2464 68.8442C52.3148 67.8847 52.4175 67.028 52.4517 66.137C52.8965 55.3426 51.8016 44.7196 49.0302 34.2678C48.3459 31.6977 47.7984 29.0591 47.1826 26.4548C47.0457 25.9065 47.0457 25.2896 47.0115 25.0155C48.3801 27.1401 49.7829 29.4703 51.3226 31.6977C53.7861 35.2616 56.3864 38.6884 58.8157 42.2523C61.4503 46.1588 63.2637 50.4423 64.0848 55.137C64.8376 59.4548 64.7349 63.704 63.9822 68.0903H63.948Z" fill="white"/>
<path d="M27.8853 34.8162C26.1061 36.3582 24.5322 37.6604 23.0267 39.0311C18.7498 43.0747 14.9862 47.4953 12.7964 53.0124C11.0857 57.3302 10.8461 61.785 11.9752 66.3084C12.8306 69.838 14.3019 73.0934 16.389 76.0747C16.6285 76.4174 16.7996 76.7944 17.1417 77.3769C15.8758 77.9595 14.6782 78.4735 13.4123 79.056C10.7093 76.8286 8.31423 74.3613 6.26132 71.5514C4.68743 69.3582 3.45568 67.0623 2.56609 64.4579C1.50542 61.3395 2.08708 58.461 3.35304 55.6168C4.89272 52.1557 7.28778 49.3458 10.0934 46.8442C15.2599 42.1838 21.2133 38.6542 27.0641 34.919C27.201 34.8504 27.372 34.8847 27.9195 34.8162H27.8853Z" fill="white"/>
<path d="M62.6479 34.7134C63.8112 35.4673 64.9745 36.1869 66.1379 36.9408C69.3883 39.0654 72.7756 41.0187 75.8892 43.3489C79.9608 46.433 83.7244 49.8941 86.2221 54.5202C88.4803 58.7352 88.3777 62.9159 86.4959 67.1651C86.0511 68.2274 85.401 69.1869 84.7851 70.352C82.39 69.8723 79.9608 69.4268 77.4631 68.947C77.7026 67.7134 77.8736 66.5825 78.1474 65.486C79.4818 60.1402 78.4211 55.1028 75.9918 50.3053C73.802 45.9875 70.62 42.4922 67.1643 39.2367C65.6246 37.7975 64.0165 36.4268 62.4426 35.0218L62.6821 34.7476L62.6479 34.7134Z" fill="white"/>
<path d="M75.1706 68.056L66.172 67.919C66.172 67.919 72.7413 51.2305 51.8701 29.3676C51.8701 29.3676 82.9032 49.2087 75.1706 68.0903V68.056Z" fill="white"/>
<path d="M25.2166 74.0872L19.1605 76.2118C19.1605 76.2118 -1.36856 54.8286 37.534 29.5046C37.534 29.5046 15.5679 50.4081 25.2166 74.0872Z" fill="white"/>
<path d="M50.1594 68.8442L39.758 70.5576C39.758 70.5576 38.7999 45.5763 45.0955 26.7975C45.0955 26.7975 51.6306 45.5763 50.1594 68.81V68.8442Z" fill="white"/>
<path d="M45.4035 14.5981C47.8411 14.5981 49.8172 12.6189 49.8172 10.1775C49.8172 7.73611 47.8411 5.75696 45.4035 5.75696C42.9658 5.75696 40.9897 7.73611 40.9897 10.1775C40.9897 12.6189 42.9658 14.5981 45.4035 14.5981Z" fill="white"/>
<path d="M51.5964 121C50.3647 121 49.4409 120.589 48.7908 119.801C48.1407 119.012 47.8328 118.019 47.8328 116.819C47.8328 115.62 47.9012 115.38 48.0038 114.489C48.1407 113.598 48.3118 112.502 48.6197 111.234L49.3382 107.978C49.4067 107.601 49.5435 107.121 49.6804 106.539C49.8172 105.956 49.9541 105.34 50.0568 104.723C50.1594 104.072 50.2278 103.523 50.2278 103.078C50.2278 102.632 50.1252 101.981 49.8857 101.433C49.6462 100.885 49.1329 100.611 48.346 100.611C47.5591 100.611 46.6352 100.919 45.7799 101.57C44.9245 102.221 44.1375 103.009 43.3848 104.037C42.6663 105.031 42.0162 106.059 41.503 107.121C40.9897 108.184 40.6476 109.143 40.4765 109.966L38.2525 120.589H34.3862L39.7922 94.9221C39.9291 94.3738 40.0317 93.894 40.0659 93.4828C40.1344 93.0716 40.1344 92.8317 40.1344 92.7289C40.1344 92.1806 39.9975 91.7694 39.7238 91.4953C39.4501 91.2211 39.1079 91.0155 38.6631 90.947C38.2183 90.8442 37.7393 90.8099 37.2261 90.8099H36.8839L37.2603 89.0623H44.8903L43.2822 96.704C42.9742 98.1775 42.6663 99.5482 42.3241 100.85C41.982 102.153 41.7425 103.078 41.6056 103.592H42.0504C43.1795 101.776 44.3428 100.371 45.5746 99.4112C46.8063 98.4517 48.1749 97.9719 49.7146 97.9719C51.2543 97.9719 51.6991 98.1775 52.3149 98.623C52.965 99.0685 53.4098 99.6168 53.7178 100.302C53.9915 100.987 54.1626 101.741 54.1626 102.598C54.1626 103.455 54.0599 104.037 53.8888 104.86C53.7178 105.682 53.5467 106.436 53.4098 107.156L52.3149 112.056C52.1439 112.844 52.007 113.598 51.9044 114.352C51.8017 115.106 51.7675 115.791 51.7675 116.442C51.7675 117.093 51.9044 117.573 52.1781 117.916C52.4518 118.259 52.794 118.43 53.2388 118.43C53.6836 118.43 54.1283 118.361 54.5389 118.19C54.9837 118.019 55.4285 117.779 55.8733 117.47L56.6261 118.67C55.976 119.218 55.2232 119.766 54.4021 120.28C53.5809 120.794 52.6229 121.034 51.5622 121.034L51.5964 121Z" fill="white"/>
<path d="M67.3353 121C65.864 121 64.5296 120.692 63.2979 120.041C62.0661 119.389 61.0739 118.464 60.3554 117.196C59.6369 115.928 59.2605 114.352 59.2605 112.399C59.2605 110.445 59.4316 109.897 59.7737 108.561C60.1159 107.224 60.6291 105.922 61.2792 104.654C61.9293 103.386 62.7847 102.255 63.7769 101.227C64.7691 100.199 65.9324 99.377 67.2326 98.7944C68.5328 98.2118 70.004 97.9034 71.6122 97.9034C73.2203 97.9034 74.7257 98.3147 75.6838 99.1713C76.6418 100.028 77.1208 101.193 77.1208 102.667C77.1208 104.14 76.6076 105.477 75.5811 106.745C74.5547 108.012 73.1176 109.041 71.3042 109.829C69.4908 110.617 67.4379 110.994 65.1113 110.994H63.6743C63.6743 111.302 63.64 111.611 63.6058 111.885C63.6058 112.159 63.6058 112.467 63.6058 112.741C63.6058 114.523 63.9822 115.894 64.7691 116.888C65.5561 117.882 66.6852 118.396 68.1564 118.396C69.6277 118.396 70.6541 118.087 71.7148 117.436C72.7413 116.785 73.5624 116.134 74.1441 115.414C74.4178 115.62 74.5547 115.963 74.5547 116.442C74.5547 116.922 74.3151 117.71 73.8019 118.43C73.2887 119.15 72.5017 119.732 71.4753 120.246C70.4488 120.76 69.0802 121 67.4037 121H67.3353ZM64.427 109.075C66.0693 109.075 67.5063 108.801 68.7723 108.252C70.0383 107.704 71.0305 106.95 71.749 106.025C72.4675 105.065 72.8439 103.969 72.8439 102.667C72.8439 101.364 72.6386 101.022 72.228 100.576C71.8174 100.131 71.2016 99.891 70.4488 99.891C69.6961 99.891 68.9434 100.165 68.2591 100.713C67.5748 101.262 66.9589 101.981 66.3772 102.872C65.8298 103.763 65.3508 104.757 64.9402 105.854C64.5296 106.95 64.2217 108.012 64.0164 109.109H64.427V109.075Z" fill="white"/>
<path d="M97.0684 121C95.8366 121 94.9128 120.589 94.2627 119.801C93.6126 119.012 93.3047 118.019 93.3047 116.819C93.3047 115.62 93.3731 115.38 93.4758 114.489C93.6126 113.598 93.7837 112.502 94.0916 111.234L94.8102 107.978C94.8786 107.601 95.0155 107.121 95.1523 106.539C95.2892 105.956 95.426 105.34 95.5287 104.723C95.6313 104.072 95.6998 103.523 95.6998 103.078C95.6998 102.632 95.5971 101.981 95.3576 101.433C95.1181 100.885 94.6049 100.611 93.8179 100.611C93.031 100.611 92.1072 100.919 91.2518 101.57C90.3964 102.221 89.6095 103.009 88.8567 104.037C88.1382 105.031 87.4881 106.059 86.9749 107.121C86.4617 108.184 86.1195 109.143 85.9484 109.966L83.7245 120.589H79.8582L85.2641 94.9221C85.401 94.3738 85.5037 93.894 85.5379 93.4828C85.6063 93.0716 85.6063 92.8317 85.6063 92.7289C85.6063 92.1806 85.4694 91.7694 85.1957 91.4953C84.922 91.2211 84.5798 91.0155 84.135 90.947C83.6902 90.8442 83.2112 90.8099 82.698 90.8099H82.3559L82.7322 89.0623H90.3622L88.7541 96.704C88.4461 98.1775 88.1382 99.5482 87.7961 100.85C87.4539 102.153 87.2144 103.078 87.0775 103.592H87.5223C88.6514 101.776 89.8148 100.371 91.0465 99.4112C92.2782 98.4517 93.6469 97.9719 95.1865 97.9719C96.7262 97.9719 97.171 98.1775 97.7869 98.623C98.437 99.0685 98.8818 99.6168 99.1897 100.302C99.4634 100.987 99.6345 101.741 99.6345 102.598C99.6345 103.455 99.5318 104.037 99.3608 104.86C99.1897 105.682 99.0186 106.436 98.8818 107.156L97.7869 112.056C97.6158 112.844 97.4789 113.598 97.3763 114.352C97.2737 115.106 97.2394 115.791 97.2394 116.442C97.2394 117.093 97.3763 117.573 97.65 117.916C97.9237 118.259 98.2659 118.43 98.7107 118.43C99.1555 118.43 99.6003 118.361 100.011 118.19C100.456 118.019 100.9 117.779 101.345 117.47L102.098 118.67C101.448 119.218 100.695 119.766 99.874 120.28C99.0528 120.794 98.0948 121.034 97.0341 121.034L97.0684 121Z" fill="white"/>
<path d="M108.222 103.9C108.291 103.523 108.359 103.146 108.394 102.769C108.428 102.392 108.462 102.153 108.462 102.05C108.462 101.227 108.12 100.679 107.401 100.439C106.683 100.199 105.93 100.097 105.143 100.097H104.801L105.177 98.3489H112.534L111.678 104.346H112.089C112.602 103.215 113.184 102.153 113.8 101.193C114.415 100.234 115.134 99.4454 115.989 98.8629C116.845 98.2803 117.905 97.9719 119.137 97.9719C120.369 97.9719 121.156 98.2461 121.703 98.7944C122.251 99.3426 122.524 100.028 122.524 100.85C122.524 101.673 122.251 102.598 121.703 103.146C121.156 103.729 120.3 104.003 119.069 104.003C119.069 103.009 118.966 102.221 118.726 101.604C118.521 101.022 118.076 100.713 117.392 100.713C116.708 100.713 115.955 101.09 115.202 101.844C114.484 102.598 113.765 103.592 113.115 104.826C112.465 106.059 111.883 107.396 111.336 108.869C110.823 110.308 110.412 111.748 110.104 113.118L108.53 120.692H104.664L108.154 104.003L108.222 103.9Z" fill="white"/>
<path d="M129.538 121C128.307 121 127.314 120.657 126.528 120.006C125.741 119.355 125.125 118.43 124.748 117.299C124.372 116.134 124.201 114.866 124.201 113.427C124.201 111.988 124.372 110.754 124.714 109.349C125.056 107.91 125.57 106.539 126.254 105.202C126.938 103.866 127.794 102.632 128.786 101.536C129.778 100.439 130.941 99.5825 132.241 98.9314C133.542 98.2803 134.979 97.9719 136.553 97.9719C138.126 97.9719 137.853 98.0405 138.434 98.1433C139.016 98.2803 139.598 98.4517 140.077 98.6573C140.59 98.8629 141.035 99.137 141.377 99.4455L143.19 98.4174H144.525L141.719 111.713C141.651 112.022 141.582 112.467 141.48 113.05C141.377 113.632 141.274 114.215 141.206 114.832C141.137 115.449 141.103 115.928 141.103 116.34C141.103 117.025 141.206 117.573 141.445 117.916C141.685 118.293 142.027 118.464 142.472 118.464C142.917 118.464 143.43 118.361 143.909 118.156C144.388 117.95 144.901 117.676 145.449 117.402L146.201 118.601C145.825 118.978 145.277 119.321 144.627 119.732C143.977 120.109 143.259 120.452 142.506 120.692C141.753 120.966 141.035 121.103 140.35 121.103C139.358 121.103 138.571 120.794 137.99 120.178C137.408 119.561 137.134 118.738 137.134 117.642C137.134 116.545 137.168 116.579 137.237 116.134C137.305 115.688 137.408 115.106 137.545 114.421H137.305C136.655 115.826 135.971 117.025 135.184 118.019C134.397 119.012 133.542 119.766 132.618 120.315C131.694 120.829 130.668 121.103 129.573 121.103L129.538 121ZM131.044 118.396C131.762 118.396 132.515 118.121 133.268 117.573C134.021 117.025 134.739 116.271 135.423 115.346C136.108 114.421 136.689 113.358 137.237 112.193C137.75 111.028 138.161 109.863 138.4 108.664L139.94 101.296C139.632 100.782 139.187 100.439 138.605 100.165C138.024 99.8909 137.408 99.7881 136.792 99.7881C135.697 99.7881 134.705 100.097 133.815 100.713C132.926 101.33 132.173 102.153 131.489 103.181C130.839 104.209 130.257 105.34 129.812 106.539C129.367 107.773 129.025 108.972 128.786 110.206C128.58 111.439 128.444 112.536 128.444 113.564C128.444 115.277 128.683 116.511 129.196 117.265C129.71 118.019 130.325 118.396 131.078 118.396H131.044Z" fill="white"/>
<path d="M146.441 120.589L146.783 118.944L160.879 100.713H155.61C154.892 100.713 154.31 100.85 153.831 101.09C153.386 101.33 153.01 101.707 152.702 102.221C152.394 102.735 152.052 103.352 151.71 104.106L151.641 104.277H149.896L151.539 98.3832H166.046L165.704 100.097L151.573 118.293H158.963C159.613 118.293 160.127 118.121 160.572 117.813C161.016 117.505 161.358 117.059 161.666 116.545C161.974 116.031 162.248 115.449 162.488 114.9L162.898 113.941H164.643L163.035 120.657H146.441V120.589Z" fill="white"/>
<path d="M174.908 121C173.676 121 172.684 120.657 171.897 120.006C171.11 119.355 170.494 118.43 170.118 117.299C169.741 116.134 169.57 114.866 169.57 113.427C169.57 111.988 169.741 110.754 170.083 109.349C170.425 107.91 170.939 106.539 171.623 105.202C172.307 103.866 173.163 102.632 174.155 101.536C175.147 100.439 176.31 99.5825 177.611 98.9314C178.911 98.2803 180.348 97.9719 181.922 97.9719C183.496 97.9719 183.222 98.0405 183.804 98.1433C184.385 98.2803 184.967 98.4517 185.446 98.6573C185.959 98.8629 186.404 99.137 186.746 99.4455L188.559 98.4174H189.894L187.088 111.713C187.02 112.022 186.951 112.467 186.849 113.05C186.746 113.632 186.643 114.215 186.575 114.832C186.507 115.449 186.472 115.928 186.472 116.34C186.472 117.025 186.575 117.573 186.814 117.916C187.054 118.293 187.396 118.464 187.841 118.464C188.286 118.464 188.799 118.361 189.278 118.156C189.757 117.95 190.27 117.676 190.818 117.402L191.57 118.601C191.194 118.978 190.647 119.321 189.996 119.732C189.346 120.109 188.628 120.452 187.875 120.692C187.122 120.966 186.404 121.103 185.72 121.103C184.727 121.103 183.94 120.794 183.359 120.178C182.777 119.561 182.503 118.738 182.503 117.642C182.503 116.545 182.538 116.579 182.606 116.134C182.674 115.688 182.777 115.106 182.914 114.421H182.674C182.024 115.826 181.34 117.025 180.553 118.019C179.766 119.012 178.911 119.766 177.987 120.315C177.063 120.829 176.037 121.103 174.942 121.103L174.908 121ZM176.413 118.396C177.132 118.396 177.884 118.121 178.637 117.573C179.39 117.025 180.108 116.271 180.793 115.346C181.477 114.421 182.059 113.358 182.606 112.193C183.119 111.028 183.53 109.863 183.769 108.664L185.309 101.296C185.001 100.782 184.556 100.439 183.975 100.165C183.393 99.8909 182.777 99.7881 182.161 99.7881C181.066 99.7881 180.074 100.097 179.185 100.713C178.295 101.33 177.542 102.153 176.858 103.181C176.208 104.209 175.626 105.34 175.181 106.539C174.737 107.773 174.394 108.972 174.155 110.206C173.95 111.439 173.813 112.536 173.813 113.564C173.813 115.277 174.052 116.511 174.565 117.265C175.079 118.019 175.695 118.396 176.447 118.396H176.413Z" fill="white"/>
<path d="M198.995 121C197.763 121 196.771 120.657 195.984 120.006C195.197 119.355 194.581 118.43 194.205 117.299C193.829 116.134 193.657 114.866 193.657 113.427C193.657 111.988 193.829 110.754 194.171 109.349C194.513 107.91 195.026 106.539 195.71 105.202C196.395 103.866 197.25 102.632 198.242 101.536C199.235 100.439 200.398 99.5825 201.698 98.9315C202.998 98.2804 204.435 97.9719 206.009 97.9719C207.583 97.9719 207.549 98.0748 208.267 98.2461C208.986 98.4517 209.602 98.6916 210.115 99C210.183 98.6573 210.252 98.2118 210.32 97.7321C210.389 97.2523 210.457 96.8754 210.526 96.6355L210.936 94.648C211.005 94.271 211.073 93.8941 211.141 93.5514C211.21 93.2087 211.21 92.9346 211.21 92.7975C211.21 91.9751 210.936 91.4268 210.354 91.1869C209.773 90.947 209.088 90.8442 208.302 90.8442H207.959L208.336 89.0966H215.966L211.141 111.748C211.073 112.056 211.005 112.502 210.902 113.084C210.799 113.667 210.697 114.249 210.628 114.866C210.56 115.483 210.526 115.963 210.526 116.374C210.526 117.059 210.628 117.607 210.868 117.95C211.107 118.327 211.449 118.498 211.894 118.498C212.339 118.498 212.852 118.396 213.331 118.19C213.81 117.984 214.323 117.71 214.871 117.436L215.624 118.636C215.247 119.012 214.7 119.355 214.05 119.766C213.4 120.143 212.681 120.486 211.928 120.726C211.176 121 210.457 121.137 209.773 121.137C208.781 121.137 207.994 120.829 207.412 120.212C206.83 119.595 206.557 118.773 206.557 117.676C206.557 116.579 206.591 116.854 206.659 116.305C206.728 115.757 206.83 115.14 206.967 114.421H206.728C205.804 116.545 204.675 118.19 203.375 119.355C202.074 120.52 200.603 121.103 198.995 121.103V121ZM200.5 118.396C201.219 118.396 201.972 118.121 202.724 117.573C203.477 117.025 204.196 116.271 204.88 115.346C205.564 114.421 206.146 113.358 206.693 112.193C207.207 111.028 207.617 109.863 207.857 108.664L209.396 101.296C209.088 100.782 208.644 100.439 208.062 100.165C207.48 99.8909 206.865 99.7881 206.249 99.7881C205.154 99.7881 204.162 100.097 203.272 100.713C202.382 101.33 201.63 102.153 200.945 103.181C200.295 104.209 199.714 105.34 199.269 106.539C198.824 107.773 198.482 108.972 198.242 110.206C198.037 111.439 197.9 112.536 197.9 113.564C197.9 115.277 198.14 116.511 198.653 117.265C199.166 118.019 199.782 118.396 200.535 118.396H200.5Z" fill="white"/>
</g>
<defs>
<clipPath id="clip0_1139_77">
<rect width="216" height="121" fill="white"/>
</clipPath>
</defs>
</svg>
