<svg width="28" height="31" viewBox="0 0 28 31" fill="none" xmlns="http://www.w3.org/2000/svg">
<g clip-path="url(#clip0_269_111)">
<path fill-rule="evenodd" clip-rule="evenodd" d="M20.4398 5.16675C20.754 5.16673 21.065 5.23696 21.3541 5.37324C21.6432 5.50952 21.9044 5.70904 22.1221 5.95983L22.2621 6.13679L25.8205 11.0606C26.7036 12.2838 25.9768 14.0754 24.6071 14.202L24.4531 14.2084H23.3331V24.5417C23.3328 24.871 23.219 25.1876 23.0148 25.427C22.8107 25.6664 22.5317 25.8105 22.2349 25.8298C21.938 25.8491 21.6457 25.7421 21.4177 25.5308C21.1896 25.3195 21.0431 25.0198 21.008 24.6929L20.9998 24.5417V14.2084H18.6665V23.2501C18.6667 23.9018 18.4443 24.5296 18.0441 25.0075C17.6438 25.4853 17.0952 25.7781 16.5081 25.827L16.3331 25.8334H6.99981C6.41134 25.8333 5.84465 25.587 5.41325 25.1439C4.98185 24.7008 4.71762 24.0935 4.67348 23.4438L4.66648 23.2501V14.2084H3.54648C2.13248 14.2084 1.32282 12.4608 2.08815 11.1988L2.18148 11.0606L5.73865 6.13679C5.93482 5.86505 6.17854 5.63997 6.4552 5.47506C6.73186 5.31014 7.03575 5.20879 7.34865 5.17708L7.56215 5.16675H20.4398ZM8.16648 14.2084H6.99981V23.2501H16.3331V14.2084H15.1665V19.3751C15.1665 19.7177 15.0436 20.0462 14.8248 20.2884C14.606 20.5307 14.3092 20.6667 13.9998 20.6667H9.33315C9.02373 20.6667 8.72698 20.5307 8.50819 20.2884C8.2894 20.0462 8.16648 19.7177 8.16648 19.3751V14.2084ZM12.8331 14.2084H10.4998V18.0834H12.8331V14.2084ZM20.4398 7.75008H7.55981L4.75982 11.6251H23.2398L20.4398 7.75008Z" fill="#CCCCCC"/>
</g>
<defs>
<clipPath id="clip0_269_111">
<rect width="28" height="31" fill="white"/>
</clipPath>
</defs>
</svg>
