<svg width="23" height="16" viewBox="0 0 23 16" fill="none" xmlns="http://www.w3.org/2000/svg">
<path d="M18.9515 1.60956H3.55711C2.34253 1.60956 1.35791 2.59417 1.35791 3.80876V12.6056C1.35791 13.8202 2.34253 14.8048 3.55711 14.8048H18.9515C20.1661 14.8048 21.1507 13.8202 21.1507 12.6056V3.80876C21.1507 2.59417 20.1661 1.60956 18.9515 1.60956Z" stroke="#006B60" stroke-width="2"/>
<path d="M4.65674 4.90839H6.85594M15.6527 11.506H17.8519" stroke="#006B60" stroke-width="2" stroke-linecap="round"/>
<path d="M11.2544 10.4063C12.469 10.4063 13.4536 9.42172 13.4536 8.20714C13.4536 6.99255 12.469 6.00793 11.2544 6.00793C10.0398 6.00793 9.05518 6.99255 9.05518 8.20714C9.05518 9.42172 10.0398 10.4063 11.2544 10.4063Z" stroke="#006B60" stroke-width="2"/>
</svg>
