<svg width="24" height="24" viewBox="0 0 24 24" fill="none" xmlns="http://www.w3.org/2000/svg">
<path d="M12.0004 6.441V9.771M20.5904 15.17C21.3204 16.39 20.7404 17.97 19.3904 18.42C14.6091 20.01 9.4417 20.01 4.66042 18.42C3.22042 17.94 2.67042 16.48 3.46042 15.17L4.73042 13.05C5.08042 12.47 5.36042 11.44 5.36042 10.77V8.67C5.35911 7.79456 5.5304 6.92744 5.86451 6.11826C6.19862 5.30907 6.68898 4.5737 7.30755 3.9542C7.92612 3.33471 8.66076 2.84324 9.46944 2.50792C10.2781 2.1726 11.145 2 12.0204 2C15.6804 2 18.6804 5 18.6804 8.66V10.76C18.6804 10.94 18.7004 11.14 18.7304 11.35" stroke="#272727" stroke-width="1.5" stroke-miterlimit="10" stroke-linecap="round"/>
<path d="M15.3299 18.8201C15.3299 20.6501 13.8299 22.1501 11.9999 22.1501C11.0899 22.1501 10.2499 21.7701 9.64992 21.1701C9.04992 20.5701 8.66992 19.7301 8.66992 18.8201" stroke="#272727" stroke-width="1.5" stroke-miterlimit="10"/>
</svg>
