<svg width="13" height="13" viewBox="0 0 13 13" fill="none" xmlns="http://www.w3.org/2000/svg">
<path d="M11.9844 10.0877V12.1875C11.9844 12.3491 11.9202 12.5041 11.8059 12.6184C11.6916 12.7327 11.5366 12.7969 11.375 12.7969C11.2134 12.7969 11.0584 12.7327 10.9441 12.6184C10.8298 12.5041 10.7656 12.3491 10.7656 12.1875V10.0877C10.7641 9.26086 10.4771 8.45992 9.95312 7.82031V10.2715C9.95244 10.4022 9.90979 10.5291 9.83147 10.6337C9.75315 10.7382 9.6433 10.8148 9.51813 10.8522C9.39296 10.8896 9.25908 10.8858 9.13626 10.8413C9.01343 10.7968 8.90815 10.714 8.83594 10.6052L8.2941 9.77742C8.28753 9.76791 8.28143 9.75808 8.27582 9.74797C8.2235 9.65369 8.13587 9.58406 8.0322 9.5544C7.92854 9.52473 7.81734 9.53746 7.72307 9.58978C7.62879 9.64211 7.55916 9.72974 7.5295 9.8334C7.49983 9.93706 7.51256 10.0483 7.56488 10.1425L8.68207 11.8518C8.72734 11.9188 8.75885 11.994 8.77476 12.0733C8.79067 12.1525 8.79067 12.2341 8.77475 12.3133C8.75883 12.3925 8.72731 12.4678 8.68203 12.5347C8.63674 12.6016 8.5786 12.6589 8.51099 12.7031C8.44337 12.7474 8.36763 12.7778 8.28817 12.7925C8.20871 12.8072 8.12713 12.8059 8.04816 12.7888C7.96918 12.7716 7.89441 12.739 7.82818 12.6927C7.76195 12.6464 7.70559 12.5874 7.66238 12.5191L6.53199 10.7925C6.5259 10.7829 6.5198 10.7732 6.51422 10.7631C6.33667 10.4533 6.26609 10.0937 6.3134 9.73974C6.36071 9.38583 6.52326 9.05735 6.77595 8.80507C7.02863 8.5528 7.35737 8.39077 7.71136 8.34403C8.06534 8.29729 8.42487 8.36844 8.73438 8.54648V3.45312H8.32812C8.16651 3.45312 8.01151 3.38892 7.89723 3.27464C7.78295 3.16036 7.71875 3.00537 7.71875 2.84375C7.71875 2.68213 7.78295 2.52714 7.89723 2.41286C8.01151 2.29858 8.16651 2.23437 8.32812 2.23437H8.9375C9.20686 2.23437 9.46519 2.34138 9.65566 2.53184C9.84612 2.72231 9.95312 2.98064 9.95312 3.25V6.17094C10.5791 6.61493 11.09 7.20197 11.4433 7.88323C11.7966 8.56449 11.9821 9.32027 11.9844 10.0877ZM4.46875 2.84375C4.46875 2.68213 4.40455 2.52714 4.29027 2.41286C4.17599 2.29858 4.02099 2.23437 3.85938 2.23437H3.25C2.98064 2.23437 2.72231 2.34138 2.53184 2.53184C2.34138 2.72231 2.23438 2.98064 2.23438 3.25V10.1562C2.23438 10.3179 2.29858 10.4729 2.41286 10.5871C2.52714 10.7014 2.68213 10.7656 2.84375 10.7656C3.00537 10.7656 3.16036 10.7014 3.27464 10.5871C3.38892 10.4729 3.45312 10.3179 3.45312 10.1562V3.45312H3.85938C4.02099 3.45312 4.17599 3.38892 4.29027 3.27464C4.40455 3.16036 4.46875 3.00537 4.46875 2.84375ZM7.94676 5.915C8.06124 5.80052 8.12555 5.64526 8.12555 5.48336C8.12555 5.32146 8.06124 5.1662 7.94676 5.05172C7.83228 4.93724 7.67701 4.87293 7.51512 4.87293C7.35322 4.87293 7.19796 4.93724 7.08348 5.05172L6.70312 5.43359V0.8125C6.70312 0.650884 6.63892 0.495887 6.52464 0.381607C6.41036 0.267327 6.25537 0.203125 6.09375 0.203125C5.93213 0.203125 5.77714 0.267327 5.66286 0.381607C5.54858 0.495887 5.48438 0.650884 5.48438 0.8125V5.43359L5.10301 5.05172C4.98853 4.93724 4.83326 4.87293 4.67137 4.87293C4.50947 4.87293 4.3542 4.93724 4.23973 5.05172C4.12525 5.1662 4.06094 5.32146 4.06094 5.48336C4.06094 5.56352 4.07672 5.6429 4.1074 5.71696C4.13808 5.79102 4.18304 5.85832 4.23973 5.915L5.6616 7.33687C5.71821 7.39368 5.78549 7.43876 5.85956 7.46952C5.93363 7.50027 6.01304 7.5161 6.09324 7.5161C6.17344 7.5161 6.25286 7.50027 6.32693 7.46952C6.401 7.43876 6.46827 7.39368 6.52488 7.33687L7.94676 5.915Z" fill="black"/>
</svg>
