<?xml version="1.0" encoding="UTF-8"?>
<svg id="Layer_1" data-name="Layer 1" xmlns="http://www.w3.org/2000/svg" viewBox="0 0 1080 1080">
  <defs>
    <style>
      .cls-1 {
        fill: #e97d24;
      }
    </style>
  </defs>
  <path class="cls-1" d="M540,1080C242.24,1080,0,837.76,0,540S242.24,0,540,0s540,242.24,540,540-242.24,540-540,540ZM540,77.45c-255.05,0-462.55,207.5-462.55,462.55s207.5,462.55,462.55,462.55,462.55-207.5,462.55-462.55S795.05,77.45,540,77.45Z"/>
  <path class="cls-1" d="M540,504.15c161.19,0,292.33,131.14,292.33,292.33h-77.45c0-118.49-96.4-214.88-214.88-214.88s-214.88,96.4-214.88,214.88h-77.45c0-161.19,131.14-292.33,292.33-292.33Z"/>
</svg>