<?xml version="1.0" encoding="UTF-8"?>
<svg id="Layer_1" data-name="Layer 1" xmlns="http://www.w3.org/2000/svg" viewBox="0 0 706.89 706.89">
  <defs>
    <style>
      .cls-1 {
        fill: #e97d24;
      }
    </style>
  </defs>
  <g id="icon">
    <path class="cls-1" d="M353.44,706.89C158.55,706.89,0,548.33,0,353.44S158.55,0,353.44,0s353.44,158.55,353.44,353.44-158.55,353.44-353.44,353.44ZM353.44,50.69c-166.94,0-302.75,135.81-302.75,302.75s135.81,302.75,302.75,302.75,302.75-135.81,302.75-302.75S520.38,50.69,353.44,50.69Z"/>
    <path class="cls-1" d="M353.44,560.5c-105.51,0-191.34-85.83-191.34-191.34h50.69c0,77.55,63.09,140.65,140.65,140.65s140.65-63.09,140.65-140.65h50.69c0,105.51-85.83,191.34-191.34,191.34Z"/>
  </g>
</svg>