<svg width="30" height="30" viewBox="0 0 30 30" fill="none" xmlns="http://www.w3.org/2000/svg">
<path fill-rule="evenodd" clip-rule="evenodd" d="M13.7674 6C13.9824 5.71875 14.3724 5.3125 14.9999 5.3125C15.6274 5.3125 16.0174 5.71875 16.2324 6C16.4387 6.2675 16.6449 6.63875 16.8574 7.02L17.0087 7.2925L17.0799 7.4175L17.2037 7.44625L17.5012 7.51375C17.9099 7.60625 18.3174 7.6975 18.6299 7.82125C18.9749 7.9575 19.4424 8.22125 19.6237 8.8025C19.8012 9.37125 19.5774 9.85375 19.3824 10.165C19.2012 10.4525 18.9262 10.7725 18.6449 11.1013L18.4449 11.3363L18.3424 11.4575C18.3449 11.5025 18.3512 11.555 18.3574 11.6263L18.3874 11.9388C18.4299 12.3775 18.4712 12.8025 18.4562 13.1425C18.4412 13.5 18.3562 14.04 17.8712 14.4062C17.3712 14.7863 16.8212 14.7038 16.4712 14.6025C16.1487 14.5113 15.7674 14.335 15.3837 14.1588L15.1062 14.03L14.9999 13.9813L14.8937 14.0313L14.6149 14.1588C14.2324 14.335 13.8512 14.5113 13.5287 14.6025C13.1787 14.7025 12.6287 14.7863 12.1287 14.4062C11.6449 14.04 11.5587 13.5 11.5437 13.1438C11.5287 12.8025 11.5687 12.3775 11.6124 11.9375L11.6424 11.625L11.6587 11.4575C11.6243 11.4169 11.5898 11.3765 11.5549 11.3363L11.3549 11.1013C11.0737 10.7725 10.7987 10.4513 10.6174 10.1637C10.4224 9.85375 10.1987 9.37125 10.3762 8.80125C10.5562 8.2225 11.0249 7.9575 11.3699 7.82125C11.6824 7.6975 12.0899 7.60625 12.4987 7.51375L12.7962 7.44625L12.9212 7.4175L12.9912 7.2925L13.1424 7.02C13.3549 6.63875 13.5612 6.2675 13.7674 6ZM14.9999 7.5425C14.9274 7.66875 14.8462 7.81375 14.7512 7.985L14.6287 8.205L14.5999 8.255C14.5024 8.435 14.3399 8.7325 14.0687 8.93875C13.7924 9.14875 13.4587 9.22125 13.2649 9.26375L13.2099 9.275L12.9724 9.32875C12.7524 9.37875 12.5737 9.41875 12.4224 9.4575C12.5212 9.57875 12.6499 9.73125 12.8174 9.9275L12.9799 10.1175L13.0174 10.16C13.1524 10.3163 13.3699 10.5663 13.4712 10.8913C13.5712 11.2113 13.5362 11.5413 13.5149 11.7488L13.5087 11.8075L13.4837 12.0613C13.4644 12.2528 13.4469 12.4444 13.4312 12.6363C13.5624 12.5788 13.7099 12.5113 13.8862 12.43L14.1099 12.3275L14.1599 12.3025C14.3399 12.2188 14.6512 12.0712 14.9999 12.0712C15.3487 12.0712 15.6599 12.2188 15.8399 12.3038L15.8899 12.3275L16.1137 12.43C16.2887 12.5113 16.4387 12.58 16.5687 12.6363C16.5529 12.4444 16.5354 12.2528 16.5162 12.0613L16.4912 11.8075L16.4849 11.7488C16.4637 11.54 16.4287 11.2113 16.5287 10.8913C16.6287 10.5663 16.8474 10.3163 16.9824 10.16L17.0199 10.1175L17.1824 9.9275C17.3499 9.73125 17.4787 9.57875 17.5774 9.4575C17.4262 9.42 17.2474 9.37875 17.0274 9.32875L16.7899 9.275L16.7349 9.2625C16.5412 9.22125 16.2074 9.14875 15.9312 8.9375C15.6599 8.7325 15.4974 8.435 15.3999 8.25625L15.3712 8.205L15.2487 7.985C15.1537 7.81375 15.0737 7.66875 14.9999 7.5425Z" fill="#BEBEBE"/>
<path fill-rule="evenodd" clip-rule="evenodd" d="M9.3725 2.00881C11.2327 1.70388 13.115 1.55461 15 1.56256C17.285 1.56256 19.1738 1.76381 20.6275 2.00881L20.7962 2.03756C22.0587 2.24881 23.1087 2.42506 23.9287 3.43506C24.455 4.08381 24.625 4.78506 24.6638 5.56631L25.2787 5.77131C25.8575 5.96381 26.3662 6.13381 26.7675 6.32131C27.2025 6.52381 27.6013 6.78381 27.9062 7.20756C28.2113 7.63006 28.3325 8.09131 28.3875 8.56756C28.4375 9.00881 28.4375 9.54256 28.4375 10.1551V10.3351C28.4375 10.8376 28.4375 11.2813 28.4 11.6526C28.36 12.0538 28.2712 12.4451 28.05 12.8226C27.8263 13.2013 27.5275 13.4688 27.1963 13.6988C26.89 13.9113 26.5025 14.1276 26.0625 14.3713L22.7625 16.2051C22.0875 17.5313 21.1625 18.7138 19.8875 19.5676C18.7938 20.3013 17.485 20.7663 15.9375 20.8988V23.4376H17.725C18.2307 23.4376 18.7208 23.6128 19.1119 23.9335C19.503 24.2541 19.7709 24.7004 19.87 25.1963L20.1437 26.5626H22.5C22.7486 26.5626 22.9871 26.6613 23.1629 26.8371C23.3387 27.013 23.4375 27.2514 23.4375 27.5001C23.4375 27.7487 23.3387 27.9872 23.1629 28.163C22.9871 28.3388 22.7486 28.4376 22.5 28.4376H7.5C7.25136 28.4376 7.0129 28.3388 6.83709 28.163C6.66127 27.9872 6.5625 27.7487 6.5625 27.5001C6.5625 27.2514 6.66127 27.013 6.83709 26.8371C7.0129 26.6613 7.25136 26.5626 7.5 26.5626H9.85625L10.13 25.1963C10.2291 24.7004 10.497 24.2541 10.8881 23.9335C11.2792 23.6128 11.7693 23.4376 12.275 23.4376H14.0625V20.8988C12.515 20.7663 11.2063 20.3013 10.1125 19.5688C8.83875 18.7138 7.9125 17.5313 7.2375 16.2051L3.9375 14.3713C3.54919 14.1652 3.17085 13.9407 2.80375 13.6988C2.45803 13.4742 2.16679 13.1753 1.95125 12.8238C1.74822 12.4645 1.62821 12.0643 1.6 11.6526C1.5625 11.2813 1.5625 10.8376 1.5625 10.3351V10.1538C1.5625 9.54381 1.5625 9.00881 1.6125 8.56756C1.6675 8.09131 1.7875 7.63006 2.09375 7.20756C2.39875 6.78381 2.7975 6.52381 3.23125 6.32006C3.635 6.13256 4.1425 5.96381 4.72125 5.77131L5.33625 5.56631C5.375 4.78381 5.545 4.08381 6.07125 3.43506C6.8925 2.42381 7.94125 2.24756 9.205 2.03756L9.3725 2.00881ZM11.7688 26.5626H18.2313L18.0312 25.5638C18.0171 25.493 17.9789 25.4293 17.923 25.3835C17.8672 25.3377 17.7972 25.3126 17.725 25.3126H12.275C12.2028 25.3126 12.1328 25.3377 12.077 25.3835C12.0211 25.4293 11.9829 25.493 11.9688 25.5638L11.7688 26.5626ZM5.3775 7.52881L5.36 7.53506C4.7225 7.74756 4.3175 7.88506 4.0225 8.02131C3.75125 8.14631 3.66375 8.23506 3.615 8.30381C3.565 8.37131 3.51 8.48256 3.47625 8.78006C3.43875 9.10256 3.4375 9.53006 3.4375 10.2026V10.2938C3.4375 10.8501 3.4375 11.1988 3.465 11.4663C3.49 11.7113 3.53 11.8101 3.5675 11.8726C3.60375 11.9351 3.67 12.0176 3.8725 12.1588C4.0925 12.3113 4.3975 12.4813 4.885 12.7526L6.21625 13.4926C5.68125 11.5301 5.46625 9.43006 5.37875 7.53006M23.785 13.4926C24.32 11.5301 24.535 9.43006 24.6237 7.53006L24.6412 7.53631C25.2787 7.74881 25.6838 7.88631 25.9788 8.02256C26.25 8.14756 26.3375 8.23631 26.3862 8.30506C26.4362 8.37256 26.4912 8.48381 26.525 8.78131C26.5625 9.10381 26.5637 9.53131 26.5637 10.2038V10.2951C26.5637 10.8513 26.5637 11.2001 26.5363 11.4676C26.5112 11.7126 26.4712 11.8113 26.4338 11.8738C26.3975 11.9363 26.3312 12.0188 26.1287 12.1601C25.9075 12.3126 25.6038 12.4826 25.1163 12.7538L23.785 13.4926ZM15 3.43756C12.825 3.43756 11.0413 3.62881 9.685 3.85756C8.17625 4.11256 7.86 4.20756 7.5275 4.61756C7.2 5.02006 7.16875 5.40256 7.235 7.09631C7.3475 9.91881 7.72 12.9663 8.8725 15.2838C9.4425 16.4263 10.1875 17.3613 11.1575 18.0113C12.12 18.6576 13.3638 19.0626 15 19.0626C16.6375 19.0626 17.88 18.6576 18.8438 18.0113C19.8137 17.3613 20.5575 16.4263 21.1262 15.2826C22.28 12.9663 22.6525 9.92006 22.7638 7.09506C22.8325 5.40256 22.8013 5.02006 22.4738 4.61756C22.1413 4.20756 21.8238 4.11256 20.315 3.85756C18.5581 3.57011 16.7803 3.42962 15 3.43756Z" fill="#BEBEBE"/>
</svg>
