<svg width="165" height="147" viewBox="0 0 165 147" fill="none" xmlns="http://www.w3.org/2000/svg">
<g clip-path="url(#clip0_8010_2)">
<path d="M104.425 28H80.7061C78.6593 28 77 29.6593 77 31.706C77 33.7528 78.6593 35.4121 80.7061 35.4121H104.425C106.472 35.4121 108.131 33.7528 108.131 31.706C108.131 29.6593 106.472 28 104.425 28Z" fill="#E97C22" fill-opacity="0.37"/>
<path d="M107.601 19.8794H98.706C96.6593 19.8794 95 21.5386 95 23.5854C95 25.6322 96.6593 27.2915 98.706 27.2915H107.601C109.647 27.2915 111.307 25.6322 111.307 23.5854C111.307 21.5386 109.647 19.8794 107.601 19.8794Z" fill="#E97C22" fill-opacity="0.37"/>
<path d="M99.4473 60.2236C99.4473 58.9956 98.4517 58 97.2236 58C95.9956 58 95 58.9956 95 60.2236V63.1885C95 64.4165 95.9956 65.4121 97.2236 65.4121C98.4517 65.4121 99.4473 64.4165 99.4473 63.1885V60.2236Z" fill="#E97C22" fill-opacity="0.37"/>
<path d="M116.354 50H86.706C84.6593 50 83 51.6593 83 53.706C83 55.7528 84.6593 57.4121 86.706 57.4121H116.354C118.401 57.4121 120.061 55.7528 120.061 53.706C120.061 51.6593 118.401 50 116.354 50Z" fill="#E97C22" fill-opacity="0.37"/>
<path d="M128.354 66H98.706C96.6593 66 95 67.6593 95 69.706C95 71.7528 96.6593 73.4121 98.706 73.4121H128.354C130.401 73.4121 132.06 71.7528 132.06 69.706C132.06 67.6593 130.401 66 128.354 66Z" fill="#E97C22" fill-opacity="0.37"/>
<path d="M91.3545 90H61.706C59.6593 90 58 91.6592 58 93.706C58 95.7528 59.6593 97.4121 61.706 97.4121H91.3545C93.4012 97.4121 95.0605 95.7528 95.0605 93.706C95.0605 91.6592 93.4012 90 91.3545 90Z" fill="#E97C22" fill-opacity="0.37"/>
<path d="M96.827 98H22.706C20.6593 98 19 99.6593 19 101.706C19 103.753 20.6593 105.412 22.706 105.412H96.827C98.8737 105.412 100.533 103.753 100.533 101.706C100.533 99.6593 98.8737 98 96.827 98Z" fill="#E97C22" fill-opacity="0.37"/>
<path d="M136.827 121H62.7061C60.6593 121 59 122.659 59 124.706C59 126.753 60.6593 128.412 62.7061 128.412H136.827C138.874 128.412 140.533 126.753 140.533 124.706C140.533 122.659 138.874 121 136.827 121Z" fill="#E97C22" fill-opacity="0.37"/>
<path d="M156.391 128.096H146.014C143.967 128.096 142.308 129.755 142.308 131.802C142.308 133.849 143.967 135.508 146.014 135.508H156.391C158.438 135.508 160.097 133.849 160.097 131.802C160.097 129.755 158.438 128.096 156.391 128.096Z" fill="#E97C22" fill-opacity="0.37"/>
<path d="M47.0829 21H36.7061C34.6593 21 33 22.6593 33 24.7061C33 26.7528 34.6593 28.4121 36.7061 28.4121H47.0829C49.1297 28.4121 50.789 26.7528 50.789 24.7061C50.789 22.6593 49.1297 21 47.0829 21Z" fill="#E97C22" fill-opacity="0.37"/>
<path d="M137.249 106H98.7061C96.6593 106 95 107.659 95 109.706C95 111.753 96.6593 113.412 98.7061 113.412H137.249C139.296 113.412 140.955 111.753 140.955 109.706C140.955 107.659 139.296 106 137.249 106Z" fill="#E97C22" fill-opacity="0.37"/>
<path d="M105.284 114H98.2475C96.454 114 95 115.454 95 117.248V117.248C95 119.041 96.454 120.495 98.2475 120.495H105.284C107.077 120.495 108.531 119.041 108.531 117.248V117.248C108.531 115.454 107.077 114 105.284 114Z" fill="#E97C22" fill-opacity="0.37"/>
<path d="M107.601 74H98.706C96.6593 74 95 75.6593 95 77.706C95 79.7528 96.6593 81.4121 98.706 81.4121H107.601C109.647 81.4121 111.307 79.7528 111.307 77.706C111.307 75.6593 109.647 74 107.601 74Z" fill="#E97C22" fill-opacity="0.37"/>
<path d="M100.188 82H98.706C96.6592 82 95 83.6593 95 85.706C95 87.7528 96.6592 89.4121 98.706 89.4121H100.188C102.235 89.4121 103.895 87.7528 103.895 85.706C103.895 83.6593 102.235 82 100.188 82Z" fill="#E97C22" fill-opacity="0.37"/>
<path d="M92.1885 42H90.706C88.6593 42 87 43.6593 87 45.706C87 47.7528 88.6593 49.4121 90.706 49.4121H92.1885C94.2353 49.4121 95.8945 47.7528 95.8945 45.706C95.8945 43.6593 94.2353 42 92.1885 42Z" fill="#E97C22" fill-opacity="0.37"/>
<path d="M92.0829 129H81.7061C79.6593 129 78 130.659 78 132.706C78 134.753 79.6593 136.412 81.7061 136.412H92.0829C94.1297 136.412 95.789 134.753 95.789 132.706C95.789 130.659 94.1297 129 92.0829 129Z" fill="#E97C22" fill-opacity="0.37"/>
<path d="M94.7425 36H87.7063C86.2116 36 85 37.2116 85 38.7063C85 40.2009 86.2116 41.4125 87.7063 41.4125H94.7425C96.2372 41.4125 97.4488 40.2009 97.4488 38.7063C97.4488 37.2116 96.2372 36 94.7425 36Z" fill="#E97C22" fill-opacity="0.37"/>
<path d="M121.683 83.4398C121.683 105.254 103.779 122.979 81.6429 122.979C59.5068 122.979 41.603 105.254 41.603 83.4398C41.603 61.6253 59.5068 43.9004 81.6429 43.9004C103.779 43.9004 121.683 61.6253 121.683 83.4398Z" fill="white" stroke="#E97C22" stroke-width="4"/>
<path fill-rule="evenodd" clip-rule="evenodd" d="M101.621 63.4539C102.161 63.1294 102.807 63.0264 103.422 63.1667C104.037 63.307 104.574 63.6796 104.92 64.2064L107.336 67.8834C107.651 68.3637 107.786 68.9396 107.717 69.5095C107.647 70.0793 107.379 70.6065 106.958 70.9979L106.951 71.0076L106.916 71.0392L106.777 71.1683L106.228 71.6919C103.19 74.6326 100.244 77.6666 97.3937 80.7894C92.032 86.6725 85.6649 94.3723 81.3794 101.843C80.1836 103.928 77.2624 104.376 75.5296 102.576L59.7033 86.1685C59.4765 85.9333 59.2994 85.6549 59.1825 85.3501C59.0656 85.0452 59.0114 84.72 59.023 84.3938C59.0346 84.0676 59.1119 83.747 59.2501 83.4512C59.3883 83.1554 59.5848 82.8903 59.8277 82.6717L64.611 78.3664C65.0314 77.9883 65.5704 77.7677 66.1358 77.7424C66.7012 77.717 67.2578 77.8886 67.7104 78.2276L75.7859 84.2691C88.4006 71.8574 95.5536 67.0944 101.621 63.4539Z" fill="#FFC700"/>
<path d="M23.5878 41.4002C25.5229 41.4002 27.0916 39.8315 27.0916 37.8964C27.0916 35.9613 25.5229 34.3926 23.5878 34.3926C21.6527 34.3926 20.084 35.9613 20.084 37.8964C20.084 39.8315 21.6527 41.4002 23.5878 41.4002Z" stroke="#E97C22"/>
<path d="M10.5756 128.483C12.5107 128.483 14.0794 126.914 14.0794 124.979C14.0794 123.044 12.5107 121.475 10.5756 121.475C8.64048 121.475 7.07178 123.044 7.07178 124.979C7.07178 126.914 8.64048 128.483 10.5756 128.483Z" stroke="#E97C22"/>
<path d="M162.219 107.463C163.325 107.463 164.221 106.567 164.221 105.461C164.221 104.355 163.325 103.458 162.219 103.458C161.113 103.458 160.217 104.355 160.217 105.461C160.217 106.567 161.113 107.463 162.219 107.463Z" stroke="#E97C22"/>
<path d="M149.207 20.3803C149.76 20.3803 150.208 19.9319 150.208 19.3789C150.208 18.8258 149.76 18.3774 149.207 18.3774C148.654 18.3774 148.206 18.8258 148.206 19.3789C148.206 19.9319 148.654 20.3803 149.207 20.3803Z" stroke="#E97C22"/>
<path d="M54.1169 146.5C54.67 146.5 55.1183 146.052 55.1183 145.499C55.1183 144.946 54.67 144.498 54.1169 144.498C53.5638 144.498 53.1155 144.946 53.1155 145.499C53.1155 146.052 53.5638 146.5 54.1169 146.5Z" stroke="#E97C22"/>
<path d="M120.18 62.4203C120.733 62.4203 121.181 61.972 121.181 61.4189C121.181 60.8658 120.733 60.4175 120.18 60.4175C119.627 60.4175 119.178 60.8658 119.178 61.4189C119.178 61.972 119.627 62.4203 120.18 62.4203Z" stroke="#FFC700"/>
<path d="M109.169 143.497C109.722 143.497 110.17 143.049 110.17 142.496C110.17 141.943 109.722 141.495 109.169 141.495C108.616 141.495 108.167 141.943 108.167 142.496C108.167 143.049 108.616 143.497 109.169 143.497Z" stroke="#FFC700"/>
<path d="M2.06734 78.4355C2.62041 78.4355 3.06876 77.9871 3.06876 77.434C3.06876 76.881 2.62041 76.4326 2.06734 76.4326C1.51427 76.4326 1.06592 76.881 1.06592 77.434C1.06592 77.9871 1.51427 78.4355 2.06734 78.4355Z" stroke="#FFC700"/>
<path d="M106.667 6.36703C108.049 6.36703 109.17 5.24646 109.17 3.86418C109.17 2.48189 108.049 1.36133 106.667 1.36133C105.285 1.36133 104.164 2.48189 104.164 3.86418C104.164 5.24646 105.285 6.36703 106.667 6.36703Z" stroke="#FFC700"/>
<path fill-rule="evenodd" clip-rule="evenodd" d="M99.4555 63.4539C99.9963 63.1294 100.642 63.0264 101.257 63.1667C101.872 63.307 102.409 63.6796 102.755 64.2064L105.171 67.8834C105.486 68.3637 105.621 68.9396 105.552 69.5095C105.482 70.0793 105.214 70.6065 104.793 70.9979L104.785 71.0076L104.751 71.0392L104.612 71.1683L104.063 71.6919C101.025 74.6326 98.0786 77.6666 95.2287 80.7894C89.867 86.6725 83.4998 94.3723 79.2144 101.843C78.0185 103.928 75.0973 104.376 73.3646 102.576L57.5382 86.1685C57.3114 85.9333 57.1343 85.6549 57.0175 85.3501C56.9006 85.0452 56.8464 84.72 56.858 84.3938C56.8696 84.0676 56.9468 83.747 57.0851 83.4512C57.2233 83.1554 57.4197 82.8903 57.6627 82.6717L62.446 78.3664C62.8663 77.9883 63.4053 77.7677 63.9707 77.7424C64.5361 77.717 65.0928 77.8886 65.5454 78.2276L73.6208 84.2691C86.2356 71.8574 93.3885 67.0944 99.4555 63.4539Z" fill="#E97C22"/>
</g>
<defs>
<clipPath id="clip0_8010_2">
<rect width="165" height="147" fill="white"/>
</clipPath>
</defs>
</svg>
