<svg id="Layer_1" enable-background="new 0 0 512 512" viewBox="0 0 512 512" xmlns="http://www.w3.org/2000/svg"><path d="m506.141 348.578c-3.747 4.765-9.108 7.772-15.096 8.466l-55.019 6.541c-.325.039-.648.057-.967.057-4.05 0-7.55-3.029-8.04-7.151-.529-4.446 2.647-8.479 7.093-9.008l55.042-6.543c1.687-.196 3.185-1.041 4.241-2.385 1.066-1.354 1.544-3.035 1.348-4.73l-5.733-48.197c-13.131-.204-25.797-4.693-36.34-12.998-12.706-10.009-20.746-24.318-22.638-40.29-3.597-30.331 16.071-58.181 44.883-65.619l-5.711-48.197c-.2-1.673-1.056-3.186-2.41-4.252-1.349-1.063-3.005-1.54-4.672-1.337l-263.026 31.195c-4.452.525-8.478-2.65-9.006-7.096-.527-4.446 2.65-8.479 7.096-9.006l263.014-31.191c5.961-.72 11.869.954 16.625 4.698 4.754 3.744 7.765 9.098 8.479 15.075l6.602 55.71c.526 4.443-2.646 8.473-7.089 9.004-24.199 2.891-41.553 24.921-38.684 49.108 1.383 11.671 7.268 22.133 16.571 29.461 9.3 7.326 20.845 10.6 32.509 9.216 4.443-.533 8.476 2.648 9.005 7.093l6.629 55.731c.695 6-.977 11.903-4.706 16.645zm-88.277-172.692v56.105c0 4.478-3.629 8.107-8.107 8.107-24.377 0-44.209 19.833-44.209 44.209 0 24.361 19.832 44.18 44.209 44.18 4.478 0 8.107 3.629 8.107 8.107v56.134c0 12.461-10.138 22.599-22.599 22.599h-371.666c-12.461-.001-22.599-10.139-22.599-22.6v-56.134c0-4.478 3.629-8.107 8.107-8.107 24.361 0 44.181-19.819 44.181-44.18 0-24.377-19.819-44.209-44.181-44.209-4.478 0-8.107-3.629-8.107-8.107v-56.105c0-12.461 10.138-22.599 22.599-22.599h371.665c12.462.001 22.6 10.139 22.6 22.6zm-268.038 143.317v79.909h44.683v-79.909c0-2.865 1.512-5.518 3.978-6.977 15.744-9.318 25.523-26.438 25.523-44.679 0-12.882-4.877-25.204-13.287-34.614v26.665c0 2.899-1.548 5.577-4.059 7.024l-30.443 17.56c-2.506 1.446-5.593 1.447-8.102.003l-30.454-17.566c-2.508-1.448-4.054-4.125-4.054-7.021v-26.676c-8.41 9.405-13.287 21.732-13.287 34.625 0 18.256 9.778 35.374 25.518 44.676 2.47 1.459 3.984 4.113 3.984 6.98zm251.824-143.317c0-3.521-2.865-6.385-6.385-6.385h-83.381v19.988c0 4.478-3.629 8.107-8.107 8.107s-8.107-3.629-8.107-8.107v-19.988h-272.071c-3.521 0-6.385 2.864-6.385 6.385v48.54c29.483 3.974 52.288 29.313 52.288 59.882 0 30.553-22.805 55.88-52.288 59.852v48.568c0 3.521 2.865 6.385 6.385 6.385h110.013v-75.476c-18.309-12.628-29.501-33.706-29.501-56.089 0-23.964 12.83-46.432 33.484-58.636 2.507-1.48 5.615-1.503 8.142-.061 2.529 1.442 4.089 4.131 4.089 7.041v39.027l22.337 12.884 22.345-12.889v-39.022c0-2.912 1.562-5.601 4.092-7.042 2.529-1.443 5.638-1.418 8.145.065 20.651 12.222 33.479 34.688 33.479 58.633 0 22.367-11.193 43.444-29.501 56.086v75.479h84.946v-19.988c0-4.478 3.629-8.107 8.107-8.107s8.107 3.629 8.107 8.107v19.988h83.381c3.521 0 6.385-2.864 6.385-6.385v-48.568c-29.497-3.971-52.316-29.299-52.316-59.852 0-30.569 22.819-55.908 52.316-59.882v-48.54zm-97.874 45.931c-4.478 0-8.107 3.629-8.107 8.107v35.442c0 4.478 3.629 8.107 8.107 8.107s8.107-3.629 8.107-8.107v-35.442c0-4.477-3.629-8.107-8.107-8.107zm0 73.294c-4.478 0-8.107 3.629-8.107 8.107v35.442c0 4.478 3.629 8.107 8.107 8.107s8.107-3.629 8.107-8.107v-35.442c0-4.477-3.629-8.107-8.107-8.107z"/></svg>