<?xml version="1.0" encoding="UTF-8"?>
<svg id="Layer_1" data-name="Layer 1" xmlns="http://www.w3.org/2000/svg" viewBox="0 0 612.91 832.3">
  <defs>
    <style>
      .cls-1 {
        fill: #fff;
      }

      .cls-2 {
        fill: #e97d24;
      }

      .cls-3 {
        fill: #1d1d1b;
      }
    </style>
  </defs>
  <g>
    <path class="cls-2" d="M309.09,652.3c-159.29,0-288.88-129.59-288.88-288.87S149.8,74.55,309.09,74.55s288.88,129.59,288.88,288.88-129.59,288.87-288.88,288.87ZM309.09,115.98c-136.44,0-247.44,111-247.44,247.44s111,247.44,247.44,247.44,247.44-111,247.44-247.44-111-247.44-247.44-247.44Z"/>
    <path class="cls-2" d="M309.09,532.65c-86.23,0-156.38-70.15-156.38-156.38h41.43c0,63.38,51.57,114.95,114.95,114.95s114.95-51.57,114.95-114.95h41.43c0,86.23-70.15,156.38-156.38,156.38Z"/>
  </g>
  <path class="cls-3" d="M612.91,326.24v196.92l-10.8.02h-48.37c-6.9,16.95-21.43,31.24-38.72,36.69h0c-6.91,2.17-14.11,3.28-21.36,3.28h-135.23c-6.59,0-13.13-1.54-18.85-4.82-28.14-16.15-27.07-63.39,8.75-72.96,10.27-2.74,44.32-2.72,54.3.71,12.41,4.27,26.4,19.85,26.4,33.46v17.18h70.79c2.09,0,9.5-2.94,11.76-4.08,6.28-3.17,11.23-7.97,14.75-13.74l.02-.04v-.03c.4-1.64-.26-3.36-1.67-4.3-15.09-10.07-24.35-26.07-25.73-44.47-1.83-24.52-1.91-66.25.01-90.72,1.11-14.23,7.09-27.12,16.41-36.68.43-.44.87-.88,1.32-1.31,10.3-9.88,24.2-15.11,38.47-15.11h18.32c-.26-43.88-4.52-85.92-22.82-127.83C482.6,42.46,284.97-10.11,148.74,93.79c-68.21,52.02-101.71,127.29-104.93,212.42-.11,2.98-.17,5.96-.2,8.94-.03,3.66,0,7.33.05,11h12.54c8.26,0,16.5,1.09,24.45,3.35,1.42.41,2.63.79,3.42,1.13,19.46,8.22,32.26,27.91,33.89,48.83,1.89,24.02,2.06,67.91-.05,91.77-1.86,20.9-15.17,40.16-34.63,48.1-1.77.74-10.69,3.94-11.7,3.94H4.02v-184.89c0-4.01.01-8.01.04-12.02.03-3.74.08-7.47.15-11.21.56-29.16,2.64-58.17,9.81-86.62C45.78,102.51,159.74,8.01,289.2,0h4.78c22.43,0,44.83,1.47,67.07,4.4h0c124.76,21.2,226.42,122.74,247.11,248.02,4.07,24.6,4.74,49.14,4.75,73.82Z"/>
  <path class="cls-3" d="M4.06,326.36c-.03,4.01-.04,8.01-.04,12.02v-12.02h.04Z"/>
  <path class="cls-1" d="M83.09,786.55v45.75H0c3.57-1.27,7.43-1.64,11.07-2.79,18.55-5.85,33.36-23.66,36.17-42.89l35.86-.08Z"/>
</svg>