<svg width="28" height="29" viewBox="0 0 28 29" fill="none" xmlns="http://www.w3.org/2000/svg">
<path d="M4.6665 4.83325H11.6665V12.0833H4.6665V4.83325ZM16.3332 4.83325H23.3332V12.0833H16.3332V4.83325ZM4.6665 16.9166H11.6665V24.1666H4.6665V16.9166ZM16.3332 20.5416C16.3332 21.503 16.7019 22.425 17.3583 23.1048C18.0147 23.7847 18.9049 24.1666 19.8332 24.1666C20.7614 24.1666 21.6517 23.7847 22.308 23.1048C22.9644 22.425 23.3332 21.503 23.3332 20.5416C23.3332 19.5802 22.9644 18.6581 22.308 17.9783C21.6517 17.2985 20.7614 16.9166 19.8332 16.9166C18.9049 16.9166 18.0147 17.2985 17.3583 17.9783C16.7019 18.6581 16.3332 19.5802 16.3332 20.5416Z" stroke="#CCCCCC" stroke-width="2" stroke-linecap="round" stroke-linejoin="round"/>
</svg>
