<svg width="22" height="22" viewBox="0 0 22 22" fill="none" xmlns="http://www.w3.org/2000/svg">
<path d="M10.9998 11.4583C10.1489 11.4583 9.33288 11.7963 8.7312 12.398C8.12952 12.9996 7.7915 13.8157 7.7915 14.6666C7.7915 15.5175 8.12952 16.3335 8.7312 16.9352C9.33288 17.5369 10.1489 17.8749 10.9998 17.8749C11.8507 17.8749 12.6668 17.5369 13.2685 16.9352C13.8702 16.3335 14.2082 15.5175 14.2082 14.6666C14.2082 13.8157 13.8702 12.9996 13.2685 12.398C12.6668 11.7963 11.8507 11.4583 10.9998 11.4583ZM9.62484 14.6666C9.62484 14.3019 9.7697 13.9522 10.0276 13.6943C10.2854 13.4365 10.6352 13.2916 10.9998 13.2916C11.3645 13.2916 11.7142 13.4365 11.9721 13.6943C12.23 13.9522 12.3748 14.3019 12.3748 14.6666C12.3748 15.0313 12.23 15.381 11.9721 15.6389C11.7142 15.8967 11.3645 16.0416 10.9998 16.0416C10.6352 16.0416 10.2854 15.8967 10.0276 15.6389C9.7697 15.381 9.62484 15.0313 9.62484 14.6666Z" fill="black"/>
<path d="M16.0655 4.68959L13.1514 0.604004L2.4365 9.16384L1.8425 9.15742V9.16659H1.375V20.1666H20.625V9.16659H19.7432L17.9887 4.03417L16.0655 4.68959ZM17.8062 9.16659H8.61392L15.4605 6.83275L16.8557 6.38634L17.8062 9.16659ZM14.2542 5.30742L7.18667 7.71642L12.7838 3.24492L14.2542 5.30742ZM3.20833 16.6548V12.6765C3.59507 12.5395 3.94635 12.3178 4.23655 12.0278C4.52676 11.7377 4.74858 11.3866 4.88583 10.9999H17.1142C17.2514 11.3867 17.4732 11.738 17.7634 12.0282C18.0536 12.3184 18.4049 12.5402 18.7917 12.6774V16.6558C18.4049 16.793 18.0536 17.0147 17.7634 17.3049C17.4732 17.5951 17.2514 17.9465 17.1142 18.3333H4.88767C4.75034 17.9461 4.5283 17.5945 4.23777 17.3042C3.94724 17.0138 3.59553 16.792 3.20833 16.6548Z" fill="black"/>
</svg>
