<svg width="30" height="30" viewBox="0 0 30 30" fill="none" xmlns="http://www.w3.org/2000/svg">
<path fill-rule="evenodd" clip-rule="evenodd" d="M15.8254 2.43636C15.3679 1.97974 14.6055 1.97974 14.1481 2.43636L12.0223 4.55818C11.6127 4.96704 10.9485 4.96704 10.5389 4.55818C10.1293 4.14932 10.1293 3.48643 10.5389 3.07757L12.6647 0.955753C13.9414 -0.318585 16.032 -0.318585 17.3087 0.955753L19.4345 3.07757C19.4905 3.13347 19.6293 3.23089 19.8323 3.31491C20.0359 3.39917 20.2003 3.42702 20.2732 3.42702H23.28C25.09 3.42702 26.5666 4.90082 26.5666 6.70746V9.70871C26.5666 9.7815 26.5945 9.94555 26.6789 10.1488C26.7631 10.3514 26.8607 10.4899 26.9167 10.5458L29.0425 12.6676C30.3192 13.942 30.3192 16.0287 29.0425 17.3031L26.9167 19.4249C26.8607 19.4808 26.7631 19.6193 26.6789 19.8219C26.5945 20.0251 26.5666 20.1892 26.5666 20.262V23.2632C26.5666 25.0699 25.09 26.5437 23.28 26.5437C22.7007 26.5437 22.2311 26.0749 22.2311 25.4967C22.2311 24.9185 22.7007 24.4498 23.28 24.4498C23.9315 24.4498 24.4688 23.9134 24.4688 23.2632V20.262C24.4688 19.8322 24.5877 19.389 24.7411 19.0199C24.8946 18.6502 25.1257 18.2513 25.4333 17.9443L27.5591 15.8224C28.0166 15.3658 28.0166 14.6049 27.5591 14.1482L25.4333 12.0264C25.1257 11.7194 24.8946 11.3204 24.7411 10.9508C24.5877 10.5816 24.4688 10.1385 24.4688 9.70871V6.70746C24.4688 6.05725 23.9315 5.52092 23.28 5.52092H20.2732C19.8426 5.52092 19.3986 5.40219 19.0288 5.24914C18.6584 5.09585 18.2588 4.86523 17.9511 4.55818L15.8254 2.43636ZM6.71997 5.55023C6.06855 5.55023 5.53121 6.08657 5.53121 6.73677V9.73803C5.53121 10.1678 5.41226 10.611 5.25892 10.9801C5.10535 11.3498 4.8743 11.7487 4.56668 12.0557L2.44091 14.1776C1.98344 14.6342 1.98344 15.3951 2.44091 15.8518L4.56668 17.9736C4.8743 18.2806 5.10535 18.6796 5.25892 19.0492C5.41226 19.4184 5.53121 19.8615 5.53121 20.2913V23.2925C5.53121 23.9427 6.06855 24.4791 6.71997 24.4791H9.72682C10.1574 24.4791 10.6014 24.5978 10.9712 24.7509C11.3416 24.9041 11.7412 25.1348 12.0489 25.4418L14.1746 27.5636C14.6321 28.0203 15.3945 28.0203 15.8519 27.5636L17.9777 25.4418C18.3873 25.033 19.0515 25.033 19.4611 25.4418C19.8707 25.8507 19.8707 26.5136 19.4611 26.9224L17.3353 29.0442C16.0586 30.3186 13.968 30.3186 12.6913 29.0442L10.5655 26.9224C10.5095 26.8665 10.3707 26.7691 10.1677 26.6851C9.9641 26.6008 9.79974 26.573 9.72682 26.573H6.71997C4.90996 26.573 3.43341 25.0992 3.43341 23.2925V20.2913C3.43341 20.2185 3.40551 20.0544 3.32109 19.8512C3.23691 19.6486 3.13931 19.5101 3.08331 19.4542L0.957536 17.3324C-0.319178 16.058 -0.319179 13.9713 0.957535 12.6969L3.08331 10.5751L3.825 11.3154L3.08331 10.5751C3.13931 10.5192 3.23691 10.3807 3.32109 10.1781C3.40551 9.97487 3.43341 9.81081 3.43341 9.73803V6.73677C3.43341 4.93014 4.90996 3.45633 6.71997 3.45633C7.29926 3.45633 7.76887 3.92507 7.76887 4.50328C7.76887 5.08149 7.29926 5.55023 6.71997 5.55023ZM18.4546 10.0726C18.8642 9.66373 19.5284 9.66373 19.938 10.0726C20.3476 10.4815 20.3476 11.1443 19.938 11.5532L11.5468 19.9288C11.1372 20.3377 10.473 20.3377 10.0634 19.9288C9.65378 19.5199 9.65378 18.8571 10.0634 18.4482L18.4546 10.0726Z" fill="#ED7F26"/>
</svg>
