<svg width="24" height="25" viewBox="0 0 24 25" fill="none" xmlns="http://www.w3.org/2000/svg">
<path fill-rule="evenodd" clip-rule="evenodd" d="M15.1093 0.81539C15.3167 0.707954 15.5569 0.690242 15.777 0.766148C15.9971 0.842053 16.1791 1.00536 16.2829 1.22018L18.3981 5.6016C18.8974 5.62818 19.3513 5.66806 19.7631 5.72968C20.9951 5.91214 22.0148 6.30606 22.7393 7.23406C23.4638 8.16327 23.6224 9.27735 23.5373 10.563C23.4556 11.8088 23.1289 13.3808 22.7229 15.3444L22.1968 17.8903C21.9226 19.2159 21.6998 20.2901 21.4198 21.1287C21.1281 22.0047 20.7431 22.7237 20.0874 23.2735C19.4318 23.8233 18.6711 24.0613 17.7844 24.1737C16.9328 24.2812 15.8711 24.2812 14.5644 24.2812H9.43576C8.12676 24.2812 7.06626 24.2812 6.21459 24.1737C5.32792 24.0613 4.56726 23.8233 3.91159 23.2735C3.25476 22.7237 2.87092 22.0047 2.57926 21.1299C2.29926 20.2901 2.07759 19.2159 1.80226 17.8916L1.27609 15.3456C0.870089 13.3808 0.544589 11.8088 0.461756 10.563C0.376589 9.27735 0.535256 8.16327 1.25976 7.23406C1.98309 6.30606 3.00276 5.91214 4.23476 5.72968C4.64659 5.66927 5.10159 5.62818 5.59976 5.6016L7.71842 1.22018C7.82316 1.00707 8.00497 0.845468 8.22425 0.770595C8.44353 0.695722 8.68249 0.713646 8.88906 0.820461C9.09563 0.927277 9.25307 1.11433 9.32707 1.34084C9.40106 1.56736 9.38561 1.81499 9.28409 2.02977L7.58076 5.55447C8.00542 5.55206 8.45226 5.55206 8.92126 5.55206H15.0789C15.5479 5.55206 15.9948 5.55206 16.4194 5.55447L14.7173 2.02977C14.6135 1.81488 14.5964 1.56612 14.6697 1.33818C14.743 1.11023 14.9007 0.92176 15.1081 0.814182M4.68742 7.49506L4.21726 8.46897C4.16487 8.57556 4.13338 8.69184 4.12459 8.8111C4.1158 8.93035 4.12989 9.05023 4.16605 9.16382C4.2022 9.27741 4.25971 9.38246 4.33526 9.47292C4.4108 9.56338 4.50289 9.63746 4.60621 9.69089C4.70952 9.74431 4.82203 9.77602 4.93724 9.7842C5.05245 9.79237 5.16808 9.77685 5.27747 9.73852C5.38686 9.70019 5.48784 9.63981 5.57459 9.56087C5.66134 9.48193 5.73215 9.38598 5.78292 9.27856L6.70109 7.37664C7.36609 7.36456 8.12442 7.36335 8.99242 7.36335H15.0078C15.8758 7.36335 16.6341 7.36335 17.2991 7.37543L18.2173 9.27856C18.322 9.49167 18.5038 9.65327 18.7231 9.72814C18.9424 9.80302 19.1813 9.78509 19.3879 9.67828C19.5945 9.57146 19.7519 9.38441 19.8259 9.15789C19.8999 8.93138 19.8844 8.68375 19.7829 8.46897L19.3128 7.49506L19.5158 7.52285C20.5471 7.67631 21.0523 7.95543 21.3789 8.37231C21.7056 8.79039 21.8619 9.36193 21.7908 10.4386C21.7184 11.5381 21.4221 12.9833 20.9974 15.0363L20.4958 17.4529C20.2076 18.8486 20.0058 19.814 19.7654 20.5366C19.5321 21.2374 19.2941 21.6072 18.9873 21.8633C18.6816 22.1195 18.2814 22.2838 17.5733 22.3733C16.8394 22.4663 15.8851 22.4675 14.5073 22.4675H9.49176C8.11509 22.4675 7.16076 22.4663 6.42692 22.3733C5.71759 22.2838 5.31859 22.1195 5.01292 21.8633C4.70609 21.6072 4.46692 21.2362 4.23476 20.5366C3.99326 19.814 3.79142 18.8486 3.50326 17.4529L3.00276 15.0363C2.57809 12.9821 2.28176 11.5393 2.20942 10.4386C2.13826 9.36193 2.29576 8.79039 2.62126 8.37231C2.94792 7.95543 3.45309 7.67631 4.48442 7.52285L4.68742 7.49506Z" fill="#CCCCCC"/>
</svg>
