<svg id="Layer_1" data-name="Layer 1" xmlns="http://www.w3.org/2000/svg" viewBox="0 0 331.1 72.74"><defs><style>.cls-1{fill:red;}.cls-2{fill:#ff8000;}.cls-3{fill:#17599d;}.cls-4{fill:#f7a619;}</style></defs><title>verified</title><path class="cls-1" d="M474.47,230.75a3.31,3.31,0,1,1,3.31,3.47A3.4,3.4,0,0,1,474.47,230.75Zm3.31,2.65a2.65,2.65,0,1,0-2.52-2.65A2.59,2.59,0,0,0,477.78,233.4Zm-0.45-1.13h-0.68v-3.06h1.23a1.27,1.27,0,0,1,.75.17,1,1,0,0,1,.37.77,0.81,0.81,0,0,1-.5.77l0.53,1.35h-0.75l-0.45-1.2h-0.5v1.2Zm0-1.72h0.38a0.83,0.83,0,0,0,.42-0.06,0.42,0.42,0,0,0,.17-0.35,0.37,0.37,0,0,0-.17-0.31,0.86,0.86,0,0,0-.42-0.05h-0.37v0.78Z" transform="translate(-152.98 -201.09)"/><path class="cls-1" d="M427.23,207.66l-0.9,5.89a10.11,10.11,0,0,0-5-1.46c-4.12,0-7,4.18-7,10.16,0,4.13,2,6.61,5.17,6.61a10.2,10.2,0,0,0,4.7-1.4l-1,6.2a16.38,16.38,0,0,1-4.88.79c-6,0-9.67-4.5-9.67-11.71,0-9.71,5.12-16.49,12.45-16.49a9.08,9.08,0,0,1,2.48.29l2.28,0.6C426.58,207.41,426.73,207.45,427.23,207.66Z" transform="translate(-152.98 -201.09)"/><path class="cls-1" d="M408.88,211.7a3,3,0,0,0-.56-0.06c-1.82,0-2.85,1-4.54,3.59l0.49-3.35h-5L395.86,234h5.55c2-13.49,2.49-15.82,5.16-15.82a2.78,2.78,0,0,1,.4,0,22,22,0,0,1,2.09-6.4Z" transform="translate(-152.98 -201.09)"/><path class="cls-1" d="M375.78,233.68a12.08,12.08,0,0,1-4,.73c-2.82,0-4.36-1.72-4.36-4.86a12.57,12.57,0,0,1,.16-2l0.34-2.15,0.25-1.76,2.4-15.06h5.5l-0.63,3.27h2.83l-0.78,5.37H374.7l-1.46,9.21c0,0.41-.09.71-0.09,0.91,0,1.13.58,1.63,1.88,1.63a4.29,4.29,0,0,0,1.49-.2Z" transform="translate(-152.98 -201.09)"/><path class="cls-1" d="M354,218.86c0,2.79,1.28,4.71,4.19,6.15,2.23,1.11,2.58,1.43,2.58,2.43,0,1.37-1,2-3.16,2a14.63,14.63,0,0,1-4.94-.88l-0.76,5.09,0.25,0.05,1,0.22c0.33,0.07.81,0.13,1.44,0.2,1.32,0.12,2.33.18,3,.18,5.8,0,8.48-2.34,8.48-7.37a6,6,0,0,0-3.88-6.14c-2.31-1.1-2.57-1.36-2.57-2.38,0-1.2.91-1.81,2.69-1.81a30.29,30.29,0,0,1,4,.33l0.79-5.1a34.45,34.45,0,0,0-4.85-.44C356.1,211.4,354,214.79,354,218.86Z" transform="translate(-152.98 -201.09)"/><path class="cls-1" d="M471.26,234H466l0.27-2.16a6.41,6.41,0,0,1-5.11,2.45c-4,0-6.69-3.64-6.69-9.16,0-7.34,4.12-13.54,9-13.54,2.15,0,3.77.93,5.3,3l1.2-7.75h5.45Zm-8.16-5.2c2.58,0,4.39-3.07,4.39-7.44,0-2.81-1-4.33-2.94-4.33-2.51,0-4.29,3.08-4.29,7.42C460.27,227.3,461.22,228.76,463.1,228.76Z" transform="translate(-152.98 -201.09)"/><path class="cls-1" d="M393.29,233.49a18.31,18.31,0,0,1-5.68.89c-6.16,0-9.39-3.39-9.39-9.88,0-7.58,4.1-13.17,9.67-13.17,4.54,0,7.46,3.13,7.46,8a24.28,24.28,0,0,1-.69,5.44h-11a4.39,4.39,0,0,0-.05.68c0,2.58,1.64,3.88,4.86,3.88a12.47,12.47,0,0,0,5.73-1.4Zm-3.1-13.14c0-.46,0-0.84,0-1.12,0-1.8-1-2.86-2.62-2.86s-3,1.41-3.52,4Z" transform="translate(-152.98 -201.09)"/><polygon class="cls-1" points="178.82 32.87 173.3 32.87 176.46 12.01 169.39 32.87 165.61 32.87 165.15 12.13 161.82 32.87 156.64 32.87 160.96 5.72 168.92 5.72 169.14 22.52 174.51 5.72 183.1 5.72 178.82 32.87"/><path class="cls-1" d="M346,224.12a9.29,9.29,0,0,0-1.24-.09c-3.13,0-4.72,1.14-4.72,3.37a2,2,0,0,0,2,2.25C344.31,229.65,345.94,227.4,346,224.12Zm4,9.83h-4.58l0.1-2.29a6.75,6.75,0,0,1-5.79,2.67c-3,0-5.06-2.46-5.06-6,0-5.39,3.59-8.52,9.72-8.52a16.76,16.76,0,0,1,2.25.16,5.69,5.69,0,0,0,.22-1.43c0-1.46-1-2-3.55-2a16.63,16.63,0,0,0-4.6.63l-0.77.22-0.48.14,0.76-5a21,21,0,0,1,6.63-1.19c4.75,0,7.27,2.24,7.27,6.47a26.24,26.24,0,0,1-.46,4.38l-1.16,7.82-0.19,1.41-0.14,1.12-0.1.77Z" transform="translate(-152.98 -201.09)"/><path class="cls-1" d="M436.75,224.12a9.19,9.19,0,0,0-1.23-.09c-3.14,0-4.74,1.14-4.74,3.37a2,2,0,0,0,2,2.25C435,229.65,436.65,227.4,436.75,224.12Zm4,9.83h-4.59l0.11-2.29a6.75,6.75,0,0,1-5.79,2.67c-3,0-5.07-2.46-5.07-6,0-5.39,3.58-8.52,9.72-8.52a16.76,16.76,0,0,1,2.25.16,5.88,5.88,0,0,0,.22-1.43c0-1.46-1-2-3.55-2a16.47,16.47,0,0,0-4.59.63l-0.79.22-0.48.14,0.77-5a21,21,0,0,1,6.61-1.19c4.76,0,7.28,2.24,7.28,6.47a28.42,28.42,0,0,1-.45,4.38l-1.16,7.82-0.17,1.41-0.15,1.12-0.1.77Z" transform="translate(-152.98 -201.09)"/><path class="cls-1" d="M456.22,211.7a2.77,2.77,0,0,0-.56-0.06c-1.81,0-2.85,1-4.55,3.59l0.49-3.35h-5L443.22,234h5.54c2-13.49,2.51-15.82,5.15-15.82a1.42,1.42,0,0,1,.39,0,22.14,22.14,0,0,1,2.11-6.4Z" transform="translate(-152.98 -201.09)"/><path class="cls-2" d="M433,255.36c0,5-1.55,8-4,8-1.78.05-2.86-1.93-2.86-4.9,0-3.51,1.58-7.49,4.11-7.49C432.32,250.91,433,253.07,433,255.36Zm5.44,0.09c0-5.56-2.75-9.89-7.91-9.89-5.95,0-9.8,5.26-9.8,13,0,5.55,2.28,10.08,7.91,10.08S438.46,264.64,438.46,255.45Z" transform="translate(-152.98 -201.09)"/><path class="cls-2" d="M422.52,241.66l-0.85,5.88a9.07,9.07,0,0,0-4.62-1.47c-3.86,0-6.56,4.2-6.56,10.17,0,4.12,1.81,6.62,4.82,6.62a9,9,0,0,0,4.39-1.4l-0.9,6.19a14.44,14.44,0,0,1-4.58.79c-5.57,0-9-4.5-9-11.72,0-9.71,4.79-16.49,11.64-16.49a8.78,8.78,0,0,1,2.32.29l2.11,0.6C421.93,241.38,422.06,241.43,422.52,241.66Z" transform="translate(-152.98 -201.09)"/><path class="cls-2" d="M388.34,245.7a2,2,0,0,0-.53-0.06c-1.68,0-2.66,1-4.23,3.59l0.46-3.35h-4.67l-3.16,22.07h5.16c1.86-13.5,2.35-15.83,4.82-15.83a2.23,2.23,0,0,1,.38,0,23.24,23.24,0,0,1,2-6.41Z" transform="translate(-152.98 -201.09)"/><path class="cls-2" d="M455.77,267.71h-4.88l0.25-2.15a5.89,5.89,0,0,1-4.78,2.45c-3.76,0-6.25-3.65-6.25-9.17,0-7.33,3.85-13.54,8.41-13.54,2,0,3.54,1,4.95,3l1.14-7.76h5.08Zm-7.63-5.19c2.43,0,4.11-3.06,4.11-7.44,0-2.81-1-4.32-2.73-4.32-2.35,0-4,3.07-4,7.43C445.5,261.06,446.39,262.52,448.14,262.52Z" transform="translate(-152.98 -201.09)"/><path class="cls-2" d="M339.93,267.62a15.85,15.85,0,0,1-5.29.9c-5.77,0-8.77-3.4-8.77-9.89,0-7.57,3.83-13.16,9-13.16,4.25,0,7,3.12,7,8a27,27,0,0,1-.63,5.45H330.95c0,0.33,0,.49,0,0.69,0,2.57,1.54,3.87,4.54,3.87a11.1,11.1,0,0,0,5.36-1.4ZM337,254.49c0-.47,0-0.84,0-1.12,0-1.8-.91-2.85-2.44-2.85s-2.82,1.42-3.29,4Z" transform="translate(-152.98 -201.09)"/><path class="cls-2" d="M401.34,267.62a15.9,15.9,0,0,1-5.29.9c-5.78,0-8.78-3.4-8.78-9.89,0-7.57,3.83-13.16,9-13.16,4.26,0,7,3.12,7,8a26.16,26.16,0,0,1-.65,5.45H392.35c0,0.33,0,.49,0,0.69,0,2.57,1.54,3.87,4.53,3.87a11.11,11.11,0,0,0,5.37-1.4Zm-2.9-13.13c0-.47.05-0.84,0.05-1.12,0-1.8-.91-2.85-2.44-2.85s-2.82,1.42-3.3,4Z" transform="translate(-152.98 -201.09)"/><path class="cls-2" d="M473.38,267.62a16,16,0,0,1-5.3.9c-5.77,0-8.78-3.4-8.78-9.89,0-7.57,3.84-13.16,9-13.16,4.25,0,7,3.12,7,8a26,26,0,0,1-.63,5.45H464.38a5.92,5.92,0,0,0,0,.69c0,2.57,1.54,3.87,4.54,3.87a11.11,11.11,0,0,0,5.37-1.4Zm-2.9-13.13c0-.47,0-0.84,0-1.12,0-1.8-.9-2.85-2.44-2.85s-2.82,1.42-3.29,4Z" transform="translate(-152.98 -201.09)"/><path class="cls-2" d="M324.65,246.7a7.48,7.48,0,0,0-4.31-1.27c-2.09,0-3.77.43-3.77,2.65,0,3.92,7.61,2.46,7.61,10.85,0,7.65-5,9.63-9.57,9.63a16.08,16.08,0,0,1-6.06-1.43l1.23-5.62a8,8,0,0,0,4.83,1.58c1.63,0,4.17-.44,4.17-3.28,0-4.44-7.61-2.79-7.61-10.59,0-7.13,4.44-9.27,8.73-9.27,2.41,0,4.68.35,6,1.24Z" transform="translate(-152.98 -201.09)"/><path class="cls-2" d="M355,267.61a10.37,10.37,0,0,1-4.59.85c-4.51,0-7.31-4.51-7.31-10,0-7.19,4-12.92,10-12.92A10.89,10.89,0,0,1,358,247l-1.14,5.27a6.33,6.33,0,0,0-3.45-1.19c-2.76,0-4.73,2.53-4.73,7.06,0,2.61,1.43,4.75,3.69,4.75a6.21,6.21,0,0,0,3.45-1Z" transform="translate(-152.98 -201.09)"/><path class="cls-2" d="M374.36,262.09c-0.27,1.9-.51,3.74-0.66,5.72h-5l0.42-3.57h0c-1.56,2.42-3.17,4.07-6,4.07-3.12,0-4.81-3.28-4.81-7.57a27.83,27.83,0,0,1,.42-4.62l1.41-10.22h5.53l-1.48,10.25a24.5,24.5,0,0,0-.36,3.33c0,1.29.59,2.6,2.08,2.52,2.27,0,3.61-2.77,4-6l1.53-10.09h5.35Z" transform="translate(-152.98 -201.09)"/><path class="cls-2" d="M478.54,267.54H477.7v-3.66h-1.21V263.1h3.25v0.79h-1.21v3.66Z" transform="translate(-152.98 -201.09)"/><path class="cls-2" d="M484.08,267.54H483.3v-3.71h0l-0.75,3.71h-0.82L481,263.83h0v3.71H480.2V263.1h1.22l0.72,3.5h0l0.71-3.5h1.21v4.45Z" transform="translate(-152.98 -201.09)"/><polygon class="cls-3" points="86.11 66.95 89.35 47.99 94.53 47.99 91.29 66.95 86.11 66.95"/><path class="cls-3" d="M263,249.55a13.87,13.87,0,0,0-4.63-.78c-5.12,0-8.7,2.57-8.73,6.25,0,2.72,2.57,4.24,4.52,5.16s2.69,1.52,2.67,2.35c0,1.28-1.59,1.86-3.09,1.86a10.92,10.92,0,0,1-4.86-1l-0.68-.31-0.7,4.23a15.9,15.9,0,0,0,5.75,1c5.44,0,8.94-2.54,9-6.48,0-2.14-1.36-3.79-4.34-5.16-1.8-.86-2.9-1.44-2.9-2.33s0.94-1.64,3-1.64a9.28,9.28,0,0,1,3.87.73l0.47,0.22,0.7-4.12h0Z" transform="translate(-152.98 -201.09)"/><path class="cls-3" d="M276.27,249.1h-4a2.6,2.6,0,0,0-2.72,1.57l-7.66,17.39h5.41s0.89-2.35,1.1-2.85H275c0.16,0.66.63,2.85,0.63,2.85h4.78l-4.16-19h0Zm-6.38,12.21L272,256c-0.05,0,.42-1.1.68-1.81l0.34,1.63s1,4.52,1.2,5.46h-4.29Z" transform="translate(-152.98 -201.09)"/><path class="cls-3" d="M234.78,249.1L229.71,262l-0.53-2.62a14.84,14.84,0,0,0-7.16-8L226.65,268h5.46l8.13-18.93h-5.46Z" transform="translate(-152.98 -201.09)"/><path class="cls-4" d="M225,249.08h-8.34l0,0.42c6.46,1.57,10.77,5.36,12.55,9.91l-1.83-8.7a2.17,2.17,0,0,0-2.33-1.62h0Z" transform="translate(-152.98 -201.09)"/><polygon class="cls-3" points="60.68 21.45 66.22 21.45 62.81 42.97 57.27 42.97 60.68 21.45"/><path class="cls-3" d="M194.44,222.54h8.49c5.4,0,6.8,3.11,6.21,6.83a7.2,7.2,0,0,1-5.61,5.91l5.38,8.78h-7l-4-8.45-1.34,8.45H191l3.42-21.51h0Zm4.86,4.28-0.86,5.4h1.6a3.4,3.4,0,0,0,3.28-2.7h0a2.29,2.29,0,0,0-2.39-2.7h-1.64Z" transform="translate(-152.98 -201.09)"/><polygon class="cls-3" points="86 21.45 91.54 21.45 88.13 42.97 82.58 42.97 86 21.45"/><polygon class="cls-3" points="95.75 21.45 107.93 21.45 107.19 26.13 100.56 26.13 99.97 29.81 106.27 29.81 105.53 34.49 99.23 34.49 98.63 38.29 105.26 38.29 104.52 42.97 92.34 42.97 95.75 21.45"/><polygon class="cls-3" points="26 21.45 38.17 21.45 37.43 26.13 30.8 26.13 30.21 29.81 36.52 29.81 35.77 34.49 29.47 34.49 28.87 38.29 35.5 38.29 34.75 42.97 22.58 42.97 26 21.45"/><polygon class="cls-3" points="70.42 21.45 82.73 21.45 81.98 26.13 75.22 26.13 74.63 29.81 80.79 29.81 80.04 34.49 73.89 34.49 72.54 42.97 67 42.97 70.42 21.45"/><path class="cls-3" d="M271.4,222.54h-7.23l-3.41,21.51H268c6.93,0,12.34-4.68,13.31-10.75C282,229.05,280,222.54,271.4,222.54Zm4.16,10.55c-0.61,3.87-3.4,6.29-7,6.29H267L269,227.22h1.14C274.36,227.22,276,230.21,275.55,233.09Z" transform="translate(-152.98 -201.09)"/><path class="cls-3" d="M153,219.61h10.26l1.22,15.63c6.79-11.75,13.68-23,20.63-34.15h3.34c-7.36,14.18-14.62,28.46-21.65,43h-7.53l-1.84-17.23c-0.46-4.28-1.32-6.09-4.44-6.56v-0.65h0Z" transform="translate(-152.98 -201.09)"/><polygon class="cls-4" points="3.88 9.64 12.63 13.34 13.39 23.08 14.04 23.08 21.98 9.64 21.98 8.97 3.88 8.97 3.88 9.64"/><polygon class="cls-3" points="50.46 55.2 54.77 55.2 56.69 61.21 60.44 55.2 64.6 55.2 53.68 72.74 49.51 72.74 54.12 65.35 50.46 55.2"/><path class="cls-3" d="M198.87,256a5.27,5.27,0,0,0-3.68,1.6l1.21-8.48h-3.59L190.12,268h3.59l0.19-1.34a3.53,3.53,0,0,0,3.13,1.71c2.88,0,5.6-2.78,6.1-6.2S201.75,256,198.87,256Zm0.44,6.18a3.07,3.07,0,0,1-2.79,2.71,2.18,2.18,0,0,1-2-2.71,3.07,3.07,0,0,1,2.79-2.71A2.18,2.18,0,0,1,199.31,262.18Z" transform="translate(-152.98 -201.09)"/></svg>