<svg width="161" height="167" viewBox="0 0 161 167" fill="none" xmlns="http://www.w3.org/2000/svg">
<path d="M28.993 33.4377C30.0029 33.059 30.634 31.9229 30.2553 30.913C29.8766 29.9031 28.7405 29.2719 27.7306 29.6506C26.7207 30.0293 26.0896 31.1655 26.4683 32.1754C26.7207 33.1852 27.8569 33.8164 28.993 33.4377Z" fill="#F1F3FA"/>
<path d="M27.7306 140.107C28.488 139.35 28.6143 138.214 27.8569 137.456C27.0994 136.699 25.9633 136.573 25.2059 137.33C24.4485 138.087 24.3223 139.223 25.0797 139.981C25.8371 140.738 26.9732 140.865 27.7306 140.107Z" fill="#F1F3FA"/>
<path d="M75.4477 146.293C107.89 146.293 134.274 120.036 134.274 87.7192C134.147 55.2766 107.89 29.0195 75.4477 29.0195C42.8789 29.0195 16.6218 55.2766 16.6218 87.593C16.6218 120.036 42.8789 146.293 75.4477 146.293Z" fill="#F1F3FA"/>
<path d="M114.487 57.4016V61.938H114.138H109.718L41.9036 61.7054C40.6241 61.7054 39.3446 61.4728 38.0651 61.1238C37.9488 61.1238 37.8324 61.0075 37.7161 61.0075C36.0877 60.4259 34.6918 59.728 33.5286 58.5648C32.5981 57.6342 31.9001 56.2384 31.9001 54.9589C31.9001 52.5161 33.8776 50.655 36.6693 49.4918C37.5998 49.0266 38.763 48.7939 39.9262 48.6776C40.3915 48.6776 40.8568 48.5613 41.322 48.5613H105.647C106.345 48.5613 106.926 48.6776 107.508 48.7939C107.973 48.9102 108.438 49.0266 108.904 49.2592C112.277 50.655 114.487 53.6793 114.487 57.4016Z" fill="url(#paint0_linear_6006_1069)"/>
<path opacity="0.1" d="M114.138 61.938H109.718L41.9036 61.7054C40.6241 61.7054 39.3445 61.4727 38.065 61.1238C37.9487 61.1238 37.8324 61.0074 37.7161 61.0074C36.0876 60.4258 34.6918 59.7279 33.5286 58.5647C34.3428 57.7505 35.3897 57.0526 36.6692 56.5873C37.5998 56.122 38.763 55.8894 39.9261 55.7731C40.3914 55.6567 40.8567 55.6567 41.322 55.6567H105.647C106.345 55.6567 106.926 55.7731 107.508 55.8894C107.973 56.0057 108.438 56.122 108.904 56.3547C111.463 57.4015 113.324 59.4953 114.138 61.938Z" fill="#989FB0"/>
<g filter="url(#filter0_d_6006_1069)">
<path d="M122.746 69.0337V126.147C122.746 130.102 119.605 133.242 115.65 133.242H47.1381C41.4385 133.242 37.0183 130.567 34.2266 128.357C32.9471 127.31 32.1329 125.681 32.1329 124.053C32.1329 123.239 32.1329 122.424 32.1329 121.61C32.1329 120.447 32.1329 119.051 32.1329 117.655C32.1329 111.141 32.1329 102.417 32.0166 93.5771C32.0166 92.2976 32.0166 91.0181 32.0166 89.6223C32.0166 84.9695 32.0166 80.3167 31.9003 75.8966C31.9003 74.617 31.9003 73.3375 31.9003 71.9417C31.9003 63.2177 31.7839 56.7038 31.7839 55.1917C31.7839 57.7507 34.2266 60.0771 37.4836 61.0076C37.5999 61.0076 37.7162 61.124 37.8326 61.124C38.9958 61.4729 40.3916 61.7056 41.6711 61.7056L109.485 62.0545H114.371H115.534C119.605 61.9382 122.746 65.0788 122.746 69.0337Z" fill="url(#paint1_linear_6006_1069)"/>
</g>
<path opacity="0.1" d="M109.02 88.459C106.577 88.459 104.484 89.3895 102.971 90.9017C101.459 92.4139 100.412 94.6239 100.412 96.9503C100.412 97.0666 100.412 97.2993 100.412 97.4156C100.645 101.952 104.484 105.558 109.02 105.558H122.746V88.459H109.02Z" fill="url(#paint2_linear_6006_1069)"/>
<g filter="url(#filter1_d_6006_1069)">
<path d="M122.746 85.2019V87.2957C122.629 87.2957 122.513 87.2957 122.28 87.2957H108.322C105.879 87.2957 103.786 88.2262 102.273 89.7384C100.878 91.1342 99.8307 93.228 99.7144 95.438C99.7144 95.5544 99.7144 95.787 99.7144 95.9033C99.7144 100.672 103.553 104.511 108.322 104.511H122.28C122.978 104.511 123.56 104.278 123.793 103.929C123.909 103.813 124.025 103.58 124.025 103.464V86.2488C124.025 85.6672 123.444 85.3182 122.746 85.2019Z" fill="url(#paint3_linear_6006_1069)"/>
</g>
<path d="M107.624 101.022C110.416 101.022 112.742 98.6951 112.742 95.9035C112.742 93.1118 110.416 90.7854 107.624 90.7854C104.832 90.7854 102.506 93.1118 102.506 95.9035C102.506 98.6951 104.832 101.022 107.624 101.022Z" fill="#F1F3FA"/>
<path d="M62.9796 100.545C64.9015 100.545 66.5277 98.9191 66.5277 96.9972C66.5277 95.0752 64.9015 93.449 62.9796 93.449C61.0576 93.449 59.4314 95.0752 59.4314 96.9972C59.4314 98.9191 61.0576 100.545 62.9796 100.545Z" fill="#989FB0"/>
<path d="M90.1822 100.545C92.1041 100.545 93.7304 98.9191 93.7304 96.9972C93.7304 95.0752 92.1041 93.449 90.1822 93.449C88.2603 93.449 86.634 95.0752 86.634 96.9972C86.634 99.0669 88.2603 100.545 90.1822 100.545Z" fill="#989FB0"/>
<path d="M62.8408 85.2583L55.0356 89.4727L56.0892 91.4239L63.8944 87.2096L62.8408 85.2583Z" fill="#989FB0"/>
<path d="M89.6996 85.2021L88.6462 87.1536L96.4522 91.367L97.5056 89.4155L89.6996 85.2021Z" fill="#989FB0"/>
<path d="M76.5807 108.824C78.8669 108.824 80.7203 107.434 80.7203 105.72C80.7203 104.005 78.8669 102.615 76.5807 102.615C74.2945 102.615 72.4412 104.005 72.4412 105.72C72.4412 107.434 74.2945 108.824 76.5807 108.824Z" fill="#989FB0"/>
<path d="M137.511 19.6489C125.966 17.1171 113.611 17.5222 102.269 20.8641C99.9397 21.573 97.4079 22.4845 95.585 24.1048C92.7494 26.434 91.5342 30.5862 92.4456 34.1306C93.3571 37.6751 96.3952 40.612 100.142 41.3209C102.471 41.9285 105.307 41.1183 106.725 39.1942C108.041 37.1688 107.738 34.1306 106.117 32.3078C104.497 30.2823 101.864 29.4722 99.4333 29.5734C97.0028 29.6747 94.5723 30.5862 92.4456 31.7001C85.5592 35.4472 79.9893 42.0298 77.6601 49.7264C76.4793 53.4654 76.0634 57.3956 76.3658 61.2616" stroke="#D5DAE5" stroke-width="2" stroke-miterlimit="10" stroke-dasharray="4 4"/>
<path d="M143.587 17.0158C143.486 18.5348 143.385 19.9526 142.271 20.2564C141.157 20.5602 140.65 19.5475 139.942 18.1297C139.233 16.8132 139.638 15.3954 140.853 15.0916C141.967 14.7878 143.79 15.1929 143.587 17.0158Z" fill="#D5DAE5"/>
<path d="M142.372 24.3074C142.676 22.4846 142.98 21.4719 141.967 20.9655C140.853 20.4592 140.144 21.3706 138.929 22.5858C137.916 23.6998 138.524 25.3202 139.537 25.8265C140.752 26.4341 142.068 25.8265 142.372 24.3074Z" fill="#D5DAE5"/>
<path d="M143.79 20.9655C143.689 21.6744 143.182 22.1808 142.474 22.2821C142.17 22.2821 141.866 22.2821 141.461 22.2821C140.043 22.0795 138.929 21.1681 139.03 20.2567C139.132 19.3452 140.448 18.8389 142.068 19.0414C142.372 19.0414 142.676 19.1427 142.879 19.2439C143.486 19.4465 143.891 20.1554 143.79 20.9655C143.79 20.9655 143.79 20.8643 143.79 20.9655Z" fill="#989FB0"/>
<path d="M32.3052 36.2056C32.3052 34.484 32.3052 32.7624 33.5204 32.256C34.837 31.7497 35.5458 32.9649 36.5586 34.6865C37.47 36.2056 37.0649 37.8259 35.7484 38.3323C34.6344 38.8386 32.3052 38.5348 32.3052 36.2056Z" fill="#D5DAE5"/>
<path d="M33.0141 27.6991C32.8115 29.8258 32.5077 31.041 33.8242 31.5474C35.1408 32.0538 35.8497 30.9398 37.1662 29.3194C38.1789 27.9016 37.47 26.0788 36.1535 25.5724C34.837 25.0661 33.2166 25.9775 33.0141 27.6991Z" fill="#D5DAE5"/>
<path d="M31.9001 31.7498C31.9001 30.9396 32.5078 30.332 33.2167 30.2307C33.5205 30.1295 33.9256 30.1295 34.3306 30.2307C35.951 30.332 37.3688 31.2434 37.2675 32.2562C37.1662 33.2689 35.8497 33.9778 34.1281 33.7752C33.8243 33.7752 33.5205 33.674 33.2167 33.5727C32.4065 33.4714 31.9001 32.6612 31.9001 31.7498Z" fill="#989FB0"/>
<path d="M38.7866 32.0537C49.4201 32.0537 69.0666 38.2312 69.3705 60.9159" stroke="#D5DAE5" stroke-width="2" stroke-miterlimit="10" stroke-dasharray="4 4"/>
<defs>
<filter id="filter0_d_6006_1069" x="9.78394" y="44.1917" width="134.962" height="122.051" filterUnits="userSpaceOnUse" color-interpolation-filters="sRGB">
<feFlood flood-opacity="0" result="BackgroundImageFix"/>
<feColorMatrix in="SourceAlpha" type="matrix" values="0 0 0 0 0 0 0 0 0 0 0 0 0 0 0 0 0 0 127 0" result="hardAlpha"/>
<feOffset dy="11"/>
<feGaussianBlur stdDeviation="11"/>
<feColorMatrix type="matrix" values="0 0 0 0 0.397708 0 0 0 0 0.47749 0 0 0 0 0.575 0 0 0 0.27 0"/>
<feBlend mode="normal" in2="BackgroundImageFix" result="effect1_dropShadow_6006_1069"/>
<feBlend mode="normal" in="SourceGraphic" in2="effect1_dropShadow_6006_1069" result="shape"/>
</filter>
<filter id="filter1_d_6006_1069" x="77.7144" y="74.2019" width="68.3108" height="63.3091" filterUnits="userSpaceOnUse" color-interpolation-filters="sRGB">
<feFlood flood-opacity="0" result="BackgroundImageFix"/>
<feColorMatrix in="SourceAlpha" type="matrix" values="0 0 0 0 0 0 0 0 0 0 0 0 0 0 0 0 0 0 127 0" result="hardAlpha"/>
<feOffset dy="11"/>
<feGaussianBlur stdDeviation="11"/>
<feColorMatrix type="matrix" values="0 0 0 0 0.397708 0 0 0 0 0.47749 0 0 0 0 0.575 0 0 0 0.27 0"/>
<feBlend mode="normal" in2="BackgroundImageFix" result="effect1_dropShadow_6006_1069"/>
<feBlend mode="normal" in="SourceGraphic" in2="effect1_dropShadow_6006_1069" result="shape"/>
</filter>
<linearGradient id="paint0_linear_6006_1069" x1="73.2001" y1="49.026" x2="73.2001" y2="56.5342" gradientUnits="userSpaceOnUse">
<stop stop-color="#B0BACC"/>
<stop offset="1" stop-color="#969EAE"/>
</linearGradient>
<linearGradient id="paint1_linear_6006_1069" x1="77.2353" y1="53.3863" x2="77.2353" y2="134.084" gradientUnits="userSpaceOnUse">
<stop stop-color="#FDFEFF"/>
<stop offset="0.9964" stop-color="#ECF0F5"/>
</linearGradient>
<linearGradient id="paint2_linear_6006_1069" x1="111.581" y1="89.053" x2="111.581" y2="98.6505" gradientUnits="userSpaceOnUse">
<stop stop-color="#B0BACC"/>
<stop offset="1" stop-color="#969EAE"/>
</linearGradient>
<linearGradient id="paint3_linear_6006_1069" x1="111.862" y1="84.7553" x2="111.862" y2="104.719" gradientUnits="userSpaceOnUse">
<stop stop-color="#FDFEFF"/>
<stop offset="0.9964" stop-color="#ECF0F5"/>
</linearGradient>
</defs>
</svg>
